<svg id="svg" version="1.1" xmlns="http://www.w3.org/2000/svg" xmlns:xlink="http://www.w3.org/1999/xlink" width="400" height="400" viewBox="0, 0, 400,400"><g id="svgg"><path id="path0" d="M259.292 20.793 C 258.743 21.027,258.288 21.659,258.142 22.390 C 257.998 23.112,257.638 23.617,257.250 23.643 C 256.893 23.666,256.240 23.711,255.800 23.743 C 255.250 23.782,255.009 24.075,255.030 24.680 C 255.046 25.164,254.909 25.467,254.726 25.354 C 254.542 25.241,253.932 25.510,253.370 25.952 C 252.461 26.667,251.820 26.748,247.607 26.678 C 245.000 26.635,242.731 26.736,242.564 26.903 C 242.398 27.069,242.179 33.414,242.077 41.003 L 241.893 54.800 231.146 54.800 L 220.400 54.800 220.321 52.900 C 220.278 51.855,220.290 50.206,220.348 49.234 C 220.518 46.405,220.185 45.671,218.597 45.373 C 217.327 45.135,217.200 44.987,217.200 43.755 C 217.200 43.010,217.065 42.399,216.900 42.397 C 216.735 42.396,216.293 41.856,215.919 41.197 C 215.544 40.539,214.959 40.000,214.619 40.000 C 214.278 40.000,214.000 39.820,214.000 39.600 C 214.000 39.380,213.280 39.200,212.400 39.200 C 210.773 39.200,210.497 38.755,210.758 36.551 C 210.793 36.260,209.797 36.081,207.931 36.042 C 204.409 35.970,204.818 36.691,204.774 30.472 C 204.754 27.573,204.588 25.200,204.406 25.200 C 204.224 25.200,204.169 24.840,204.284 24.400 C 204.406 23.935,204.296 23.600,204.023 23.600 C 203.764 23.600,203.664 23.779,203.799 23.999 C 203.963 24.264,203.694 24.264,202.997 23.999 C 200.031 22.871,195.114 23.639,195.292 25.203 C 195.383 25.996,195.158 26.207,193.900 26.514 C 192.532 26.847,192.400 27.000,192.400 28.240 C 192.400 29.693,192.105 29.813,189.055 29.608 C 188.356 29.560,188.009 29.691,188.164 29.942 C 188.318 30.191,187.982 30.323,187.309 30.277 C 186.331 30.209,186.185 30.354,186.075 31.500 C 185.953 32.757,185.888 32.801,184.075 32.840 C 180.965 32.906,180.217 33.257,180.075 34.716 C 179.951 35.983,179.341 36.279,177.346 36.041 C 176.636 35.955,176.457 38.609,176.406 49.987 C 176.353 61.924,176.553 60.921,174.199 61.058 C 171.953 61.188,170.891 61.752,170.728 62.899 C 170.513 64.410,168.980 64.281,167.518 62.629 L 166.253 61.200 162.826 61.204 C 157.725 61.211,156.443 61.509,155.607 62.884 L 154.899 64.050 154.625 61.492 C 154.474 60.086,154.471 58.455,154.619 57.868 C 154.926 56.644,154.538 54.668,154.049 54.969 C 152.485 55.936,151.623 53.030,151.579 46.637 C 151.526 39.202,151.526 39.200,149.757 39.200 C 148.948 39.200,148.392 38.998,148.381 38.700 C 148.219 34.422,147.724 33.200,146.151 33.200 C 145.287 33.200,145.200 33.031,145.200 31.357 C 145.200 29.912,145.075 29.562,144.620 29.737 C 144.275 29.869,144.112 29.765,144.216 29.480 C 144.485 28.743,141.949 26.400,140.882 26.400 C 140.387 26.400,138.414 24.120,138.679 23.854 C 138.800 23.734,135.488 23.636,131.320 23.637 L 123.741 23.639 123.646 25.720 C 123.547 27.892,122.656 29.338,121.116 29.827 C 120.589 29.994,120.383 30.393,120.439 31.134 C 120.884 36.960,120.360 45.200,119.544 45.200 C 119.073 45.200,118.430 45.515,118.114 45.900 C 117.799 46.285,117.672 46.347,117.832 46.038 C 118.030 45.658,117.967 45.573,117.638 45.776 C 117.371 45.941,117.183 46.464,117.221 46.938 C 117.346 48.529,117.205 48.800,116.249 48.800 C 114.653 48.800,114.325 49.694,114.108 54.625 C 113.925 58.786,113.808 59.366,112.963 60.278 C 111.521 61.834,110.359 60.794,110.753 58.300 C 110.779 58.135,110.665 58.021,110.500 58.047 C 110.335 58.073,108.175 58.073,105.700 58.047 L 101.200 58.000 101.200 56.814 C 101.200 54.109,95.492 54.155,93.480 56.877 C 92.484 58.224,86.549 58.606,85.343 57.400 C 85.013 57.070,84.936 56.800,85.171 56.800 C 85.880 56.800,85.654 55.657,84.862 55.233 C 83.868 54.701,59.073 54.701,57.086 55.233 C 55.870 55.559,55.527 55.867,55.339 56.804 C 55.107 57.964,55.092 57.970,51.853 58.085 C 48.605 58.200,48.600 58.202,48.560 59.307 C 48.504 60.822,48.350 60.908,45.737 60.885 C 43.240 60.862,40.589 62.013,40.173 63.300 C 39.949 63.992,39.525 64.168,38.446 64.018 C 36.936 63.807,36.054 64.402,36.088 65.607 C 36.133 67.213,36.232 67.170,32.378 67.220 C 27.210 67.286,26.686 67.443,26.894 68.858 C 27.097 70.242,26.991 70.335,25.066 70.465 L 23.600 70.564 23.600 76.682 C 23.600 82.226,23.534 82.804,22.900 82.843 C 20.421 82.993,20.609 82.657,20.486 87.142 C 20.405 90.069,20.522 91.469,20.886 91.918 C 21.278 92.402,21.281 92.482,20.900 92.253 C 20.065 91.752,20.311 93.511,21.200 94.400 C 21.640 94.840,22.360 95.200,22.800 95.200 C 23.523 95.200,24.024 98.594,23.644 100.911 C 23.616 101.082,23.895 101.339,24.266 101.481 C 26.511 102.342,26.485 102.162,26.421 116.636 C 26.352 132.280,26.392 132.667,28.074 132.714 C 29.690 132.760,29.562 132.158,29.673 140.220 C 29.754 146.091,29.884 147.497,30.386 147.930 C 30.724 148.221,30.775 148.345,30.500 148.206 C 29.906 147.905,29.864 148.391,30.371 149.723 C 30.578 150.269,31.195 150.812,31.771 150.957 L 32.800 151.215 32.834 162.708 C 32.886 180.526,32.758 179.578,35.100 179.594 L 36.000 179.600 36.024 188.500 C 36.037 193.395,36.082 203.099,36.124 210.064 L 36.200 222.728 37.368 223.664 C 38.011 224.179,38.682 224.698,38.859 224.818 C 39.036 224.937,39.195 232.810,39.213 242.311 C 39.247 260.941,39.232 260.809,41.329 260.794 C 42.054 260.789,42.099 260.717,41.600 260.363 C 41.219 260.094,41.190 259.989,41.523 260.077 C 41.939 260.187,42.039 262.674,42.012 272.337 L 41.978 284.458 40.939 285.422 C 40.367 285.952,39.745 286.290,39.557 286.173 C 39.368 286.057,39.225 291.134,39.237 297.456 C 39.250 304.038,39.407 308.713,39.604 308.394 C 39.793 308.088,39.868 307.710,39.772 307.554 C 39.675 307.398,39.912 307.331,40.298 307.405 C 40.684 307.478,41.315 307.553,41.700 307.569 C 42.085 307.586,42.400 307.764,42.400 307.965 C 42.400 308.165,41.954 308.281,41.409 308.221 C 40.733 308.147,40.223 308.411,39.800 309.056 C 39.359 309.730,39.322 310.000,39.671 310.000 C 40.051 310.000,40.053 310.107,39.680 310.480 C 39.416 310.744,39.200 311.612,39.200 312.409 C 39.200 313.752,39.089 313.886,37.700 314.229 L 36.200 314.600 36.162 318.864 C 36.122 323.313,36.959 325.600,38.629 325.600 C 39.178 325.600,39.380 326.643,39.221 328.659 C 39.183 329.144,39.381 329.509,39.677 329.496 C 41.807 329.405,41.934 329.526,42.196 331.900 C 42.685 336.326,42.826 336.966,43.473 337.680 C 43.831 338.076,44.347 338.400,44.619 338.400 C 45.258 338.400,45.607 339.325,45.391 340.446 C 45.289 340.975,45.497 341.531,45.911 341.835 C 46.549 342.305,46.550 342.362,45.934 342.601 C 45.145 342.907,44.855 357.200,45.638 357.200 C 45.863 357.200,45.930 357.390,45.786 357.623 C 45.245 358.498,46.025 360.050,47.214 360.465 C 48.345 360.859,48.580 361.333,48.421 362.900 C 48.382 363.285,48.497 363.600,48.677 363.600 C 48.857 363.600,49.240 364.131,49.527 364.781 C 49.815 365.431,50.399 366.073,50.825 366.208 C 51.378 366.383,51.614 366.847,51.650 367.827 C 51.733 370.096,51.773 370.198,52.602 370.257 C 53.041 370.289,53.715 370.334,54.100 370.357 C 54.701 370.394,54.800 370.826,54.800 373.400 L 54.800 376.400 61.000 376.400 L 67.200 376.400 67.230 377.500 C 67.315 380.672,67.989 381.859,70.016 382.404 C 72.351 383.033,88.583 382.768,88.650 382.100 C 88.678 381.825,88.723 381.150,88.750 380.600 C 88.786 379.883,89.027 379.600,89.600 379.600 C 90.624 379.600,90.609 379.926,89.530 381.074 C 89.052 381.583,88.832 382.000,89.041 382.000 C 89.736 382.000,91.200 380.764,91.200 380.177 C 91.200 379.636,98.802 379.242,102.924 379.569 C 103.543 379.618,104.292 379.455,104.590 379.208 C 105.012 378.858,105.449 379.076,106.560 380.187 C 107.906 381.532,109.899 382.635,110.286 382.248 C 110.382 382.152,110.087 381.955,109.631 381.810 C 108.458 381.437,108.122 379.710,108.945 378.277 C 109.580 377.170,109.578 377.123,108.908 377.384 C 107.684 377.860,107.452 377.819,107.294 377.100 C 107.160 376.485,145.549 375.854,150.556 376.389 C 151.106 376.447,151.244 376.291,151.061 375.814 C 150.914 375.431,150.973 375.260,151.205 375.403 C 151.429 375.542,151.600 375.162,151.600 374.524 L 151.600 373.400 162.700 373.365 C 179.327 373.312,178.717 373.411,179.732 370.600 C 179.811 370.380,180.426 370.785,181.099 371.500 C 181.812 372.259,182.712 372.797,183.260 372.793 C 184.133 372.787,184.107 372.727,182.900 371.954 C 182.185 371.496,181.600 370.959,181.600 370.761 C 181.600 370.246,183.354 370.314,183.889 370.849 C 184.669 371.629,186.723 371.655,187.216 370.890 C 187.613 370.273,187.636 370.285,187.429 371.000 C 187.210 371.758,187.228 371.762,187.759 371.079 C 188.179 370.538,188.372 370.488,188.528 370.879 C 188.686 371.273,188.745 371.278,188.768 370.900 C 188.831 369.906,220.385 370.204,220.460 371.200 C 220.493 371.640,220.538 372.225,220.560 372.500 C 220.633 373.413,222.917 373.579,232.035 373.334 C 243.112 373.037,245.600 373.265,245.600 374.580 C 245.600 376.201,246.273 376.347,253.750 376.350 C 260.612 376.352,260.873 376.323,260.678 375.576 C 260.566 375.149,260.669 374.800,260.906 374.800 C 261.143 374.800,261.633 374.532,261.994 374.205 C 262.544 373.708,264.828 373.598,276.004 373.532 L 289.357 373.454 289.379 374.827 L 289.400 376.200 292.800 376.288 C 297.430 376.408,297.914 376.266,298.210 374.697 L 298.455 373.400 301.627 373.356 L 304.800 373.313 304.800 374.856 L 304.800 376.400 318.810 376.400 L 332.820 376.400 333.063 377.614 C 333.393 379.263,334.212 379.600,337.894 379.600 C 341.351 379.600,342.000 379.271,342.000 377.520 C 342.000 376.516,342.139 376.400,343.340 376.400 C 346.484 376.400,348.400 374.577,348.400 371.586 C 348.400 370.414,348.920 370.139,350.700 370.370 C 350.975 370.406,351.200 370.272,351.200 370.073 C 351.200 369.874,351.622 369.792,352.137 369.890 C 352.682 369.994,353.351 369.792,353.737 369.406 C 354.368 368.775,354.502 368.151,354.598 365.400 L 354.640 364.200 358.797 364.085 C 363.498 363.955,364.091 363.674,363.971 361.628 C 363.926 360.843,363.913 356.753,363.944 352.541 L 364.000 344.882 365.300 344.941 C 366.309 344.987,366.588 344.844,366.545 344.304 C 366.515 343.922,366.648 343.706,366.842 343.826 C 367.042 343.949,367.189 333.718,367.184 320.037 C 367.178 302.713,367.050 295.955,366.726 295.754 C 366.435 295.575,366.380 295.675,366.568 296.038 C 366.728 296.347,366.601 296.285,366.286 295.900 C 365.970 295.515,365.327 295.200,364.856 295.200 C 364.385 295.200,364.000 295.020,364.000 294.800 C 364.000 294.580,364.180 294.400,364.400 294.400 C 364.620 294.400,365.160 294.040,365.600 293.600 C 367.238 291.962,366.327 286.800,364.400 286.800 C 363.546 286.800,364.055 285.602,365.011 285.362 C 367.830 284.654,367.738 275.453,364.898 274.205 C 364.041 273.828,363.505 262.512,363.939 253.954 C 364.026 252.249,363.243 251.422,361.802 251.697 L 360.800 251.889 360.800 231.402 L 360.800 210.916 362.073 210.551 C 363.788 210.059,363.995 209.103,363.967 201.800 C 363.939 194.398,363.630 192.958,361.993 192.598 L 360.800 192.336 360.800 180.587 L 360.800 168.838 362.390 167.560 L 363.981 166.281 363.890 160.641 L 363.800 155.000 362.400 155.000 L 361.000 155.000 360.893 145.129 C 360.789 135.507,360.807 135.252,361.600 135.000 C 362.713 134.647,364.070 131.842,363.989 130.061 C 363.952 129.258,363.940 122.435,363.961 114.900 L 364.000 101.200 364.920 101.200 C 366.332 101.200,366.805 100.428,366.747 98.220 C 366.697 96.306,366.679 96.273,366.400 97.600 L 366.105 99.000 366.053 97.287 C 366.015 96.078,366.181 95.505,366.617 95.338 C 366.956 95.208,367.205 94.809,367.171 94.451 C 366.707 89.649,367.276 78.830,368.004 78.599 C 369.078 78.258,370.127 76.160,369.825 74.957 C 369.689 74.417,369.762 74.000,369.992 74.000 C 370.224 74.000,370.400 72.963,370.400 71.600 C 370.400 70.280,370.226 69.200,370.013 69.200 C 369.799 69.200,369.736 68.912,369.871 68.560 C 370.156 67.816,369.380 67.215,368.124 67.206 C 367.402 67.201,367.226 66.937,367.124 65.700 C 367.055 64.869,366.777 64.178,366.500 64.150 C 366.225 64.123,365.550 64.078,365.000 64.050 C 364.137 64.007,364.000 63.812,364.000 62.627 C 364.000 61.018,363.562 60.801,360.488 60.881 C 357.839 60.951,357.681 60.776,357.526 57.600 C 357.407 55.141,357.346 54.998,356.400 54.957 C 354.579 54.878,354.503 54.819,354.646 53.591 C 354.792 52.332,353.753 49.200,353.189 49.200 C 353.011 49.200,352.536 49.078,352.133 48.929 C 351.698 48.769,351.929 49.160,352.700 49.890 C 354.128 51.243,354.284 51.571,353.440 51.447 C 352.615 51.326,351.575 50.364,351.828 49.955 C 351.949 49.760,351.857 49.600,351.624 49.600 C 351.391 49.600,351.200 49.323,351.200 48.985 C 351.200 48.591,350.877 48.398,350.300 48.447 C 346.281 48.792,342.000 48.370,342.000 47.629 C 342.000 46.307,340.842 45.528,339.040 45.638 C 338.138 45.694,337.083 45.598,336.695 45.425 C 336.287 45.243,335.760 45.301,335.446 45.562 C 335.146 45.811,334.590 45.894,334.210 45.749 C 333.408 45.441,332.815 46.180,332.806 47.500 C 332.801 48.316,332.605 48.401,330.700 48.415 C 324.676 48.459,321.919 49.165,321.401 50.796 C 321.063 51.862,310.000 52.070,310.000 51.009 C 310.000 48.279,296.834 47.934,296.153 50.646 C 295.911 51.608,295.829 51.627,292.453 51.515 L 289.000 51.400 288.872 50.068 C 288.778 49.083,288.590 48.795,288.151 48.963 C 287.817 49.091,287.665 49.018,287.803 48.795 C 287.940 48.574,287.596 48.400,287.024 48.400 L 286.000 48.400 285.957 43.100 C 285.898 35.743,286.018 36.281,284.400 36.094 C 282.719 35.901,282.939 36.178,282.671 33.918 C 282.326 31.018,279.496 28.628,277.713 29.730 C 277.075 30.124,276.427 29.387,276.334 28.163 C 276.243 26.975,276.047 26.852,273.982 26.680 C 273.557 26.645,273.410 26.312,273.512 25.614 C 273.704 24.300,271.517 21.200,270.397 21.200 C 269.566 21.200,268.000 22.506,268.000 23.200 C 268.000 24.013,266.768 23.567,266.409 22.624 C 265.775 20.957,261.491 19.855,259.292 20.793 M259.792 22.077 C 259.223 22.525,258.647 22.781,258.512 22.646 C 258.377 22.511,258.477 22.400,258.733 22.400 C 258.990 22.400,259.155 22.175,259.100 21.900 C 259.045 21.625,259.225 21.445,259.500 21.500 C 259.775 21.555,260.000 21.409,260.000 21.176 C 260.000 20.943,260.186 20.868,260.413 21.008 C 260.654 21.157,260.395 21.603,259.792 22.077 M271.400 22.800 C 272.113 23.588,272.099 23.600,270.448 23.600 C 268.896 23.600,268.804 23.541,269.200 22.800 C 269.435 22.360,269.864 22.000,270.152 22.000 C 270.440 22.000,271.002 22.360,271.400 22.800 M143.000 28.800 C 143.703 29.576,143.699 29.600,142.862 29.600 C 142.267 29.600,142.000 29.353,142.000 28.800 C 142.000 28.360,142.062 28.000,142.138 28.000 C 142.214 28.000,142.602 28.360,143.000 28.800 M147.353 35.384 C 148.265 36.776,148.003 36.659,146.378 34.950 C 145.453 33.976,145.277 33.642,145.843 33.934 C 146.307 34.172,146.986 34.825,147.353 35.384 M215.138 41.779 C 215.227 42.235,215.082 42.428,214.738 42.313 C 214.442 42.214,214.138 41.813,214.062 41.421 C 213.973 40.965,214.118 40.772,214.462 40.887 C 214.758 40.986,215.062 41.387,215.138 41.779 M341.298 47.724 C 341.202 47.902,340.876 47.722,340.574 47.324 C 339.777 46.273,339.878 45.884,340.737 46.700 C 341.142 47.085,341.394 47.546,341.298 47.724 M324.338 50.400 C 323.089 51.649,321.864 52.021,322.242 51.036 C 322.435 50.531,324.587 49.232,325.269 49.209 C 325.417 49.204,324.998 49.740,324.338 50.400 M300.800 49.886 C 300.470 50.008,299.840 50.274,299.400 50.476 C 298.613 50.838,298.612 50.834,299.376 50.222 C 299.804 49.880,300.434 49.614,300.776 49.632 C 301.315 49.659,301.318 49.693,300.800 49.886 M303.824 50.222 C 304.588 50.834,304.587 50.838,303.800 50.476 C 303.360 50.274,302.730 50.008,302.400 49.886 C 301.882 49.693,301.885 49.659,302.424 49.632 C 302.766 49.614,303.396 49.880,303.824 50.222 M231.787 50.814 C 231.069 51.607,231.073 51.651,231.925 52.503 L 232.800 53.378 233.675 52.503 C 234.524 51.654,233.946 50.000,232.800 50.000 C 232.648 50.000,232.192 50.366,231.787 50.814 M308.426 50.414 C 309.659 51.074,309.327 51.602,307.700 51.572 C 305.532 51.531,304.118 50.880,306.000 50.788 C 307.297 50.725,307.326 50.697,306.400 50.400 L 305.400 50.080 306.526 50.040 C 307.146 50.018,308.001 50.186,308.426 50.414 M96.309 56.829 C 95.665 57.473,94.747 57.995,94.269 57.988 C 93.456 57.977,93.477 57.906,94.603 56.881 C 96.372 55.269,97.916 55.222,96.309 56.829 M161.361 61.937 C 161.573 62.280,158.781 63.314,158.473 63.006 C 158.381 62.914,158.777 62.721,159.353 62.576 C 159.929 62.432,160.400 62.153,160.400 61.957 C 160.400 61.504,161.085 61.491,161.361 61.937 M173.567 62.100 C 173.475 62.155,172.881 62.650,172.246 63.200 C 171.177 64.126,171.125 64.136,171.541 63.335 C 171.967 62.515,172.545 62.102,173.367 62.032 C 173.568 62.014,173.658 62.045,173.567 62.100 M42.290 63.200 C 42.333 63.764,42.104 64.000,41.513 64.000 C 40.701 64.000,40.698 63.976,41.400 63.200 C 41.798 62.760,42.148 62.400,42.177 62.400 C 42.206 62.400,42.257 62.760,42.290 63.200 M368.761 76.455 C 367.695 77.952,367.200 78.211,367.200 77.270 C 367.200 76.817,367.550 76.402,368.040 76.274 C 368.502 76.153,368.780 75.892,368.658 75.694 C 368.535 75.495,368.688 75.333,368.997 75.333 C 369.424 75.333,369.367 75.603,368.761 76.455 M227.071 82.243 C 231.613 84.644,241.159 84.806,243.684 82.526 C 244.724 81.586,248.254 81.667,250.323 82.678 C 252.804 83.891,254.101 88.069,253.713 93.600 C 253.229 100.496,253.359 108.060,253.980 109.200 C 255.679 112.320,260.803 116.773,264.536 118.372 C 265.454 118.766,266.774 119.566,267.467 120.150 C 268.161 120.733,269.420 121.496,270.264 121.844 C 271.109 122.192,272.188 122.834,272.661 123.272 C 276.850 127.138,282.289 120.799,279.147 115.714 C 278.298 114.340,278.157 112.871,278.359 107.515 C 278.468 104.625,277.276 98.353,276.383 97.116 C 275.410 95.769,275.404 95.158,276.345 93.284 C 276.755 92.468,277.402 90.848,277.782 89.685 C 278.862 86.385,281.426 85.424,286.563 86.393 C 289.114 86.874,289.229 86.859,291.039 85.798 C 292.061 85.200,294.889 84.220,297.324 83.621 L 301.751 82.533 305.151 83.696 C 307.021 84.336,308.991 85.207,309.530 85.631 C 311.268 86.998,314.240 87.600,319.247 87.600 C 325.560 87.600,327.630 88.652,328.764 92.437 C 329.028 93.319,329.684 94.869,330.222 95.880 C 330.916 97.185,331.204 98.370,331.213 99.960 C 331.230 103.079,332.243 111.951,332.747 113.400 C 333.269 114.900,334.297 126.460,334.384 131.800 C 334.420 134.000,334.708 137.769,335.025 140.175 C 335.763 145.790,335.794 145.479,334.420 146.190 C 332.813 147.021,332.254 146.962,330.897 145.820 C 330.257 145.282,328.758 144.458,327.566 143.990 C 326.375 143.523,325.014 142.780,324.542 142.339 C 324.070 141.899,322.291 141.109,320.590 140.584 C 318.888 140.059,317.204 139.369,316.848 139.050 C 316.492 138.731,315.210 138.000,314.000 137.426 C 312.790 136.851,311.350 136.107,310.800 135.771 C 309.317 134.865,304.818 135.213,303.380 136.344 C 302.782 136.815,302.091 137.202,301.846 137.204 C 299.035 137.226,294.001 144.364,295.716 145.896 C 296.149 146.283,296.931 147.273,297.454 148.096 C 298.225 149.309,298.718 149.641,300.070 149.858 C 301.116 150.025,302.267 150.602,303.167 151.409 C 303.955 152.116,305.050 152.831,305.600 152.999 C 306.150 153.167,307.611 153.811,308.847 154.431 C 310.083 155.051,312.333 155.844,313.847 156.193 C 315.361 156.543,317.413 157.252,318.406 157.769 C 319.791 158.490,324.486 159.600,326.152 159.600 C 326.343 159.600,328.468 161.296,331.726 164.050 C 334.341 166.260,334.363 166.373,334.562 178.463 C 334.818 193.985,335.868 219.499,336.551 226.800 C 337.480 236.731,338.149 257.587,337.818 266.346 C 337.655 270.666,337.452 285.000,337.368 298.200 C 337.212 322.584,337.045 325.596,335.583 330.342 C 335.152 331.740,334.800 333.693,334.800 334.680 C 334.800 335.838,334.514 336.878,333.996 337.605 L 333.192 338.734 326.896 338.732 C 323.433 338.730,319.430 338.917,318.000 339.145 C 312.371 340.046,304.848 340.471,292.520 340.583 L 279.641 340.700 277.720 341.850 L 275.800 343.000 265.000 343.102 C 249.927 343.245,234.321 343.803,231.000 344.318 C 218.774 346.215,185.061 347.470,166.800 346.708 C 162.950 346.547,153.988 346.321,146.885 346.204 L 133.970 345.992 131.887 344.903 C 129.897 343.863,129.454 343.801,122.002 343.541 C 114.056 343.263,113.248 343.134,109.890 341.617 C 107.673 340.615,102.301 340.446,97.770 341.235 C 95.823 341.574,94.870 341.578,94.151 341.250 C 93.021 340.736,87.162 340.008,84.109 340.003 C 81.279 339.999,80.000 337.270,80.000 331.237 C 80.000 329.792,78.327 327.032,76.281 325.102 C 74.825 323.729,74.800 323.654,74.800 320.659 C 74.800 318.540,74.483 316.544,73.758 314.106 C 72.851 311.053,72.705 309.772,72.628 304.200 C 72.525 296.655,71.603 289.624,70.242 286.000 C 69.191 283.202,68.015 276.371,67.970 272.800 C 67.932 269.816,67.429 267.061,66.407 264.244 C 65.837 262.672,65.366 259.812,64.991 255.644 C 64.682 252.210,64.236 248.770,64.001 248.000 C 62.968 244.625,62.758 235.935,63.672 234.411 C 64.568 232.917,64.686 230.652,64.005 228.000 C 63.037 224.229,62.845 218.779,63.245 206.350 C 63.545 197.010,63.534 192.621,63.204 190.080 C 62.955 188.166,62.595 180.570,62.402 173.200 C 62.057 159.945,61.877 158.205,60.662 156.350 C 59.795 155.028,59.060 149.867,59.391 147.428 C 59.542 146.313,59.817 143.330,60.002 140.800 C 60.202 138.070,60.616 135.550,61.021 134.600 C 61.747 132.899,61.769 132.321,61.527 121.400 C 61.408 116.004,61.243 114.394,60.730 113.600 C 59.430 111.590,59.467 110.949,60.980 109.274 C 61.761 108.410,62.400 107.514,62.400 107.282 C 62.400 107.051,62.845 106.333,63.389 105.686 C 65.536 103.134,65.756 100.712,64.340 95.193 C 62.551 88.223,63.879 86.919,73.200 86.487 C 83.066 86.029,112.687 87.083,114.305 87.949 C 116.028 88.871,117.696 91.886,117.504 93.729 C 117.408 94.648,117.478 95.810,117.659 96.310 C 118.237 97.910,118.795 102.179,119.186 108.004 C 119.485 112.450,119.822 114.458,120.749 117.335 C 121.398 119.351,122.142 122.170,122.400 123.600 C 122.976 126.783,122.980 126.787,126.616 128.783 C 130.395 130.857,132.639 130.952,136.190 129.187 C 137.504 128.534,138.769 128.000,139.001 128.000 C 139.232 128.000,140.677 126.719,142.211 125.154 C 143.745 123.589,145.784 121.952,146.743 121.517 C 152.499 118.902,153.514 116.006,152.749 104.388 C 151.761 89.379,151.973 87.976,155.600 85.534 C 157.382 84.335,157.434 84.326,160.800 84.656 C 162.670 84.840,166.564 84.934,169.453 84.866 C 176.280 84.705,178.768 85.174,181.575 87.153 C 184.391 89.138,184.375 89.062,184.369 100.381 C 184.365 109.002,184.901 118.393,185.449 119.279 C 185.571 119.477,185.441 121.522,185.160 123.823 C 184.825 126.564,184.778 128.375,185.024 129.072 L 185.400 130.136 191.600 130.328 C 206.964 130.806,207.193 130.755,209.394 126.413 C 209.934 125.347,210.534 124.413,210.727 124.337 C 210.921 124.262,211.511 123.544,212.039 122.743 C 212.568 121.942,214.232 119.782,215.739 117.943 C 218.879 114.110,219.156 112.262,217.013 109.453 C 215.886 107.976,215.185 103.278,215.632 100.200 C 215.760 99.320,215.791 95.630,215.700 92.000 L 215.536 85.400 217.709 83.100 C 220.540 80.103,222.657 79.909,227.071 82.243 M362.851 132.304 C 362.042 133.817,360.800 134.639,360.800 133.662 C 360.800 133.188,360.991 132.800,361.224 132.800 C 361.457 132.800,361.537 132.622,361.403 132.405 C 361.266 132.184,361.415 132.107,361.739 132.232 C 362.058 132.354,362.438 132.262,362.583 132.027 C 363.025 131.313,363.255 131.551,362.851 132.304 M221.559 147.250 C 217.294 147.484,216.211 147.683,214.515 148.542 C 212.195 149.717,209.282 150.264,202.675 150.764 C 199.526 151.002,197.724 151.318,197.275 151.710 C 196.904 152.033,195.970 152.595,195.200 152.958 C 192.055 154.441,190.800 156.969,190.800 161.822 C 190.800 164.129,191.276 164.771,193.750 165.805 C 194.586 166.154,195.935 167.139,196.748 167.994 C 198.127 169.443,198.346 169.534,200.013 169.346 C 203.475 168.956,205.704 168.380,206.814 167.590 C 208.021 166.730,209.858 166.307,216.368 165.389 C 218.661 165.065,220.821 164.551,221.168 164.247 C 221.516 163.942,222.594 163.294,223.564 162.806 C 224.534 162.318,226.614 160.722,228.185 159.259 C 229.757 157.797,231.623 156.290,232.333 155.912 C 234.043 155.000,235.353 152.174,234.610 151.000 C 232.879 148.267,228.091 146.891,221.559 147.250 M269.158 150.431 C 265.427 150.645,262.535 151.061,259.958 151.756 C 257.891 152.312,255.210 152.880,254.000 153.018 C 248.030 153.696,246.400 154.935,246.400 158.799 C 246.400 160.359,247.410 162.800,248.056 162.800 C 248.211 162.800,248.899 163.272,249.584 163.848 C 252.602 166.387,256.703 166.847,274.305 166.619 C 293.476 166.371,292.405 166.659,293.525 161.447 C 294.841 155.319,294.041 153.200,290.411 153.200 C 288.908 153.200,288.199 152.953,287.025 152.020 C 286.120 151.301,284.888 150.761,283.870 150.638 C 280.359 150.214,274.392 150.130,269.158 150.431 M71.500 153.426 C 70.455 153.970,69.600 154.586,69.600 154.794 C 69.600 155.002,69.048 155.801,68.373 156.569 L 67.147 157.966 68.160 159.683 C 71.395 165.161,78.587 167.909,90.600 168.260 C 98.472 168.489,98.331 168.513,104.800 165.869 C 111.673 163.061,111.275 157.576,104.111 156.372 C 102.620 156.121,100.680 155.505,99.800 155.004 C 95.414 152.504,75.414 151.389,71.500 153.426 M140.200 154.265 C 138.958 154.619,137.205 154.764,135.574 154.647 C 132.982 154.461,132.923 154.480,131.083 156.053 C 127.083 159.472,127.806 162.012,133.800 165.595 C 134.680 166.121,136.026 167.058,136.791 167.676 C 137.556 168.294,138.405 168.800,138.677 168.800 C 138.949 168.800,139.772 169.327,140.506 169.971 C 141.240 170.615,142.766 171.494,143.897 171.924 C 145.028 172.354,146.424 173.075,146.999 173.527 C 147.573 173.979,149.237 174.746,150.696 175.232 C 152.155 175.717,153.900 176.431,154.574 176.817 C 155.248 177.203,156.878 177.825,158.195 178.198 C 159.512 178.572,161.355 179.326,162.290 179.874 L 163.991 180.871 165.467 179.959 C 166.278 179.457,168.128 178.479,169.576 177.785 C 173.443 175.931,174.938 174.091,174.222 172.064 C 173.096 168.872,167.535 164.616,158.229 159.822 C 156.705 159.037,155.175 158.149,154.829 157.848 C 154.483 157.547,153.480 157.077,152.600 156.803 C 151.720 156.529,149.830 155.809,148.400 155.203 C 145.113 153.809,142.746 153.538,140.200 154.265 M362.400 194.000 C 362.840 194.440,363.200 195.020,363.200 195.289 C 363.200 195.558,362.924 195.383,362.586 194.901 C 362.248 194.418,361.663 193.844,361.286 193.624 C 360.896 193.397,360.816 193.219,361.100 193.212 C 361.375 193.205,361.960 193.560,362.400 194.000 M37.600 222.200 C 37.874 222.530,38.391 222.814,38.749 222.832 C 39.158 222.851,39.215 222.938,38.904 223.064 C 38.631 223.174,37.932 222.890,37.350 222.432 C 36.768 221.974,36.474 221.600,36.697 221.600 C 36.920 221.600,37.326 221.870,37.600 222.200 M364.971 288.229 C 366.061 289.319,365.595 293.600,364.386 293.600 C 364.172 293.600,364.000 292.260,364.000 290.600 C 364.000 287.360,364.030 287.287,364.971 288.229 M39.200 324.004 C 39.200 324.991,38.723 325.020,37.878 324.086 C 37.275 323.420,37.297 323.366,38.216 323.290 C 38.959 323.229,39.200 323.404,39.200 324.004 M47.630 359.082 L 48.600 360.163 47.622 359.548 C 47.084 359.209,46.574 358.722,46.489 358.466 C 46.244 357.731,46.583 357.914,47.630 359.082 M51.600 364.800 C 51.600 365.240,51.538 365.600,51.462 365.600 C 51.386 365.600,50.998 365.240,50.600 364.800 C 49.897 364.024,49.901 364.000,50.738 364.000 C 51.333 364.000,51.600 364.247,51.600 364.800 M353.002 368.398 C 352.603 368.839,352.130 369.200,351.952 369.200 C 351.774 369.200,352.027 368.786,352.514 368.280 C 353.590 367.163,354.025 367.268,353.002 368.398 M185.142 372.036 C 184.907 372.181,185.187 372.300,185.765 372.300 C 186.342 372.300,186.888 372.181,186.978 372.036 C 187.068 371.890,186.788 371.771,186.356 371.771 C 185.923 371.771,185.377 371.890,185.142 372.036 M184.900 373.076 C 185.285 373.176,185.915 373.176,186.300 373.076 C 186.685 372.975,186.370 372.893,185.600 372.893 C 184.830 372.893,184.515 372.975,184.900 373.076 M106.400 376.522 C 106.400 376.588,105.733 377.263,104.917 378.022 C 104.102 378.780,103.678 379.081,103.974 378.690 C 104.271 378.300,104.400 377.867,104.260 377.727 C 103.857 377.324,104.824 376.400,105.649 376.400 C 106.062 376.400,106.400 376.455,106.400 376.522 M69.701 381.386 C 70.183 381.724,70.358 382.000,70.089 382.000 C 69.444 382.000,67.997 380.536,68.012 379.900 C 68.019 379.616,68.197 379.696,68.424 380.086 C 68.644 380.463,69.218 381.048,69.701 381.386 " stroke="none" fill="#54c4d4" fill-rule="evenodd"></path><path id="path1" d="M8.267 11.467 C 7.592 12.141,7.995 16.369,8.774 16.786 C 11.978 18.501,17.481 15.843,16.433 13.086 C 15.859 11.577,9.431 10.303,8.267 11.467 M269.200 22.800 C 268.728 23.681,269.165 23.875,269.920 23.120 C 270.293 22.747,270.507 22.747,270.880 23.120 C 271.697 23.937,272.167 23.648,271.400 22.800 C 271.002 22.360,270.440 22.000,270.152 22.000 C 269.864 22.000,269.435 22.360,269.200 22.800 M142.000 28.289 C 142.000 28.792,143.143 29.790,143.412 29.521 C 143.518 29.415,143.244 29.002,142.802 28.602 C 142.361 28.203,142.000 28.062,142.000 28.289 M214.075 41.225 C 214.171 41.514,214.486 41.829,214.775 41.925 C 215.075 42.025,215.225 41.875,215.125 41.575 C 215.029 41.286,214.714 40.971,214.425 40.875 C 214.125 40.775,213.975 40.925,214.075 41.225 M352.400 50.133 C 353.990 51.789,354.194 51.909,353.630 50.857 C 353.412 50.448,352.730 49.790,352.116 49.394 C 351.118 48.751,351.148 48.830,352.400 50.133 M322.849 50.440 C 321.972 51.257,321.918 51.945,322.771 51.418 C 323.195 51.156,324.152 49.600,323.889 49.600 C 323.813 49.600,323.345 49.978,322.849 50.440 M306.526 50.407 C 307.145 50.592,307.914 50.963,308.235 51.229 C 308.556 51.496,308.950 51.584,309.109 51.424 C 309.597 50.936,307.920 49.998,306.624 50.034 L 305.400 50.069 306.526 50.407 M94.706 56.788 C 93.988 57.442,93.591 57.982,93.825 57.988 C 94.059 57.995,94.768 57.460,95.400 56.800 C 96.883 55.252,96.404 55.244,94.706 56.788 M41.400 63.200 C 41.002 63.640,40.878 64.000,41.124 64.000 C 41.370 64.000,41.765 63.640,42.000 63.200 C 42.235 62.760,42.360 62.400,42.276 62.400 C 42.192 62.400,41.798 62.760,41.400 63.200 M367.592 77.010 C 366.819 77.941,367.371 78.117,368.198 77.202 C 368.597 76.761,368.738 76.400,368.511 76.400 C 368.284 76.400,367.870 76.674,367.592 77.010 M16.187 82.014 C 15.469 82.807,15.473 82.851,16.325 83.703 L 17.200 84.578 18.075 83.703 C 18.924 82.854,18.346 81.200,17.200 81.200 C 17.048 81.200,16.592 81.566,16.187 82.014 M220.700 82.676 C 220.315 82.776,220.000 83.214,220.000 83.648 C 220.000 84.083,219.505 84.897,218.900 85.459 C 217.544 86.717,217.352 90.655,218.508 93.508 C 219.535 96.042,219.418 98.480,218.200 99.927 C 217.045 101.300,216.939 102.249,217.832 103.236 C 220.476 106.156,220.624 117.620,218.038 119.104 C 217.395 119.473,216.629 120.321,216.335 120.987 C 216.041 121.654,215.328 122.424,214.750 122.698 C 214.058 123.026,213.613 123.634,213.443 124.487 C 213.301 125.197,212.665 126.323,212.030 126.989 C 211.395 127.655,210.543 128.920,210.135 129.800 C 209.017 132.215,208.259 132.351,195.789 132.377 C 181.721 132.407,183.331 133.987,183.084 119.906 C 182.910 109.912,182.789 108.276,182.043 105.809 C 180.936 102.144,180.919 98.266,182.001 96.490 C 183.093 94.700,183.049 92.305,181.900 91.062 C 181.405 90.527,180.709 89.668,180.354 89.155 C 179.716 88.231,179.619 88.220,171.154 88.131 C 165.225 88.069,161.863 87.860,160.200 87.450 C 158.193 86.955,157.750 86.947,157.497 87.399 C 157.330 87.697,156.589 88.139,155.851 88.383 C 154.558 88.810,154.499 88.919,154.279 91.313 C 153.965 94.733,154.582 106.746,155.143 108.126 C 155.716 109.539,155.742 114.098,155.179 114.661 C 154.948 114.892,154.518 115.996,154.223 117.113 C 153.630 119.360,150.569 122.800,149.162 122.800 C 148.742 122.800,147.183 124.014,145.699 125.497 C 144.215 126.980,142.370 128.533,141.600 128.948 C 140.830 129.363,139.626 130.204,138.925 130.816 C 136.697 132.765,127.039 133.020,124.802 131.190 C 124.251 130.739,123.309 130.062,122.708 129.685 C 121.408 128.869,120.942 127.773,120.603 124.728 C 120.455 123.402,120.084 122.236,119.713 121.928 C 118.441 120.874,117.995 118.753,117.565 111.713 C 117.284 107.125,116.949 104.387,116.621 104.000 C 115.646 102.848,115.134 100.569,114.915 96.400 C 114.688 92.063,114.355 90.800,113.440 90.800 C 113.147 90.800,112.415 90.413,111.814 89.939 C 110.118 88.605,68.200 87.665,66.933 88.933 C 66.575 89.290,66.549 91.347,66.800 99.200 C 66.980 104.809,66.551 106.821,65.026 107.515 C 64.455 107.775,63.968 108.437,63.807 109.170 C 63.659 109.841,63.391 110.482,63.211 110.593 C 63.031 110.704,63.065 111.561,63.285 112.498 C 64.539 117.816,63.169 146.380,61.591 147.808 C 60.890 148.442,60.891 148.508,61.611 149.732 C 62.020 150.430,62.541 151.831,62.768 152.847 C 62.994 153.864,63.365 155.181,63.591 155.776 L 64.002 156.857 65.055 156.028 C 65.634 155.573,66.351 155.200,66.649 155.200 C 66.946 155.200,67.453 154.569,67.775 153.797 C 68.119 152.974,68.789 152.232,69.397 152.001 C 69.966 151.785,70.859 151.111,71.380 150.504 L 72.329 149.400 78.517 149.273 C 86.232 149.114,91.767 149.677,93.248 150.772 C 93.927 151.274,95.472 151.712,97.460 151.966 C 101.203 152.445,104.528 153.390,105.165 154.158 C 105.418 154.463,106.475 154.838,107.513 154.992 C 109.684 155.312,111.637 156.393,112.712 157.870 C 113.531 158.994,117.429 159.937,121.424 159.979 C 123.767 160.003,124.315 159.655,125.806 157.200 C 128.596 152.604,129.317 152.301,137.956 152.089 C 147.211 151.862,149.677 152.141,151.339 153.600 C 152.048 154.222,153.341 154.861,154.214 155.018 C 156.150 155.369,157.097 155.820,158.400 157.014 C 158.950 157.518,160.174 158.136,161.121 158.386 C 162.067 158.637,163.227 159.285,163.698 159.826 C 165.237 161.596,168.856 161.928,169.808 160.386 C 169.998 160.080,170.692 160.013,171.858 160.188 C 173.254 160.397,173.897 160.282,174.944 159.635 C 176.537 158.650,181.267 157.601,184.126 157.598 C 187.871 157.594,188.915 157.080,189.600 154.906 C 190.093 153.341,190.471 152.873,191.717 152.289 C 192.551 151.898,193.338 151.306,193.465 150.974 C 194.009 149.558,196.041 149.062,202.000 148.891 C 207.271 148.739,207.928 148.639,209.200 147.784 C 209.970 147.268,211.119 146.650,211.753 146.412 C 213.005 145.942,225.995 145.216,228.600 145.469 C 233.291 145.927,233.721 146.060,235.273 147.534 C 236.121 148.340,237.178 149.321,237.620 149.713 C 238.063 150.104,238.528 150.938,238.653 151.565 C 238.930 152.949,240.946 153.383,244.186 152.758 C 245.294 152.544,247.538 152.196,249.174 151.985 C 251.126 151.733,252.431 151.339,252.974 150.839 C 255.753 148.275,285.899 147.518,288.568 149.945 C 289.673 150.949,295.257 152.193,295.500 151.489 C 295.879 150.394,295.536 148.000,295.000 148.000 C 293.586 148.000,292.800 146.500,292.800 143.800 C 292.800 141.106,293.585 139.600,294.990 139.600 C 295.314 139.600,295.849 139.080,296.178 138.443 C 296.507 137.807,297.308 137.101,297.958 136.875 C 298.609 136.648,299.427 136.026,299.776 135.493 C 301.690 132.571,311.120 132.259,314.410 135.009 C 315.308 135.758,316.707 136.492,317.521 136.639 C 319.309 136.963,321.284 137.910,321.719 138.652 C 321.894 138.952,322.770 139.314,323.665 139.457 C 324.580 139.603,326.060 140.303,327.047 141.057 C 328.012 141.794,329.477 142.555,330.301 142.749 C 331.126 142.942,332.070 143.168,332.400 143.250 C 333.113 143.428,333.217 137.205,332.516 136.311 C 331.894 135.518,331.073 130.920,330.961 127.600 C 330.530 114.866,329.732 102.772,329.293 102.333 C 329.022 102.062,328.800 101.125,328.800 100.251 C 328.800 99.370,328.521 98.354,328.173 97.970 C 327.828 97.589,327.356 96.000,327.125 94.439 C 326.785 92.149,326.566 91.600,325.996 91.600 C 325.607 91.600,324.880 91.269,324.380 90.864 C 323.594 90.228,322.939 90.154,319.558 90.316 C 316.157 90.480,315.439 90.397,314.064 89.680 C 313.194 89.227,311.473 88.669,310.240 88.441 C 307.616 87.956,306.567 87.460,306.025 86.447 C 305.063 84.649,296.227 84.972,294.453 86.870 C 293.205 88.207,290.269 88.846,286.945 88.507 C 285.814 88.392,283.718 88.423,282.287 88.576 L 279.684 88.855 279.240 91.927 C 278.616 96.251,279.182 102.104,280.345 103.341 C 282.077 105.185,282.119 109.019,280.418 110.081 C 279.402 110.716,279.383 111.280,280.351 112.155 C 282.389 114.000,282.973 120.828,281.380 124.185 C 280.095 126.893,273.321 127.160,270.437 124.617 C 269.647 123.920,268.236 123.129,267.302 122.859 C 266.117 122.517,265.427 122.026,265.017 121.232 C 264.539 120.309,264.068 120.041,262.517 119.808 C 260.999 119.581,260.308 119.200,259.164 117.961 C 258.371 117.102,257.453 116.400,257.123 116.400 C 256.457 116.400,255.454 115.373,255.073 114.300 C 254.937 113.915,254.577 113.600,254.275 113.600 C 252.200 113.600,251.445 108.274,251.836 96.400 L 252.080 89.000 250.340 87.160 C 248.197 84.894,247.027 84.628,242.924 85.472 C 241.206 85.825,239.440 86.093,239.000 86.067 C 226.185 85.309,225.452 85.165,224.400 83.200 C 223.980 82.415,222.499 82.206,220.700 82.676 M361.544 133.166 C 361.025 133.587,360.704 134.036,360.832 134.164 C 360.959 134.292,361.486 133.948,362.001 133.398 C 363.115 132.213,362.872 132.090,361.544 133.166 M365.782 146.982 C 364.469 148.294,365.300 150.800,367.047 150.800 C 367.731 150.800,369.600 149.043,369.600 148.400 C 369.600 147.834,367.766 146.000,367.200 146.000 C 366.960 146.000,366.322 146.442,365.782 146.982 M22.628 150.629 C 21.822 151.435,21.838 151.729,22.731 152.538 C 23.912 153.606,24.800 153.382,24.800 152.014 C 24.800 150.491,23.558 149.699,22.628 150.629 M25.019 157.500 C 24.712 162.711,24.717 163.829,25.099 175.000 L 25.400 183.800 26.739 184.194 L 28.078 184.587 27.787 186.594 C 27.379 189.395,27.462 190.110,28.259 190.692 C 30.174 192.093,32.312 190.389,31.834 187.842 C 31.483 185.971,30.167 184.400,28.950 184.400 L 27.957 184.400 28.173 175.300 C 28.470 162.793,28.470 162.707,28.180 158.200 C 27.904 153.915,27.619 153.200,26.187 153.200 C 25.307 153.200,25.263 153.361,25.019 157.500 M364.000 287.976 C 364.000 288.183,364.180 288.464,364.400 288.600 C 364.958 288.945,364.902 292.138,364.327 292.713 C 364.066 292.974,363.991 293.324,364.159 293.493 C 364.328 293.661,364.721 293.450,365.033 293.023 C 365.801 291.972,365.763 289.020,364.971 288.229 C 364.250 287.507,364.000 287.442,364.000 287.976 M37.770 323.967 C 38.548 324.826,39.200 325.053,39.200 324.464 C 39.200 324.280,38.708 323.904,38.108 323.631 C 37.018 323.134,37.017 323.135,37.770 323.967 M50.602 364.802 C 51.002 365.244,51.415 365.518,51.521 365.412 C 51.790 365.143,50.792 364.000,50.289 364.000 C 50.062 364.000,50.203 364.361,50.602 364.802 M181.600 370.767 C 181.600 371.460,184.294 372.800,185.685 372.800 C 187.072 372.800,188.400 371.844,188.400 370.846 C 188.400 370.576,187.982 370.841,187.471 371.436 C 186.382 372.701,184.254 372.586,182.993 371.192 C 182.232 370.352,181.600 370.159,181.600 370.767 M105.311 376.900 C 104.352 378.140,104.364 378.515,105.335 377.630 C 105.921 377.097,106.400 376.602,106.400 376.530 C 106.400 376.200,105.658 376.452,105.311 376.900 M140.000 376.938 C 140.000 378.535,142.603 379.322,143.738 378.069 C 144.901 376.784,144.547 376.400,142.200 376.400 C 140.624 376.400,140.000 376.553,140.000 376.938 M109.311 377.700 C 108.368 378.920,108.235 379.423,109.031 378.761 C 111.333 376.847,114.227 378.984,112.029 380.974 C 111.190 381.733,110.025 381.568,109.002 380.545 C 108.382 379.925,108.184 380.258,108.706 381.040 C 110.278 383.394,114.052 381.739,113.364 378.998 C 112.955 377.371,110.238 376.501,109.311 377.700 M110.587 378.421 C 110.398 378.727,110.439 378.823,110.693 378.666 C 110.922 378.525,111.339 378.686,111.620 379.024 C 112.421 379.989,111.137 381.155,110.120 380.388 C 109.454 379.885,109.447 379.896,110.029 380.537 C 110.731 381.309,111.803 381.090,112.185 380.096 C 112.511 379.244,111.034 377.697,110.587 378.421 M68.012 379.900 C 67.997 380.536,69.444 382.000,70.089 382.000 C 70.358 382.000,70.183 381.724,69.701 381.386 C 69.218 381.048,68.644 380.463,68.424 380.086 C 68.197 379.696,68.019 379.616,68.012 379.900 M89.214 380.374 C 88.577 381.565,88.720 381.797,89.600 381.000 C 90.457 380.224,90.642 379.600,90.014 379.600 C 89.802 379.600,89.442 379.948,89.214 380.374 M348.778 396.193 C 348.305 396.666,347.883 396.703,346.698 396.376 C 344.912 395.883,343.743 396.373,343.181 397.850 C 342.342 400.057,342.135 400.000,351.000 400.000 L 359.200 400.000 359.200 399.041 C 359.200 396.253,350.968 394.004,348.778 396.193 " stroke="none" fill="#fbfcfc" fill-rule="evenodd"></path><path id="path2" d="M269.800 23.200 C 269.664 23.420,269.934 23.600,270.400 23.600 C 270.866 23.600,271.136 23.420,271.000 23.200 C 270.864 22.980,270.594 22.800,270.400 22.800 C 270.206 22.800,269.936 22.980,269.800 23.200 M249.107 26.690 C 249.826 26.779,250.906 26.777,251.507 26.686 C 252.108 26.595,251.520 26.522,250.200 26.524 C 248.880 26.526,248.388 26.601,249.107 26.690 M146.378 34.950 C 147.137 35.747,147.816 36.400,147.888 36.400 C 148.294 36.400,146.551 34.298,145.843 33.934 C 145.277 33.642,145.453 33.976,146.378 34.950 M323.777 50.263 C 322.389 51.760,322.847 51.891,324.321 50.418 C 324.990 49.748,325.364 49.200,325.150 49.200 C 324.937 49.200,324.319 49.678,323.777 50.263 M299.376 50.222 C 298.612 50.834,298.613 50.838,299.400 50.476 C 299.840 50.274,300.470 50.008,300.800 49.886 C 301.318 49.693,301.315 49.659,300.776 49.632 C 300.434 49.614,299.804 49.880,299.376 50.222 M302.400 49.886 C 302.730 50.008,303.360 50.274,303.800 50.476 C 304.587 50.838,304.588 50.834,303.824 50.222 C 303.396 49.880,302.766 49.614,302.424 49.632 C 301.885 49.659,301.882 49.693,302.400 49.886 M305.400 51.200 C 306.531 51.686,308.500 51.686,308.200 51.200 C 308.064 50.980,307.198 50.813,306.276 50.828 C 304.973 50.850,304.778 50.933,305.400 51.200 M95.506 56.788 C 94.788 57.442,94.411 57.982,94.669 57.988 C 94.927 57.995,95.678 57.460,96.338 56.800 C 97.892 55.246,97.212 55.236,95.506 56.788 M154.509 59.600 C 154.509 60.590,154.587 60.995,154.682 60.500 C 154.778 60.005,154.778 59.195,154.682 58.700 C 154.587 58.205,154.509 58.610,154.509 59.600 M159.400 62.586 C 157.855 63.293,158.574 63.303,160.400 62.600 C 161.170 62.303,161.530 62.055,161.200 62.048 C 160.870 62.042,160.060 62.283,159.400 62.586 M172.495 62.266 C 172.218 62.378,171.788 62.859,171.541 63.335 C 171.125 64.136,171.177 64.126,172.246 63.200 C 172.881 62.650,173.475 62.155,173.567 62.100 C 173.859 61.925,173.020 62.055,172.495 62.266 M217.709 83.100 L 215.536 85.400 215.700 92.000 C 215.791 95.630,215.760 99.320,215.632 100.200 C 215.185 103.278,215.886 107.976,217.013 109.453 C 219.156 112.262,218.879 114.110,215.739 117.943 C 214.232 119.782,212.568 121.942,212.039 122.743 C 211.511 123.544,210.921 124.262,210.727 124.337 C 210.534 124.413,209.934 125.347,209.394 126.413 C 207.193 130.755,206.964 130.806,191.600 130.328 L 185.400 130.136 185.024 129.072 C 184.778 128.375,184.825 126.564,185.160 123.823 C 185.441 121.522,185.571 119.477,185.449 119.279 C 184.901 118.393,184.365 109.002,184.369 100.381 C 184.375 89.062,184.391 89.138,181.575 87.153 C 178.768 85.174,176.280 84.705,169.453 84.866 C 166.564 84.934,162.670 84.840,160.800 84.656 C 157.434 84.326,157.382 84.335,155.600 85.534 C 151.973 87.976,151.761 89.379,152.749 104.388 C 153.514 116.006,152.499 118.902,146.743 121.517 C 145.784 121.952,143.745 123.589,142.211 125.154 C 140.677 126.719,139.232 128.000,139.001 128.000 C 138.769 128.000,137.504 128.534,136.190 129.187 C 132.639 130.952,130.395 130.857,126.616 128.783 C 122.980 126.787,122.976 126.783,122.400 123.600 C 122.142 122.170,121.398 119.351,120.749 117.335 C 119.822 114.458,119.485 112.450,119.186 108.004 C 118.795 102.179,118.237 97.910,117.659 96.310 C 117.478 95.810,117.408 94.648,117.504 93.729 C 117.696 91.886,116.028 88.871,114.305 87.949 C 112.687 87.083,83.066 86.029,73.200 86.487 C 63.879 86.919,62.551 88.223,64.340 95.193 C 65.756 100.712,65.536 103.134,63.389 105.686 C 62.845 106.333,62.400 107.051,62.400 107.282 C 62.400 107.514,61.761 108.410,60.980 109.274 C 59.467 110.949,59.430 111.590,60.730 113.600 C 61.243 114.394,61.408 116.004,61.527 121.400 C 61.769 132.321,61.747 132.899,61.021 134.600 C 60.616 135.550,60.202 138.070,60.002 140.800 C 59.817 143.330,59.542 146.313,59.391 147.428 C 59.060 149.867,59.795 155.028,60.662 156.350 C 61.877 158.205,62.057 159.945,62.402 173.200 C 62.595 180.570,62.955 188.166,63.204 190.080 C 63.534 192.621,63.545 197.010,63.245 206.350 C 62.845 218.779,63.037 224.229,64.005 228.000 C 64.686 230.652,64.568 232.917,63.672 234.411 C 62.758 235.935,62.968 244.625,64.001 248.000 C 64.236 248.770,64.682 252.210,64.991 255.644 C 65.366 259.812,65.837 262.672,66.407 264.244 C 67.429 267.061,67.932 269.816,67.970 272.800 C 68.015 276.371,69.191 283.202,70.242 286.000 C 71.603 289.624,72.525 296.655,72.628 304.200 C 72.705 309.772,72.851 311.053,73.758 314.106 C 74.483 316.544,74.800 318.540,74.800 320.659 C 74.800 323.654,74.825 323.729,76.281 325.102 C 78.327 327.032,80.000 329.792,80.000 331.237 C 80.000 337.270,81.279 339.999,84.109 340.003 C 87.162 340.008,93.021 340.736,94.151 341.250 C 94.870 341.578,95.823 341.574,97.770 341.235 C 102.301 340.446,107.673 340.615,109.890 341.617 C 113.248 343.134,114.056 343.263,122.002 343.541 C 129.454 343.801,129.897 343.863,131.887 344.903 L 133.970 345.992 146.885 346.204 C 153.988 346.321,162.950 346.547,166.800 346.708 C 185.061 347.470,218.774 346.215,231.000 344.318 C 234.321 343.803,249.927 343.245,265.000 343.102 L 275.800 343.000 277.720 341.850 L 279.641 340.700 292.520 340.583 C 304.848 340.471,312.371 340.046,318.000 339.145 C 319.430 338.917,323.433 338.730,326.896 338.732 L 333.192 338.734 333.996 337.605 C 334.514 336.878,334.800 335.838,334.800 334.680 C 334.800 333.693,335.152 331.740,335.583 330.342 C 337.045 325.596,337.212 322.584,337.368 298.200 C 337.452 285.000,337.655 270.666,337.818 266.346 C 338.149 257.587,337.480 236.731,336.551 226.800 C 335.868 219.499,334.818 193.985,334.562 178.463 C 334.363 166.373,334.341 166.260,331.726 164.050 C 328.468 161.296,326.343 159.600,326.152 159.600 C 324.486 159.600,319.791 158.490,318.406 157.769 C 317.413 157.252,315.361 156.543,313.847 156.193 C 312.333 155.844,310.083 155.051,308.847 154.431 C 307.611 153.811,306.150 153.167,305.600 152.999 C 305.050 152.831,303.955 152.116,303.167 151.409 C 302.267 150.602,301.116 150.025,300.070 149.858 C 298.718 149.641,298.225 149.309,297.454 148.096 C 296.931 147.273,296.149 146.283,295.716 145.896 C 294.001 144.364,299.035 137.226,301.846 137.204 C 302.091 137.202,302.782 136.815,303.380 136.344 C 304.818 135.213,309.317 134.865,310.800 135.771 C 311.350 136.107,312.790 136.851,314.000 137.426 C 315.210 138.000,316.492 138.731,316.848 139.050 C 317.204 139.369,318.888 140.059,320.590 140.584 C 322.291 141.109,324.070 141.899,324.542 142.339 C 325.014 142.780,326.375 143.523,327.566 143.990 C 328.758 144.458,330.257 145.282,330.897 145.820 C 332.254 146.962,332.813 147.021,334.420 146.190 C 335.794 145.479,335.763 145.790,335.025 140.175 C 334.708 137.769,334.420 134.000,334.384 131.800 C 334.297 126.460,333.269 114.900,332.747 113.400 C 332.243 111.951,331.230 103.079,331.213 99.960 C 331.204 98.370,330.916 97.185,330.222 95.880 C 329.684 94.869,329.028 93.319,328.764 92.437 C 327.630 88.652,325.560 87.600,319.247 87.600 C 314.240 87.600,311.268 86.998,309.530 85.631 C 308.991 85.207,307.021 84.336,305.151 83.696 L 301.751 82.533 297.324 83.621 C 294.889 84.220,292.061 85.200,291.039 85.798 C 289.229 86.859,289.114 86.874,286.563 86.393 C 281.426 85.424,278.862 86.385,277.782 89.685 C 277.402 90.848,276.755 92.468,276.345 93.284 C 275.404 95.158,275.410 95.769,276.383 97.116 C 277.276 98.353,278.468 104.625,278.359 107.515 C 278.157 112.871,278.298 114.340,279.147 115.714 C 282.289 120.799,276.850 127.138,272.661 123.272 C 272.188 122.834,271.109 122.192,270.264 121.844 C 269.420 121.496,268.161 120.733,267.467 120.150 C 266.774 119.566,265.454 118.766,264.536 118.372 C 260.803 116.773,255.679 112.320,253.980 109.200 C 253.359 108.060,253.229 100.496,253.713 93.600 C 254.101 88.069,252.804 83.891,250.323 82.678 C 248.254 81.667,244.724 81.586,243.684 82.526 C 241.159 84.806,231.613 84.644,227.071 82.243 C 222.657 79.909,220.540 80.103,217.709 83.100 M224.400 83.200 C 225.452 85.165,226.185 85.309,239.000 86.067 C 239.440 86.093,241.206 85.825,242.924 85.472 C 247.027 84.628,248.197 84.894,250.340 87.160 L 252.080 89.000 251.836 96.400 C 251.445 108.274,252.200 113.600,254.275 113.600 C 254.577 113.600,254.937 113.915,255.073 114.300 C 255.454 115.373,256.457 116.400,257.123 116.400 C 257.453 116.400,258.371 117.102,259.164 117.961 C 260.308 119.200,260.999 119.581,262.517 119.808 C 264.068 120.041,264.539 120.309,265.017 121.232 C 265.427 122.026,266.117 122.517,267.302 122.859 C 268.236 123.129,269.647 123.920,270.437 124.617 C 273.321 127.160,280.095 126.893,281.380 124.185 C 282.973 120.828,282.389 114.000,280.351 112.155 C 279.383 111.280,279.402 110.716,280.418 110.081 C 282.119 109.019,282.077 105.185,280.345 103.341 C 279.182 102.104,278.616 96.251,279.240 91.927 L 279.684 88.855 282.287 88.576 C 283.718 88.423,285.814 88.392,286.945 88.507 C 290.269 88.846,293.205 88.207,294.453 86.870 C 296.227 84.972,305.063 84.649,306.025 86.447 C 306.567 87.460,307.616 87.956,310.240 88.441 C 311.473 88.669,313.194 89.227,314.064 89.680 C 315.439 90.397,316.157 90.480,319.558 90.316 C 322.939 90.154,323.594 90.228,324.380 90.864 C 324.880 91.269,325.607 91.600,325.996 91.600 C 326.566 91.600,326.785 92.149,327.125 94.439 C 327.356 96.000,327.828 97.589,328.173 97.970 C 328.521 98.354,328.800 99.370,328.800 100.251 C 328.800 101.125,329.022 102.062,329.293 102.333 C 329.732 102.772,330.530 114.866,330.961 127.600 C 331.073 130.920,331.894 135.518,332.516 136.311 C 333.217 137.205,333.113 143.428,332.400 143.250 C 332.070 143.168,331.126 142.942,330.301 142.749 C 329.477 142.555,328.012 141.794,327.047 141.057 C 326.060 140.303,324.580 139.603,323.665 139.457 C 322.770 139.314,321.894 138.952,321.719 138.652 C 321.284 137.910,319.309 136.963,317.521 136.639 C 316.707 136.492,315.308 135.758,314.410 135.009 C 311.120 132.259,301.690 132.571,299.776 135.493 C 299.427 136.026,298.609 136.648,297.958 136.875 C 297.308 137.101,296.507 137.807,296.178 138.443 C 295.849 139.080,295.314 139.600,294.990 139.600 C 293.585 139.600,292.800 141.106,292.800 143.800 C 292.800 146.500,293.586 148.000,295.000 148.000 C 295.536 148.000,295.879 150.394,295.500 151.489 C 295.257 152.193,289.673 150.949,288.568 149.945 C 285.899 147.518,255.753 148.275,252.974 150.839 C 252.431 151.339,251.126 151.733,249.174 151.985 C 247.538 152.196,245.294 152.544,244.186 152.758 C 240.946 153.383,238.930 152.949,238.653 151.565 C 238.528 150.938,238.063 150.104,237.620 149.713 C 237.178 149.321,236.121 148.340,235.273 147.534 C 233.721 146.060,233.291 145.927,228.600 145.469 C 225.995 145.216,213.005 145.942,211.753 146.412 C 211.119 146.650,209.970 147.268,209.200 147.784 C 207.928 148.639,207.271 148.739,202.000 148.891 C 196.041 149.062,194.009 149.558,193.465 150.974 C 193.338 151.306,192.551 151.898,191.717 152.289 C 190.471 152.873,190.093 153.341,189.600 154.906 C 188.915 157.080,187.871 157.594,184.126 157.598 C 181.267 157.601,176.537 158.650,174.944 159.635 C 173.897 160.282,173.254 160.397,171.858 160.188 C 170.692 160.013,169.998 160.080,169.808 160.386 C 168.856 161.928,165.237 161.596,163.698 159.826 C 163.227 159.285,162.067 158.637,161.121 158.386 C 160.174 158.136,158.950 157.518,158.400 157.014 C 157.097 155.820,156.150 155.369,154.214 155.018 C 153.341 154.861,152.048 154.222,151.339 153.600 C 149.677 152.141,147.211 151.862,137.956 152.089 C 129.317 152.301,128.596 152.604,125.806 157.200 C 124.315 159.655,123.767 160.003,121.424 159.979 C 117.429 159.937,113.531 158.994,112.712 157.870 C 111.637 156.393,109.684 155.312,107.513 154.992 C 106.475 154.838,105.418 154.463,105.165 154.158 C 104.528 153.390,101.203 152.445,97.460 151.966 C 95.472 151.712,93.927 151.274,93.248 150.772 C 91.767 149.677,86.232 149.114,78.517 149.273 L 72.329 149.400 71.380 150.504 C 70.859 151.111,69.966 151.785,69.397 152.001 C 68.789 152.232,68.119 152.974,67.775 153.797 C 67.453 154.569,66.946 155.200,66.649 155.200 C 66.351 155.200,65.634 155.573,65.055 156.028 L 64.002 156.857 63.591 155.776 C 63.365 155.181,62.994 153.864,62.768 152.847 C 62.541 151.831,62.020 150.430,61.611 149.732 C 60.891 148.508,60.890 148.442,61.591 147.808 C 63.169 146.380,64.539 117.816,63.285 112.498 C 63.065 111.561,63.031 110.704,63.211 110.593 C 63.391 110.482,63.659 109.841,63.807 109.170 C 63.968 108.437,64.455 107.775,65.026 107.515 C 66.551 106.821,66.980 104.809,66.800 99.200 C 66.549 91.347,66.575 89.290,66.933 88.933 C 68.200 87.665,110.118 88.605,111.814 89.939 C 112.415 90.413,113.147 90.800,113.440 90.800 C 114.355 90.800,114.688 92.063,114.915 96.400 C 115.134 100.569,115.646 102.848,116.621 104.000 C 116.949 104.387,117.284 107.125,117.565 111.713 C 117.995 118.753,118.441 120.874,119.713 121.928 C 120.084 122.236,120.455 123.402,120.603 124.728 C 120.942 127.773,121.408 128.869,122.708 129.685 C 123.309 130.062,124.251 130.739,124.802 131.190 C 127.039 133.020,136.697 132.765,138.925 130.816 C 139.626 130.204,140.830 129.363,141.600 128.948 C 142.370 128.533,144.215 126.980,145.699 125.497 C 147.183 124.014,148.742 122.800,149.162 122.800 C 150.569 122.800,153.630 119.360,154.223 117.113 C 154.518 115.996,154.948 114.892,155.179 114.661 C 155.742 114.098,155.716 109.539,155.143 108.126 C 154.582 106.746,153.965 94.733,154.279 91.313 C 154.499 88.919,154.558 88.810,155.851 88.383 C 156.589 88.139,157.330 87.697,157.497 87.399 C 157.750 86.947,158.193 86.955,160.200 87.450 C 161.863 87.860,165.225 88.069,171.154 88.131 C 179.619 88.220,179.716 88.231,180.354 89.155 C 180.709 89.668,181.405 90.527,181.900 91.062 C 183.049 92.305,183.093 94.700,182.001 96.490 C 180.919 98.266,180.936 102.144,182.043 105.809 C 182.789 108.276,182.910 109.912,183.084 119.906 C 183.331 133.987,181.721 132.407,195.789 132.377 C 208.259 132.351,209.017 132.215,210.135 129.800 C 210.543 128.920,211.395 127.655,212.030 126.989 C 212.665 126.323,213.301 125.197,213.443 124.487 C 213.613 123.634,214.058 123.026,214.750 122.698 C 215.328 122.424,216.041 121.654,216.335 120.987 C 216.629 120.321,217.395 119.473,218.038 119.104 C 220.624 117.620,220.476 106.156,217.832 103.236 C 216.939 102.249,217.045 101.300,218.200 99.927 C 219.418 98.480,219.535 96.042,218.508 93.508 C 217.352 90.655,217.544 86.717,218.900 85.459 C 219.505 84.897,220.000 84.083,220.000 83.648 C 220.000 82.264,223.697 81.887,224.400 83.200 M366.109 97.200 C 366.109 98.190,366.187 98.595,366.282 98.100 C 366.378 97.605,366.378 96.795,366.282 96.300 C 366.187 95.805,366.109 96.210,366.109 97.200 M362.583 132.027 C 362.438 132.262,362.058 132.354,361.739 132.232 C 361.420 132.109,361.259 132.172,361.382 132.370 C 361.505 132.569,361.379 132.812,361.102 132.911 C 360.826 133.010,360.697 133.197,360.816 133.328 C 360.934 133.458,361.564 133.129,362.216 132.597 C 362.867 132.064,363.276 131.622,363.124 131.614 C 362.972 131.606,362.728 131.792,362.583 132.027 M29.701 143.400 C 29.705 144.280,29.787 144.593,29.883 144.095 C 29.979 143.598,29.975 142.878,29.875 142.495 C 29.775 142.113,29.696 142.520,29.701 143.400 M232.265 149.119 C 235.564 151.058,235.595 154.173,232.333 155.912 C 231.623 156.290,229.757 157.797,228.185 159.259 C 226.614 160.722,224.534 162.318,223.564 162.806 C 222.594 163.294,221.516 163.942,221.168 164.247 C 220.821 164.551,218.661 165.065,216.368 165.389 C 209.858 166.307,208.021 166.730,206.814 167.590 C 205.704 168.380,203.475 168.956,200.013 169.346 C 198.346 169.534,198.127 169.443,196.748 167.994 C 195.935 167.139,194.586 166.154,193.750 165.805 C 191.276 164.771,190.800 164.129,190.800 161.822 C 190.800 156.969,192.055 154.441,195.200 152.958 C 195.970 152.595,196.904 152.033,197.275 151.710 C 197.724 151.318,199.526 151.002,202.675 150.764 C 209.282 150.264,212.195 149.717,214.515 148.542 C 218.856 146.342,228.049 146.641,232.265 149.119 M283.870 150.638 C 284.888 150.761,286.120 151.301,287.025 152.020 C 288.199 152.953,288.908 153.200,290.411 153.200 C 294.041 153.200,294.841 155.319,293.525 161.447 C 292.405 166.659,293.476 166.371,274.305 166.619 C 256.703 166.847,252.602 166.387,249.584 163.848 C 248.899 163.272,248.211 162.800,248.056 162.800 C 247.410 162.800,246.400 160.359,246.400 158.799 C 246.400 154.935,248.030 153.696,254.000 153.018 C 255.210 152.880,257.891 152.312,259.958 151.756 C 265.364 150.299,276.687 149.770,283.870 150.638 M88.678 152.815 C 95.165 153.342,97.790 153.858,99.800 155.004 C 100.680 155.505,102.620 156.121,104.111 156.372 C 111.275 157.576,111.673 163.061,104.800 165.869 C 98.331 168.513,98.472 168.489,90.600 168.260 C 78.587 167.909,71.395 165.161,68.160 159.683 L 67.147 157.966 68.373 156.569 C 69.048 155.801,69.600 155.002,69.600 154.794 C 69.600 152.674,77.208 151.885,88.678 152.815 M148.400 155.203 C 149.830 155.809,151.720 156.529,152.600 156.803 C 153.480 157.077,154.483 157.547,154.829 157.848 C 155.175 158.149,156.705 159.037,158.229 159.822 C 167.535 164.616,173.096 168.872,174.222 172.064 C 174.938 174.091,173.443 175.931,169.576 177.785 C 168.128 178.479,166.278 179.457,165.467 179.959 L 163.991 180.871 162.290 179.874 C 161.355 179.326,159.512 178.572,158.195 178.198 C 156.878 177.825,155.248 177.203,154.574 176.817 C 153.900 176.431,152.155 175.717,150.696 175.232 C 149.237 174.746,147.573 173.979,146.999 173.527 C 146.424 173.075,145.028 172.354,143.897 171.924 C 142.766 171.494,141.240 170.615,140.506 169.971 C 139.772 169.327,138.949 168.800,138.677 168.800 C 138.405 168.800,137.556 168.294,136.791 167.676 C 136.026 167.058,134.680 166.121,133.800 165.595 C 127.806 162.012,127.083 159.472,131.083 156.053 C 132.923 154.480,132.982 154.461,135.574 154.647 C 137.205 154.764,138.958 154.619,140.200 154.265 C 142.746 153.538,145.113 153.809,148.400 155.203 M361.286 193.624 C 361.663 193.844,362.248 194.418,362.586 194.901 C 362.924 195.383,363.200 195.558,363.200 195.289 C 363.200 194.644,361.736 193.197,361.100 193.212 C 360.816 193.219,360.896 193.397,361.286 193.624 M36.093 205.200 C 36.093 205.970,36.175 206.285,36.276 205.900 C 36.376 205.515,36.376 204.885,36.276 204.500 C 36.175 204.115,36.093 204.430,36.093 205.200 M37.362 222.300 C 37.781 222.795,38.411 223.186,38.762 223.168 C 39.304 223.142,39.309 223.103,38.800 222.916 C 38.470 222.795,37.840 222.404,37.400 222.048 C 36.607 221.406,36.606 221.408,37.362 222.300 M364.000 290.600 C 364.000 291.996,364.151 292.754,364.400 292.600 C 364.620 292.464,364.800 291.564,364.800 290.600 C 364.800 289.636,364.620 288.736,364.400 288.600 C 364.151 288.446,364.000 289.204,364.000 290.600 M40.090 308.005 C 39.820 308.436,39.605 308.927,39.612 309.095 C 39.619 309.263,39.794 309.109,40.002 308.754 C 40.227 308.369,40.789 308.153,41.390 308.219 C 41.945 308.280,42.400 308.146,42.400 307.922 C 42.400 307.698,42.152 307.610,41.849 307.726 C 41.546 307.842,41.136 307.776,40.939 307.579 C 40.727 307.367,40.379 307.542,40.090 308.005 M46.489 358.466 C 46.574 358.722,47.084 359.209,47.622 359.548 L 48.600 360.163 47.630 359.082 C 46.583 357.914,46.244 357.731,46.489 358.466 M352.514 368.280 C 352.027 368.786,351.774 369.200,351.952 369.200 C 352.342 369.200,353.798 367.645,353.564 367.477 C 353.474 367.413,353.001 367.774,352.514 368.280 M182.833 371.005 C 184.340 372.511,187.629 372.285,187.588 370.677 C 187.581 370.415,187.395 370.511,187.173 370.890 C 186.727 371.657,184.671 371.631,183.889 370.849 C 183.642 370.602,183.167 370.400,182.834 370.400 C 182.294 370.400,182.294 370.465,182.833 371.005 M233.720 373.498 C 235.655 373.572,238.715 373.571,240.520 373.497 C 242.324 373.423,240.740 373.363,237.000 373.364 C 233.260 373.364,231.784 373.425,233.720 373.498 M286.200 373.403 C 287.114 373.721,289.529 373.809,289.348 373.516 C 289.241 373.342,288.398 373.214,287.476 373.232 C 286.554 373.249,285.980 373.326,286.200 373.403 M104.430 376.964 C 104.172 377.275,104.114 377.623,104.301 377.739 C 104.487 377.854,104.857 377.600,105.123 377.174 C 105.679 376.284,105.131 376.119,104.430 376.964 M110.186 378.003 C 108.111 378.788,108.047 380.391,110.057 381.224 C 111.117 381.663,111.352 381.626,112.070 380.907 C 113.483 379.495,112.056 377.295,110.186 378.003 M112.185 380.096 C 111.803 381.090,110.731 381.309,110.029 380.537 C 109.447 379.896,109.454 379.885,110.120 380.388 C 111.137 381.155,112.421 379.989,111.620 379.024 C 111.339 378.686,110.922 378.525,110.693 378.666 C 110.439 378.823,110.398 378.727,110.587 378.421 C 111.034 377.697,112.511 379.244,112.185 380.096 " stroke="none" fill="#dcfbfc" fill-rule="evenodd"></path></g></svg>