<svg id="svg" version="1.1" xmlns="http://www.w3.org/2000/svg" xmlns:xlink="http://www.w3.org/1999/xlink" width="400" height="400" viewBox="0, 0, 400,400"><g id="svgg"><path id="path0" d="M183.800 55.261 C 179.847 56.516,177.466 58.522,176.519 61.396 C 176.375 61.833,175.769 63.119,175.173 64.252 C 174.551 65.433,173.968 67.351,173.806 68.747 C 173.651 70.085,173.171 71.860,172.740 72.690 C 172.201 73.730,171.895 75.321,171.758 77.800 C 171.422 83.869,171.428 83.853,169.081 85.199 C 166.817 86.497,164.189 86.779,162.126 85.945 C 161.507 85.694,158.007 85.374,154.348 85.233 C 145.825 84.906,146.546 85.691,146.322 76.494 C 146.180 70.651,145.994 68.692,145.480 67.600 C 145.117 66.830,144.553 65.434,144.227 64.499 C 143.526 62.486,141.655 59.955,139.305 57.841 C 135.338 54.272,124.043 53.915,122.961 57.324 C 122.834 57.723,122.296 58.247,121.765 58.489 C 121.234 58.730,120.800 59.138,120.800 59.394 C 120.800 59.651,120.364 60.270,119.832 60.770 C 119.300 61.270,118.641 62.246,118.367 62.940 C 118.094 63.633,117.546 64.565,117.148 65.012 C 116.504 65.736,116.036 67.403,114.736 73.600 C 114.529 74.590,114.216 77.167,114.041 79.327 C 113.670 83.916,113.252 84.557,110.194 85.224 C 105.786 86.185,101.839 86.509,100.000 86.059 C 99.010 85.817,93.880 85.506,88.600 85.366 L 79.000 85.113 74.100 86.329 C 71.405 86.998,68.677 87.918,68.038 88.373 C 67.399 88.828,66.576 89.200,66.209 89.200 C 65.841 89.200,64.481 90.211,63.185 91.447 C 60.081 94.407,59.535 96.169,59.773 102.459 C 60.243 114.927,60.874 123.049,61.478 124.400 C 61.958 125.474,62.227 128.731,62.634 138.400 C 62.925 145.330,63.340 151.720,63.555 152.600 C 64.107 154.858,64.716 164.885,65.015 176.600 C 65.155 182.100,65.418 187.860,65.599 189.400 C 66.559 197.542,66.800 200.710,67.212 210.600 C 67.515 217.850,67.838 221.794,68.197 222.600 C 68.571 223.440,68.926 228.521,69.381 239.528 C 69.739 248.179,70.178 256.099,70.358 257.128 C 71.171 261.795,71.242 305.163,70.453 315.400 C 70.102 319.954,70.078 322.492,70.370 324.200 C 70.596 325.520,71.057 328.389,71.396 330.574 C 71.734 332.760,72.257 334.830,72.557 335.174 C 72.858 335.519,73.389 336.365,73.739 337.055 C 74.497 338.553,77.430 341.599,78.115 341.602 C 78.382 341.602,79.680 342.142,81.000 342.800 C 84.379 344.485,96.108 344.425,105.000 342.677 C 106.760 342.331,111.583 341.859,115.718 341.628 C 120.011 341.389,123.614 341.002,124.118 340.727 C 124.756 340.378,128.980 340.235,139.400 340.209 C 147.320 340.190,161.270 340.019,170.400 339.831 C 186.859 339.491,198.835 339.811,208.400 340.848 C 213.720 341.424,248.575 341.357,252.400 340.764 C 254.176 340.488,262.010 340.241,271.600 340.157 C 310.229 339.823,321.041 339.484,322.068 338.576 C 322.581 338.123,323.540 337.522,324.200 337.240 C 324.860 336.958,325.670 336.481,326.000 336.181 C 329.223 333.246,330.355 331.949,330.758 330.728 C 331.018 329.941,331.583 328.977,332.015 328.586 C 332.447 328.196,332.802 327.589,332.804 327.238 C 332.806 326.887,333.274 325.610,333.844 324.400 C 335.563 320.752,335.568 300.466,333.852 289.200 C 333.298 285.557,333.117 282.480,332.570 267.400 C 332.434 263.660,332.067 259.610,331.754 258.400 C 331.335 256.780,331.079 251.248,330.783 237.400 C 330.562 227.060,330.017 211.580,329.571 203.000 C 328.668 185.608,328.579 179.531,328.720 145.000 C 328.829 118.345,328.375 101.672,327.483 99.537 C 327.176 98.802,326.614 96.805,326.235 95.100 C 325.856 93.395,325.393 92.000,325.206 92.000 C 325.019 92.000,324.573 91.232,324.214 90.292 C 323.271 87.824,317.729 82.400,316.149 82.400 C 315.839 82.400,314.644 81.905,313.493 81.300 L 311.400 80.200 296.400 80.295 C 278.854 80.406,272.197 80.791,269.502 81.848 L 267.604 82.592 265.960 80.948 L 264.315 79.304 263.989 72.352 C 263.594 63.930,262.476 60.670,259.010 57.830 C 256.862 56.069,250.905 54.476,249.074 55.172 C 248.565 55.366,247.123 55.652,245.870 55.809 C 244.261 56.010,243.173 56.427,242.161 57.231 C 241.374 57.856,240.424 58.466,240.050 58.584 C 239.163 58.866,236.611 61.930,235.737 63.763 C 235.360 64.553,234.925 65.200,234.769 65.200 C 234.350 65.200,234.066 66.617,233.599 71.033 C 233.369 73.215,232.932 75.720,232.628 76.600 C 232.325 77.480,231.969 79.356,231.837 80.770 C 231.470 84.707,231.310 84.799,224.838 84.803 C 221.847 84.804,217.690 85.079,215.600 85.413 C 205.966 86.954,205.930 86.938,205.700 81.083 C 205.621 79.057,205.311 76.770,205.012 76.000 C 204.713 75.230,204.276 73.102,204.040 71.270 C 203.760 69.095,203.341 67.597,202.833 66.951 C 202.405 66.407,201.934 65.386,201.787 64.681 C 201.476 63.199,201.154 62.792,197.245 58.947 C 194.907 56.647,194.032 56.043,192.730 55.835 C 191.842 55.693,190.604 55.312,189.978 54.989 C 188.519 54.234,186.799 54.310,183.800 55.261 M295.448 108.653 C 298.736 109.048,300.256 110.709,300.565 114.245 C 300.698 115.760,301.089 118.260,301.435 119.800 C 302.539 124.714,303.342 145.518,303.257 167.000 C 303.184 185.302,303.302 233.091,303.424 235.200 C 303.495 236.410,303.814 241.000,304.134 245.400 C 304.454 249.800,304.839 258.980,304.990 265.800 C 305.140 272.620,305.433 280.270,305.640 282.800 C 305.847 285.330,306.111 289.560,306.227 292.200 C 306.343 294.840,306.523 297.250,306.628 297.556 C 306.888 298.318,306.053 302.396,305.037 305.316 C 303.919 308.535,302.833 309.305,298.877 309.690 C 297.185 309.854,294.720 310.179,293.400 310.411 C 291.142 310.808,287.444 311.066,271.000 311.974 C 267.260 312.180,262.940 312.530,261.400 312.752 C 256.312 313.484,235.043 314.005,202.400 314.195 C 184.690 314.299,168.940 314.478,167.400 314.593 C 163.536 314.881,163.251 314.878,153.964 314.455 C 149.434 314.248,136.601 313.946,125.446 313.783 C 107.414 313.520,105.066 313.413,104.282 312.819 C 103.797 312.452,102.667 311.940,101.771 311.681 C 100.484 311.309,99.869 310.790,98.848 309.214 L 97.555 307.218 97.173 286.309 C 96.926 272.713,96.636 265.014,96.346 264.295 C 96.100 263.688,95.989 262.257,96.099 261.115 C 96.208 259.973,96.143 258.497,95.953 257.835 C 95.763 257.173,95.496 250.774,95.359 243.616 C 95.014 225.521,94.172 205.311,93.684 203.400 C 93.440 202.444,93.165 190.694,93.001 174.200 C 92.850 159.020,92.558 144.350,92.353 141.600 C 91.499 130.168,91.437 120.512,92.202 118.070 C 93.940 112.520,93.229 112.831,104.297 112.779 C 113.954 112.733,114.923 112.912,115.754 114.891 C 116.057 115.611,116.619 116.920,117.004 117.800 C 117.388 118.680,117.934 121.262,118.218 123.539 C 118.640 126.930,118.883 127.783,119.566 128.261 C 120.025 128.583,120.400 129.043,120.400 129.286 C 120.400 129.878,125.556 134.755,127.470 135.974 C 129.819 137.470,133.743 137.612,136.056 136.284 C 137.015 135.734,138.250 135.148,138.800 134.984 C 139.350 134.819,140.340 134.287,141.000 133.802 C 141.660 133.316,142.518 132.806,142.906 132.669 C 143.294 132.533,143.786 131.963,143.998 131.404 C 144.211 130.846,144.755 129.887,145.209 129.274 C 146.073 128.105,146.779 123.381,146.793 118.671 C 146.811 112.657,149.347 111.132,159.600 110.968 C 169.179 110.814,169.892 110.917,171.876 112.736 L 173.472 114.200 173.747 118.134 C 173.939 120.896,174.316 122.793,175.010 124.503 C 175.555 125.842,176.000 127.142,176.000 127.391 C 176.000 128.105,180.586 132.678,181.637 133.012 C 182.158 133.177,183.098 133.692,183.726 134.156 C 185.610 135.549,195.891 135.431,197.325 134.000 C 197.876 133.450,199.052 132.460,199.938 131.800 C 200.824 131.140,201.764 130.101,202.027 129.491 C 202.290 128.880,202.754 128.242,203.058 128.072 C 203.454 127.850,203.735 126.125,204.048 121.981 C 204.729 112.958,204.989 112.695,213.561 112.346 C 216.993 112.206,221.222 111.806,222.960 111.456 C 230.317 109.976,235.566 111.907,236.150 116.308 C 236.290 117.364,236.684 118.627,237.025 119.114 C 237.365 119.600,237.871 121.394,238.148 123.099 C 238.637 126.108,240.975 130.800,241.985 130.800 C 242.184 130.800,242.464 131.170,242.607 131.623 C 242.751 132.076,243.258 132.614,243.734 132.819 C 244.210 133.025,245.058 133.562,245.617 134.013 C 246.488 134.715,250.987 136.121,252.200 136.070 C 254.566 135.970,259.290 134.686,260.128 133.915 C 263.518 130.794,264.400 129.862,264.400 129.403 C 264.400 129.119,264.756 128.103,265.191 127.144 C 265.863 125.663,265.984 124.512,265.991 119.506 C 266.003 111.709,267.012 110.442,273.236 110.410 C 274.246 110.404,275.956 110.132,277.036 109.804 C 278.116 109.477,280.440 109.194,282.200 109.176 C 283.960 109.158,285.760 108.989,286.200 108.800 C 287.150 108.392,292.557 108.306,295.448 108.653 M143.332 155.835 C 139.083 156.991,135.748 162.045,136.098 166.799 C 136.638 174.148,146.022 179.939,151.508 176.309 C 152.334 175.762,153.413 175.186,153.905 175.030 C 154.397 174.874,154.800 174.584,154.800 174.387 C 154.800 174.189,155.321 173.494,155.959 172.842 C 157.606 171.157,158.321 167.080,157.639 163.261 C 156.552 157.178,150.308 153.937,143.332 155.835 M108.300 156.264 C 107.695 156.368,107.200 156.618,107.200 156.818 C 107.200 157.019,106.485 157.548,105.611 157.994 C 101.359 160.163,98.999 167.948,101.520 171.488 C 102.001 172.164,102.531 173.074,102.697 173.511 C 103.813 176.440,107.663 177.859,113.507 177.494 L 116.910 177.282 119.282 174.910 C 122.669 171.523,123.629 162.687,120.827 160.697 C 120.442 160.424,119.919 159.807,119.664 159.327 C 119.409 158.847,118.796 158.331,118.300 158.181 C 117.805 158.031,116.997 157.539,116.504 157.088 C 115.591 156.253,111.027 155.794,108.300 156.264 M213.400 156.271 C 212.740 156.379,211.930 156.700,211.600 156.985 C 211.270 157.270,210.370 157.818,209.600 158.203 C 208.246 158.880,206.315 160.845,205.314 162.565 C 205.014 163.081,204.823 165.121,204.814 167.905 L 204.800 172.409 207.100 174.791 C 209.163 176.927,209.716 177.264,212.472 178.058 L 215.544 178.944 218.472 177.972 C 223.779 176.210,226.109 172.993,226.109 167.429 C 226.109 163.381,226.290 163.854,223.273 160.003 C 220.949 157.037,217.256 155.641,213.400 156.271 M279.020 157.585 C 277.710 158.456,276.384 159.670,276.071 160.284 C 275.758 160.898,275.120 161.820,274.651 162.332 C 273.285 163.828,273.386 170.888,274.800 172.745 C 278.448 177.534,281.920 178.793,288.075 177.557 C 290.260 177.118,290.744 176.773,294.103 173.268 C 295.584 171.723,295.680 163.960,294.243 162.000 C 293.679 161.230,293.017 160.223,292.773 159.762 C 292.528 159.302,291.579 158.529,290.664 158.045 C 289.749 157.562,288.550 156.907,288.000 156.589 C 285.850 155.348,281.691 155.809,279.020 157.585 M247.314 157.964 C 241.733 159.570,238.770 165.084,239.997 171.583 C 240.513 174.320,242.628 177.600,243.875 177.600 C 244.110 177.600,244.571 178.005,244.900 178.500 C 245.461 179.346,245.772 179.400,250.048 179.400 L 254.600 179.400 256.865 177.678 C 258.221 176.648,259.393 175.363,259.785 174.478 C 260.145 173.665,260.698 172.550,261.014 172.000 C 261.330 171.450,261.588 170.010,261.588 168.800 C 261.588 167.590,261.330 166.150,261.014 165.600 C 260.698 165.050,260.151 163.949,259.798 163.152 C 257.968 159.030,252.094 156.588,247.314 157.964 M178.606 159.190 C 178.474 159.404,177.518 159.832,176.483 160.140 C 174.684 160.677,171.600 163.020,171.600 163.851 C 171.600 164.067,171.150 164.855,170.600 165.600 C 167.800 169.395,170.262 177.621,174.844 179.782 C 175.590 180.134,176.650 180.684,177.200 181.005 C 179.054 182.086,183.122 181.774,185.160 180.393 C 186.128 179.737,187.151 179.200,187.433 179.200 C 187.715 179.200,188.055 178.856,188.189 178.436 C 188.322 178.015,188.852 177.396,189.366 177.059 C 191.254 175.822,191.790 167.389,190.143 164.845 C 189.131 163.280,186.026 160.400,185.352 160.400 C 185.027 160.400,184.016 160.040,183.106 159.600 C 181.351 158.753,179.009 158.539,178.606 159.190 " stroke="none" fill="#fbfbfc" fill-rule="evenodd"></path><path id="path1" d="M0.000 200.000 L 0.000 400.000 200.000 400.000 L 400.000 400.000 400.000 200.000 L 400.000 0.000 200.000 0.000 L 0.000 0.000 0.000 200.000 M190.698 52.757 C 191.905 52.929,193.178 53.404,193.698 53.875 C 194.194 54.326,195.100 54.813,195.712 54.958 C 196.323 55.103,197.211 55.666,197.684 56.211 C 198.157 56.755,198.780 57.200,199.067 57.200 C 199.355 57.200,200.035 57.905,200.579 58.766 C 201.123 59.628,201.742 60.440,201.955 60.572 C 202.167 60.704,202.561 61.476,202.829 62.289 C 203.098 63.102,203.655 64.044,204.068 64.383 C 204.533 64.766,204.962 65.894,205.197 67.355 C 205.406 68.651,205.875 70.041,206.240 70.444 C 206.988 71.271,207.544 75.514,207.578 80.652 L 207.600 83.904 212.100 83.728 C 214.575 83.632,217.451 83.366,218.490 83.139 C 219.530 82.911,222.590 82.517,225.290 82.262 L 230.200 81.800 230.451 75.865 C 230.662 70.852,230.823 69.765,231.485 68.865 C 231.916 68.279,232.389 66.900,232.537 65.800 C 232.684 64.700,233.167 63.350,233.611 62.800 C 234.054 62.250,234.608 61.312,234.842 60.716 C 235.076 60.120,235.585 59.532,235.973 59.409 C 236.361 59.285,236.882 58.738,237.131 58.192 C 237.379 57.647,237.858 57.200,238.194 57.200 C 238.530 57.200,239.194 56.752,239.670 56.205 C 240.146 55.659,241.136 55.098,241.871 54.960 C 242.606 54.822,243.695 54.325,244.292 53.855 C 245.919 52.573,253.981 52.340,255.587 53.527 C 256.181 53.966,257.306 54.502,258.086 54.718 C 259.490 55.105,262.800 57.918,262.800 58.723 C 262.800 58.951,263.281 59.710,263.868 60.408 C 264.756 61.463,264.984 62.227,265.219 64.939 C 265.374 66.732,265.794 68.869,266.151 69.687 C 266.508 70.505,266.813 72.215,266.830 73.487 C 266.846 74.759,266.981 76.610,267.130 77.600 L 267.400 79.400 272.598 79.256 C 276.523 79.147,278.274 78.923,279.748 78.341 C 283.034 77.046,309.176 77.012,311.247 78.300 C 312.043 78.795,313.174 79.200,313.760 79.200 C 315.038 79.200,317.600 80.213,317.600 80.719 C 317.600 80.917,318.320 81.361,319.200 81.707 C 320.080 82.053,320.800 82.601,320.800 82.924 C 320.800 83.248,321.250 83.626,321.800 83.764 C 322.350 83.902,322.800 84.190,322.800 84.405 C 322.800 84.619,323.340 85.275,324.000 85.863 C 324.660 86.451,325.200 87.102,325.200 87.308 C 325.200 87.515,325.628 88.193,326.150 88.814 C 326.698 89.465,327.221 90.760,327.384 91.872 C 327.541 92.932,328.036 94.196,328.486 94.681 C 329.181 95.430,329.356 96.378,329.660 101.053 C 329.857 104.074,330.283 107.327,330.608 108.283 C 331.342 110.448,331.257 105.973,331.425 151.000 C 331.587 194.279,332.173 231.819,332.761 236.600 C 333.554 243.048,333.938 249.158,333.982 256.007 C 334.036 264.632,334.599 273.419,335.198 274.995 C 337.121 280.052,336.950 326.597,335.006 327.343 C 334.683 327.466,334.212 328.391,333.959 329.397 C 333.701 330.421,333.169 331.403,332.749 331.627 C 332.337 331.848,332.000 332.291,332.000 332.613 C 332.000 333.382,329.351 336.298,328.369 336.610 C 327.946 336.744,327.600 337.108,327.600 337.419 C 327.600 337.730,327.146 338.099,326.591 338.238 C 326.036 338.377,325.350 338.822,325.066 339.227 C 324.426 340.141,322.751 340.800,321.068 340.800 C 320.364 340.800,319.106 341.166,318.272 341.613 C 316.946 342.323,316.318 342.393,313.278 342.165 C 311.365 342.022,305.120 342.112,299.400 342.364 C 284.608 343.018,201.761 343.047,185.758 342.405 C 178.915 342.130,172.525 342.017,171.558 342.155 C 170.591 342.292,157.560 342.549,142.600 342.727 C 117.795 343.020,115.283 343.110,114.066 343.752 C 109.742 346.033,78.000 345.941,78.000 343.648 C 78.000 343.465,77.415 343.150,76.700 342.948 C 75.985 342.745,75.227 342.190,75.016 341.714 C 74.804 341.239,74.310 340.765,73.918 340.663 C 73.525 340.560,73.091 340.144,72.953 339.738 C 72.814 339.332,72.277 338.636,71.757 338.190 C 71.134 337.656,70.673 336.641,70.401 335.204 C 70.174 334.007,69.587 332.212,69.096 331.214 L 68.203 329.400 68.239 294.400 C 68.281 252.749,68.055 242.706,66.904 235.000 C 66.315 231.060,65.999 226.446,65.836 219.434 C 65.644 211.131,65.500 209.352,64.972 208.769 C 64.224 207.942,63.636 198.072,63.614 185.955 C 63.606 181.860,63.413 177.540,63.184 176.355 C 62.282 171.674,61.963 167.746,61.599 156.800 C 61.355 149.473,60.992 144.257,60.584 142.200 C 60.218 140.361,59.729 134.238,59.433 127.800 C 59.149 121.640,58.722 116.150,58.484 115.600 C 57.703 113.793,57.200 108.473,57.207 102.084 L 57.215 95.800 58.407 94.040 C 59.063 93.072,59.600 92.033,59.600 91.731 C 59.600 91.430,60.030 90.987,60.556 90.747 C 61.082 90.508,61.697 89.905,61.924 89.407 C 62.151 88.910,62.833 88.378,63.441 88.225 C 64.049 88.073,65.040 87.532,65.645 87.024 C 66.249 86.516,67.422 85.972,68.252 85.817 C 69.081 85.661,69.963 85.257,70.210 84.918 C 71.017 83.815,74.736 83.600,92.501 83.630 L 110.003 83.659 111.179 82.729 C 112.327 81.823,112.357 81.706,112.399 78.000 C 112.471 71.786,112.971 68.217,113.943 66.981 C 114.415 66.382,114.800 65.570,114.800 65.177 C 114.800 64.783,115.238 63.940,115.774 63.304 C 116.310 62.667,116.872 61.653,117.023 61.050 C 117.174 60.447,117.719 59.678,118.234 59.341 C 118.748 59.004,119.269 58.412,119.392 58.025 C 119.515 57.638,120.062 57.118,120.608 56.869 C 121.153 56.621,121.600 56.147,121.600 55.816 C 121.600 55.486,122.027 55.108,122.550 54.977 C 123.072 54.846,123.698 54.302,123.941 53.769 C 124.614 52.294,134.707 52.269,136.871 53.738 C 137.631 54.254,138.725 54.795,139.300 54.939 C 139.876 55.084,140.452 55.534,140.581 55.940 C 140.710 56.346,141.262 56.882,141.808 57.131 C 142.353 57.379,142.800 57.853,142.800 58.182 C 142.800 58.512,143.241 59.070,143.780 59.424 C 144.319 59.777,144.969 60.726,145.224 61.533 C 145.479 62.340,145.954 63.211,146.279 63.470 C 146.996 64.040,147.573 66.362,147.603 68.800 C 147.615 69.790,147.899 70.960,148.232 71.400 C 148.717 72.038,148.819 73.251,148.736 77.403 C 148.601 84.238,147.569 83.600,158.759 83.600 L 168.272 83.600 168.788 82.500 C 169.513 80.957,170.399 76.181,170.402 73.800 C 170.405 71.353,171.067 68.826,171.776 68.554 C 172.098 68.430,172.405 67.299,172.570 65.628 C 172.780 63.498,173.044 62.710,173.781 62.018 C 174.299 61.531,174.838 60.523,174.978 59.778 C 175.118 59.033,175.572 58.185,175.987 57.894 C 176.402 57.603,176.957 56.892,177.221 56.314 C 177.485 55.735,178.146 55.150,178.690 55.013 C 179.235 54.876,180.212 54.372,180.861 53.891 C 182.519 52.666,186.685 52.186,190.698 52.757 M287.200 111.144 C 286.870 111.342,283.189 111.634,279.020 111.792 C 271.864 112.065,271.371 112.134,270.183 113.040 C 269.491 113.568,268.626 114.000,268.262 114.000 C 267.676 114.000,267.597 114.701,267.571 120.100 C 267.555 123.455,267.408 127.139,267.244 128.286 C 266.931 130.488,266.902 130.527,262.488 134.871 C 261.890 135.461,260.860 136.075,260.200 136.237 C 259.540 136.399,258.498 136.901,257.885 137.352 C 256.013 138.730,249.488 138.809,247.541 137.477 C 246.739 136.929,245.659 136.348,245.141 136.186 C 244.624 136.024,243.840 135.553,243.400 135.140 C 240.316 132.245,239.200 131.038,239.200 130.598 C 239.200 130.320,238.762 129.805,238.226 129.454 C 237.512 128.986,237.178 128.306,236.979 126.908 C 236.828 125.858,236.357 124.423,235.931 123.718 C 235.467 122.949,235.065 121.340,234.928 119.706 C 234.733 117.390,234.502 116.742,233.399 115.428 L 232.099 113.880 221.150 113.947 C 206.130 114.038,207.546 113.481,207.027 119.506 C 206.908 120.884,206.527 122.445,206.180 122.975 C 205.833 123.505,205.456 124.987,205.342 126.269 C 205.115 128.831,204.505 130.800,203.938 130.800 C 203.737 130.800,203.206 131.422,202.757 132.182 C 202.309 132.943,201.611 133.670,201.206 133.798 C 200.801 133.927,199.800 134.565,198.980 135.216 C 197.867 136.101,197.068 136.400,195.821 136.400 C 194.904 136.400,193.804 136.664,193.376 136.987 C 192.364 137.753,189.157 137.760,187.338 137.000 C 186.549 136.670,185.249 136.397,184.451 136.394 C 183.653 136.391,182.631 136.166,182.181 135.894 C 181.730 135.622,180.762 135.040,180.029 134.600 C 178.080 133.430,175.565 130.815,174.933 129.300 C 174.630 128.575,174.043 127.643,173.628 127.228 C 173.087 126.687,172.793 125.592,172.581 123.338 C 172.420 121.612,172.023 119.797,171.700 119.304 C 171.378 118.812,170.998 117.469,170.857 116.320 C 170.618 114.381,170.511 114.214,169.356 113.978 C 167.920 113.685,150.561 113.853,150.056 114.166 C 149.870 114.280,149.620 117.011,149.499 120.235 C 149.314 125.190,149.160 126.258,148.503 127.148 C 148.075 127.727,147.595 128.894,147.437 129.743 C 147.098 131.554,143.102 135.742,141.292 136.184 C 140.692 136.331,139.561 136.888,138.781 137.424 C 136.038 139.305,127.549 139.268,125.897 137.367 C 125.434 136.835,124.848 136.400,124.593 136.400 C 124.339 136.400,122.914 135.095,121.427 133.500 C 119.940 131.905,118.387 130.240,117.977 129.800 C 117.514 129.303,117.129 128.090,116.962 126.600 C 116.815 125.280,116.458 123.927,116.170 123.594 C 115.526 122.848,114.823 119.913,114.810 117.910 C 114.802 116.675,114.601 116.318,113.636 115.819 C 112.996 115.488,112.403 115.008,112.317 114.752 C 112.206 114.418,110.003 114.309,104.431 114.363 L 96.700 114.438 95.450 115.691 L 94.200 116.943 94.249 134.372 C 94.276 143.957,94.493 153.510,94.731 155.600 C 95.419 161.652,96.928 216.538,96.792 230.604 C 96.771 232.698,96.982 234.338,97.400 235.339 C 97.752 236.180,98.035 237.888,98.030 239.134 C 97.980 251.052,98.861 285.615,99.371 291.767 C 99.719 295.965,100.156 301.441,100.342 303.936 C 100.661 308.216,100.744 308.526,101.802 309.436 C 102.420 309.966,102.941 310.418,102.962 310.441 C 102.983 310.463,108.040 310.626,114.200 310.803 C 122.307 311.035,125.952 311.292,127.400 311.733 C 130.717 312.744,238.268 312.831,241.140 311.825 C 243.365 311.046,248.161 310.723,262.600 310.379 C 269.860 310.206,276.790 309.872,278.000 309.636 C 282.694 308.722,285.680 308.434,293.300 308.161 C 297.645 308.006,301.200 307.716,301.200 307.517 C 301.200 307.318,301.784 306.621,302.499 305.969 L 303.797 304.782 303.680 287.368 C 303.610 276.948,303.401 269.529,303.160 268.895 C 302.938 268.312,302.794 267.377,302.840 266.817 C 302.885 266.258,302.808 265.170,302.669 264.400 C 301.803 259.629,301.523 243.465,301.423 192.491 C 301.347 154.343,301.178 136.437,300.879 135.200 C 299.825 130.828,299.607 129.003,299.373 122.600 C 299.010 112.647,298.710 111.860,295.120 111.462 C 290.057 110.900,287.761 110.807,287.200 111.144 M151.802 153.602 C 152.201 154.043,153.226 154.592,154.081 154.822 C 155.077 155.090,155.790 155.580,156.067 156.186 C 156.304 156.707,156.814 157.215,157.201 157.316 C 157.589 157.418,158.128 158.197,158.402 159.050 C 158.675 159.903,159.273 161.011,159.731 161.513 C 161.121 163.037,160.979 168.921,159.500 171.056 C 158.895 171.929,158.400 172.823,158.400 173.043 C 158.400 173.711,155.735 176.400,155.073 176.400 C 154.733 176.400,154.340 176.760,154.200 177.199 C 153.574 179.173,140.000 179.165,140.000 177.191 C 140.000 177.019,139.370 176.507,138.600 176.053 C 137.830 175.599,137.200 174.961,137.200 174.636 C 137.200 174.311,136.848 173.799,136.419 173.498 C 134.296 172.011,133.977 160.042,136.043 159.386 C 136.459 159.254,136.800 158.888,136.800 158.573 C 136.800 157.891,139.889 154.800,140.571 154.800 C 140.831 154.800,141.655 154.350,142.400 153.800 C 144.263 152.426,150.616 152.292,151.802 153.602 M286.254 154.198 C 286.884 154.526,287.883 154.796,288.474 154.798 C 290.017 154.801,291.600 155.486,291.600 156.151 C 291.600 156.465,292.140 156.910,292.800 157.140 C 293.460 157.370,294.000 157.721,294.000 157.920 C 294.000 158.119,294.540 158.846,295.200 159.537 C 295.904 160.274,296.400 161.223,296.400 161.833 C 296.400 162.406,296.760 163.331,297.200 163.891 C 298.322 165.317,298.353 169.956,297.248 170.956 C 296.835 171.331,296.385 172.304,296.249 173.118 C 295.937 174.981,293.014 178.202,291.292 178.580 C 290.627 178.726,289.776 179.184,289.401 179.599 C 288.031 181.113,281.091 181.108,279.678 179.592 C 279.305 179.192,278.512 178.742,277.915 178.593 C 275.915 178.091,273.021 174.630,272.571 172.200 C 272.408 171.320,272.033 170.021,271.737 169.313 C 271.047 167.659,271.050 165.822,271.745 165.246 C 272.044 164.997,272.399 163.850,272.533 162.697 C 272.707 161.197,273.042 160.368,273.713 159.784 C 274.228 159.335,274.769 158.658,274.914 158.280 C 275.059 157.902,275.629 157.387,276.181 157.136 C 276.733 156.884,277.284 156.365,277.406 155.982 C 277.640 155.244,278.741 154.814,280.424 154.805 C 280.986 154.802,281.796 154.536,282.224 154.213 C 283.229 153.452,284.814 153.446,286.254 154.198 M117.694 155.015 C 118.066 155.157,118.479 155.617,118.612 156.037 C 118.745 156.457,119.100 156.800,119.402 156.800 C 120.169 156.800,122.764 159.603,123.065 160.758 C 123.203 161.285,123.637 162.037,124.029 162.429 C 125.490 163.890,125.508 170.636,124.054 171.697 C 123.676 171.974,123.139 172.973,122.861 173.918 C 122.518 175.088,122.056 175.751,121.413 175.995 C 120.893 176.193,120.352 176.721,120.210 177.168 C 120.047 177.681,119.335 178.167,118.285 178.482 C 117.369 178.756,116.300 179.300,115.910 179.690 C 114.868 180.732,108.914 180.713,107.554 179.664 C 107.029 179.259,106.039 178.737,105.352 178.503 C 103.914 178.013,101.200 175.453,101.200 174.587 C 101.200 174.264,100.926 174.000,100.590 174.000 C 98.587 174.000,98.628 160.612,100.634 159.842 C 100.952 159.720,101.387 159.161,101.600 158.600 C 101.813 158.039,102.306 157.472,102.694 157.340 C 103.082 157.209,103.780 156.657,104.244 156.114 C 105.517 154.625,114.719 153.873,117.694 155.015 M219.482 154.760 C 220.876 155.030,222.560 156.086,224.507 157.912 C 229.978 163.041,228.636 176.058,222.378 178.562 C 221.510 178.909,220.800 179.368,220.800 179.581 C 220.800 181.084,211.469 181.168,209.885 179.680 C 209.379 179.205,208.388 178.615,207.683 178.369 C 206.977 178.123,206.400 177.765,206.400 177.574 C 206.400 177.383,205.770 176.597,205.000 175.827 C 204.230 175.057,203.600 174.053,203.600 173.597 C 203.600 173.141,203.214 172.246,202.743 171.608 C 201.485 169.907,201.471 165.399,202.717 163.814 C 203.203 163.197,203.600 162.249,203.600 161.707 C 203.600 161.144,204.083 160.265,204.725 159.660 C 205.343 159.077,205.967 158.285,206.112 157.900 C 206.257 157.515,206.643 157.200,206.971 157.200 C 207.299 157.200,208.005 156.728,208.540 156.152 C 209.882 154.704,215.501 153.990,219.482 154.760 M253.840 155.446 C 254.588 155.801,255.200 156.236,255.200 156.414 C 255.200 156.591,255.746 156.856,256.414 157.003 C 257.081 157.150,257.907 157.697,258.249 158.219 C 258.592 158.741,259.206 159.275,259.615 159.405 C 260.024 159.535,260.483 160.037,260.635 160.520 C 260.787 161.004,261.312 161.774,261.802 162.231 C 263.574 163.885,263.607 173.628,261.846 175.391 C 261.381 175.857,260.779 176.724,260.509 177.319 C 260.238 177.914,259.795 178.400,259.524 178.400 C 259.252 178.400,258.663 178.851,258.215 179.402 C 257.671 180.070,256.762 180.520,255.486 180.753 C 254.433 180.945,253.225 181.416,252.801 181.799 C 251.925 182.592,249.080 182.372,247.125 181.361 C 246.528 181.053,245.600 180.800,245.063 180.800 C 243.799 180.800,239.646 177.328,239.322 176.000 C 239.188 175.450,238.656 174.491,238.139 173.869 C 236.697 172.133,236.736 165.584,238.200 163.600 C 238.750 162.855,239.200 162.015,239.200 161.735 C 239.200 160.960,242.864 157.354,244.000 157.010 C 244.550 156.844,245.360 156.387,245.800 155.994 C 247.267 154.684,251.611 154.388,253.840 155.446 M185.836 158.200 C 186.557 158.750,187.320 159.200,187.531 159.200 C 188.323 159.200,191.551 162.669,191.823 163.812 C 191.978 164.465,192.486 165.420,192.952 165.932 C 194.229 167.336,194.195 172.999,192.900 174.750 C 192.405 175.420,192.000 176.305,192.000 176.718 C 192.000 177.130,191.460 177.949,190.800 178.537 C 190.140 179.125,189.600 179.773,189.600 179.976 C 189.600 180.180,189.195 180.469,188.700 180.620 C 188.205 180.770,187.440 181.324,187.000 181.851 C 185.322 183.858,175.805 183.658,173.422 181.565 C 172.692 180.924,171.911 180.400,171.687 180.400 C 171.298 180.400,170.249 178.949,168.680 176.242 C 167.518 174.236,167.832 164.845,169.106 163.533 C 169.604 163.020,170.660 161.835,171.453 160.900 C 172.245 159.965,173.200 159.200,173.574 159.200 C 173.949 159.200,174.647 158.750,175.125 158.200 C 175.951 157.250,176.209 157.200,180.260 157.200 C 184.193 157.200,184.627 157.278,185.836 158.200 " stroke="none" fill="#bce4ec" fill-rule="evenodd"></path><path id="path2" d="M124.620 54.059 C 122.035 56.192,118.043 60.536,117.573 61.726 C 117.297 62.427,116.759 63.360,116.379 63.800 C 114.593 65.868,113.553 69.625,113.168 75.400 C 112.519 85.161,114.829 84.200,92.016 84.200 C 74.189 84.200,73.762 84.218,72.000 85.062 C 71.010 85.536,69.345 86.226,68.300 86.595 C 67.255 86.964,66.400 87.417,66.400 87.602 C 66.400 87.787,65.744 88.154,64.943 88.419 C 63.301 88.961,60.269 91.984,59.546 93.800 C 59.283 94.460,58.783 95.335,58.434 95.745 C 57.689 96.621,57.703 107.897,58.450 109.294 C 58.682 109.726,59.044 112.537,59.257 115.540 C 59.469 118.543,59.989 124.780,60.412 129.400 C 61.365 139.811,61.497 141.692,62.015 152.400 C 62.244 157.130,62.689 162.890,63.003 165.200 C 63.318 167.510,63.759 175.070,63.984 182.000 C 64.458 196.621,64.583 198.535,65.589 206.600 C 66.000 209.900,66.451 216.200,66.591 220.600 C 66.730 225.000,67.025 229.410,67.246 230.400 C 67.697 232.420,68.182 238.892,68.641 249.000 C 68.811 252.740,68.968 272.090,68.990 292.000 C 69.020 320.381,69.139 328.457,69.539 329.391 C 69.820 330.046,70.307 331.807,70.622 333.304 C 71.882 339.297,77.525 344.221,83.800 344.805 C 88.277 345.222,105.811 344.535,109.221 343.810 C 114.752 342.633,120.534 342.326,139.400 342.210 C 153.645 342.121,159.848 341.925,165.000 341.400 C 172.339 340.653,185.304 340.790,191.800 341.684 C 198.687 342.633,284.121 342.362,297.000 341.351 C 298.320 341.247,304.260 341.018,310.200 340.841 C 316.140 340.665,321.462 340.330,322.026 340.098 C 323.351 339.553,325.897 337.865,327.307 336.596 C 327.916 336.048,328.556 335.600,328.730 335.600 C 329.331 335.600,333.581 329.326,333.593 328.422 C 333.597 328.103,334.095 327.129,334.700 326.257 L 335.800 324.670 335.935 311.435 C 336.066 298.531,335.530 284.544,334.807 282.023 C 334.609 281.334,334.252 276.771,334.013 271.885 C 333.775 266.998,333.307 259.130,332.973 254.400 C 332.076 241.671,331.723 232.491,331.412 213.800 C 331.100 195.063,331.090 194.764,330.480 185.800 C 330.241 182.280,330.136 175.080,330.247 169.800 C 330.653 150.493,330.560 118.686,330.083 114.000 C 329.825 111.470,329.447 106.741,329.243 103.490 C 328.955 98.919,328.693 97.239,328.084 96.072 C 327.652 95.242,327.173 93.824,327.020 92.921 C 326.868 92.017,326.306 90.685,325.771 89.961 C 325.237 89.237,324.800 88.447,324.800 88.205 C 324.800 87.359,319.932 82.769,318.075 81.864 C 317.044 81.362,315.840 80.744,315.400 80.491 C 311.895 78.477,298.387 77.260,292.894 78.465 C 291.632 78.741,288.620 78.998,286.200 79.035 C 279.664 79.135,269.325 79.890,268.548 80.325 C 266.871 81.264,266.125 79.156,265.384 71.383 C 264.221 59.184,260.433 54.281,251.420 53.309 C 246.228 52.749,237.299 57.492,234.997 62.032 C 234.616 62.784,234.072 63.670,233.789 64.000 C 233.506 64.330,233.000 65.950,232.665 67.600 C 232.330 69.250,231.868 71.410,231.637 72.400 C 231.406 73.390,231.058 76.056,230.863 78.325 C 230.418 83.511,230.845 83.210,223.343 83.626 C 219.854 83.820,214.981 84.100,212.512 84.248 C 206.718 84.597,206.800 84.663,206.800 79.638 C 206.800 77.359,206.546 74.877,206.181 73.587 C 205.840 72.384,205.297 70.230,204.973 68.800 C 204.648 67.370,204.062 65.750,203.670 65.200 C 203.277 64.650,202.717 63.611,202.425 62.891 C 202.134 62.170,201.687 61.450,201.432 61.291 C 201.177 61.131,200.615 60.436,200.184 59.747 C 199.155 58.101,196.441 56.078,193.125 54.485 C 186.211 51.163,178.729 53.877,175.166 61.000 C 174.726 61.880,174.114 63.052,173.807 63.604 C 173.500 64.156,173.069 65.719,172.851 67.078 C 172.632 68.436,172.152 70.007,171.784 70.569 C 171.323 71.273,170.994 73.118,170.727 76.495 C 170.279 82.180,169.938 83.318,168.488 83.978 C 167.460 84.447,152.246 84.280,148.900 83.764 L 147.600 83.564 147.597 78.082 C 147.594 71.964,146.782 65.498,145.888 64.473 C 145.565 64.103,145.099 63.168,144.851 62.396 C 142.812 56.033,129.084 50.375,124.620 54.059 M192.265 54.826 C 195.642 56.167,198.542 58.351,200.376 60.935 C 201.835 62.991,204.400 68.066,204.400 68.898 C 204.400 69.236,204.850 71.244,205.400 73.361 C 206.077 75.967,206.400 78.282,206.400 80.529 C 206.400 85.503,206.320 85.449,212.848 84.875 C 215.792 84.616,220.865 84.285,224.122 84.139 C 230.823 83.839,231.200 83.652,231.200 80.630 C 231.200 76.921,233.635 65.464,234.819 63.600 C 236.877 60.362,238.579 58.354,239.800 57.723 C 240.460 57.382,241.279 56.860,241.620 56.562 C 244.051 54.440,250.870 53.639,255.008 54.990 C 262.100 57.305,264.026 60.761,264.822 72.600 C 265.346 80.389,266.249 82.127,269.142 80.911 C 272.294 79.586,304.527 78.520,309.800 79.567 C 323.494 82.285,328.254 90.043,329.208 111.200 C 329.441 116.370,329.711 121.860,329.808 123.400 C 330.062 127.454,330.045 142.519,329.776 151.800 C 329.385 165.241,329.505 189.662,329.969 191.183 C 330.213 191.981,330.558 200.598,330.785 211.583 C 331.349 238.842,331.517 243.713,332.183 252.000 C 332.511 256.070,332.959 263.000,333.181 267.400 C 333.719 278.079,333.935 280.863,334.705 287.000 C 335.204 290.977,335.363 295.872,335.379 307.814 L 335.400 323.429 333.021 328.105 C 330.302 333.451,328.355 335.658,323.987 338.346 C 321.124 340.108,319.391 340.314,304.800 340.620 C 298.310 340.757,290.660 340.934,287.800 341.015 C 253.505 341.983,207.484 342.013,195.761 341.075 C 185.163 340.227,169.521 340.202,159.200 341.015 C 154.045 341.421,147.127 341.605,138.800 341.558 C 125.459 341.481,112.518 342.237,106.783 343.427 C 104.755 343.848,100.396 344.120,93.171 344.275 L 82.541 344.503 79.590 343.050 C 74.898 340.738,71.917 337.146,71.116 332.839 C 70.887 331.608,70.407 329.610,70.050 328.400 C 69.294 325.842,69.211 319.286,69.728 303.200 C 70.192 288.766,70.152 274.702,69.611 262.400 C 69.355 256.570,68.984 247.480,68.787 242.200 C 68.590 236.920,68.141 230.350,67.789 227.600 C 67.436 224.850,66.989 219.270,66.794 215.200 C 66.599 211.130,66.265 206.000,66.052 203.800 C 64.999 192.904,64.790 189.745,64.410 179.000 C 64.184 172.620,63.729 164.520,63.398 161.000 C 63.067 157.480,62.617 152.702,62.398 150.382 C 62.179 148.061,62.000 144.641,61.999 142.782 C 61.998 138.381,61.337 129.653,60.623 124.600 C 60.313 122.400,59.933 118.170,59.780 115.200 C 59.627 112.230,59.326 109.350,59.111 108.800 C 58.133 106.300,58.324 98.197,59.425 95.447 C 60.480 92.812,64.039 88.800,65.322 88.800 C 65.636 88.800,66.353 88.437,66.917 87.994 C 70.724 84.999,76.768 84.392,99.000 84.770 C 113.426 85.015,113.065 85.204,113.475 77.225 C 113.733 72.222,115.352 65.781,116.747 64.214 C 117.145 63.766,117.691 62.839,117.962 62.154 C 118.537 60.692,122.512 56.391,124.589 54.981 C 127.802 52.801,136.250 54.097,140.055 57.354 C 144.972 61.563,146.506 65.599,146.688 74.800 C 146.860 83.483,146.912 83.824,148.096 84.164 C 148.593 84.306,153.090 84.604,158.090 84.825 C 170.633 85.379,170.529 85.433,171.021 78.200 C 171.170 76.000,171.559 73.480,171.885 72.600 C 172.210 71.720,172.797 69.624,173.188 67.943 C 174.298 63.172,177.632 57.058,179.745 55.919 C 184.310 53.459,188.011 53.136,192.265 54.826 M286.428 109.612 C 285.894 109.840,282.040 110.294,277.864 110.621 C 266.660 111.497,266.619 111.532,266.579 120.357 C 266.541 128.486,265.817 130.308,261.141 134.038 C 259.768 135.134,253.813 137.200,252.028 137.200 C 247.022 137.200,238.410 129.976,237.794 125.259 C 237.661 124.237,237.262 122.595,236.908 121.611 C 236.555 120.627,235.981 118.664,235.633 117.250 C 234.499 112.642,230.405 111.002,223.521 112.399 C 222.134 112.681,217.948 113.021,214.218 113.155 L 207.436 113.400 206.373 114.968 C 205.536 116.202,205.250 117.223,205.030 119.768 C 204.323 127.952,203.586 129.974,200.397 132.473 C 199.746 132.983,198.665 133.823,197.995 134.340 C 195.220 136.481,185.948 136.307,181.932 134.039 C 176.685 131.074,174.283 127.176,173.213 119.885 C 172.104 112.334,171.601 111.943,163.083 112.000 C 159.957 112.021,156.590 112.026,155.600 112.011 C 149.763 111.925,148.110 113.801,147.582 121.114 C 146.948 129.879,144.721 133.867,139.600 135.405 C 139.050 135.570,138.060 136.086,137.400 136.552 C 135.275 138.053,129.322 138.021,127.020 136.496 C 121.496 132.837,118.209 128.651,117.668 124.588 C 117.039 119.855,115.348 114.915,114.071 114.078 C 112.202 112.853,96.007 113.079,94.655 114.348 C 92.631 116.249,92.320 123.139,93.191 146.800 C 93.413 152.850,93.783 167.610,94.013 179.600 C 94.242 191.590,94.603 202.570,94.815 204.000 C 95.027 205.430,95.384 214.610,95.608 224.400 C 95.833 234.190,96.284 246.070,96.611 250.800 C 96.937 255.530,97.375 267.410,97.584 277.200 C 98.277 309.754,98.284 309.804,102.429 311.200 C 103.409 311.530,104.479 311.978,104.806 312.196 C 105.151 312.427,111.765 312.718,120.600 312.891 C 128.960 313.055,142.190 313.327,150.000 313.495 C 157.810 313.663,169.780 313.687,176.600 313.548 C 183.420 313.409,201.510 313.257,216.800 313.211 C 232.090 313.165,246.490 312.976,248.800 312.791 C 251.110 312.607,256.240 312.190,260.200 311.866 C 264.160 311.542,270.904 311.156,275.187 311.008 C 279.470 310.860,284.960 310.479,287.387 310.160 C 289.814 309.841,293.510 309.482,295.600 309.361 C 303.018 308.933,303.987 308.161,305.000 301.864 C 305.345 299.721,305.549 297.839,305.455 297.684 C 305.360 297.528,305.167 293.530,305.026 288.800 C 304.481 270.521,303.951 258.684,303.324 250.800 C 302.780 243.949,302.649 234.109,302.529 191.000 C 302.371 134.480,302.206 129.827,299.761 112.939 C 299.338 110.015,290.592 107.833,286.428 109.612 M292.822 109.974 C 295.600 110.267,299.147 111.470,299.205 112.140 C 299.725 118.088,300.538 126.051,300.826 128.000 C 301.720 134.052,301.946 146.834,301.972 192.687 C 301.998 238.444,302.266 252.665,303.192 257.400 C 304.034 261.706,304.784 301.603,304.076 304.400 C 303.881 305.170,303.191 306.365,302.542 307.055 L 301.362 308.311 294.181 308.775 C 290.231 309.030,286.460 309.397,285.800 309.590 C 284.080 310.095,274.052 310.733,263.600 311.004 C 258.650 311.132,254.060 311.395,253.400 311.587 C 245.464 313.899,111.807 313.357,103.637 310.980 L 101.075 310.234 99.931 307.713 C 99.302 306.326,98.807 304.698,98.829 304.096 C 99.072 297.695,97.361 246.169,96.795 242.800 C 96.459 240.801,96.187 232.520,95.190 193.800 C 95.009 186.760,94.672 176.140,94.443 170.200 C 93.065 134.588,93.141 117.344,94.682 115.275 L 95.483 114.200 103.042 113.951 C 113.485 113.608,114.656 114.017,115.559 118.331 C 115.804 119.503,116.184 120.796,116.403 121.205 C 116.622 121.615,116.994 123.340,117.231 125.040 C 117.706 128.453,119.581 131.209,123.895 134.834 C 124.943 135.714,126.206 136.774,126.702 137.189 C 128.547 138.732,136.202 138.627,137.962 137.035 C 138.341 136.691,139.270 136.199,140.026 135.941 C 140.782 135.683,141.909 135.051,142.531 134.536 C 143.153 134.021,143.797 133.600,143.963 133.600 C 145.567 133.600,148.254 125.824,148.594 120.200 C 148.980 113.795,148.944 113.851,153.264 113.074 C 155.268 112.714,157.109 112.550,157.354 112.710 C 157.599 112.869,160.526 113.000,163.857 113.000 C 171.700 113.000,172.188 113.512,173.021 122.600 C 173.172 124.245,173.567 125.813,173.977 126.400 C 174.362 126.950,174.962 127.940,175.312 128.600 C 176.213 130.298,178.921 133.038,180.480 133.827 C 181.206 134.195,182.070 134.729,182.400 135.013 C 183.754 136.179,190.350 136.720,195.041 136.050 C 197.544 135.693,200.131 133.786,203.869 129.544 C 204.377 128.968,205.170 124.833,205.854 119.200 C 206.529 113.635,206.318 113.748,216.800 113.350 C 234.067 112.695,234.595 112.843,235.344 118.560 C 235.486 119.638,235.866 121.051,236.190 121.701 C 236.515 122.351,236.979 123.981,237.222 125.323 C 237.715 128.040,238.398 129.059,242.391 133.037 C 244.174 134.813,245.473 135.750,246.555 136.042 C 247.420 136.275,248.504 136.703,248.964 136.993 C 252.988 139.535,262.201 135.749,265.588 130.161 L 266.910 127.979 267.072 121.090 L 267.233 114.200 268.516 113.111 C 270.069 111.793,270.387 111.736,279.164 111.190 C 283.994 110.889,286.380 110.579,286.953 110.178 C 287.912 109.506,288.258 109.494,292.822 109.974 M142.800 154.472 C 140.517 155.559,139.219 156.654,136.584 159.716 C 133.047 163.826,135.213 172.880,140.622 176.600 L 142.949 178.200 147.404 178.189 C 151.516 178.179,151.959 178.102,153.159 177.189 C 159.302 172.517,161.414 166.786,158.825 161.815 C 158.371 160.944,158.000 160.006,158.000 159.731 C 158.000 158.730,154.581 155.882,151.791 154.557 C 148.137 152.823,146.298 152.806,142.800 154.472 M151.663 155.141 C 160.622 159.172,161.583 170.696,153.421 176.215 C 148.550 179.509,140.898 177.724,137.334 172.464 L 135.800 170.200 135.800 166.000 C 135.800 157.237,143.938 151.666,151.663 155.141 M108.139 155.195 C 102.144 156.459,98.374 163.542,99.762 170.937 C 100.249 173.533,104.286 177.758,106.909 178.419 C 107.957 178.683,108.911 179.056,109.030 179.249 C 109.311 179.703,114.286 179.708,114.566 179.255 C 114.683 179.065,115.587 178.684,116.574 178.407 C 118.578 177.846,122.800 173.853,122.800 172.519 C 122.800 172.111,123.088 171.367,123.440 170.864 C 124.369 169.538,124.664 165.465,123.915 164.313 C 123.588 163.811,123.087 162.680,122.800 161.800 C 122.257 160.135,119.084 156.822,116.923 155.666 C 115.855 155.094,110.083 154.785,108.139 155.195 M213.200 155.195 C 209.223 155.721,204.816 159.400,203.977 162.896 C 203.725 163.944,203.358 164.903,203.160 165.025 C 200.613 166.599,204.952 176.211,209.154 178.305 C 210.153 178.803,211.148 179.388,211.365 179.605 C 212.022 180.262,218.523 180.096,219.424 179.400 C 219.851 179.070,220.941 178.460,221.847 178.046 C 222.752 177.631,223.832 176.810,224.247 176.221 C 224.661 175.632,225.450 174.587,226.000 173.899 C 226.947 172.714,227.000 172.382,227.000 167.624 L 227.000 162.600 225.400 160.361 C 223.507 157.711,220.644 155.617,218.292 155.162 C 216.383 154.793,216.241 154.794,213.200 155.195 M280.800 155.145 C 276.912 155.988,273.078 160.757,272.596 165.349 C 272.049 170.565,274.176 175.777,277.617 177.652 C 282.107 180.099,285.444 180.605,288.114 179.244 C 288.930 178.828,290.019 178.382,290.532 178.253 C 291.934 177.901,295.457 173.967,295.986 172.162 C 299.115 161.489,291.402 152.846,280.800 155.145 M287.067 155.558 C 298.153 157.705,299.330 174.491,288.664 178.354 C 282.499 180.587,274.215 176.575,273.371 170.946 C 271.828 160.658,277.941 153.790,287.067 155.558 M117.800 156.928 C 129.533 165.122,121.478 182.133,107.794 178.058 C 98.492 175.287,97.033 162.598,105.389 157.129 L 107.800 155.551 112.000 155.681 C 115.840 155.800,116.337 155.906,117.800 156.928 M221.195 157.124 C 233.117 165.396,224.257 183.970,210.989 178.521 C 202.143 174.888,200.955 161.906,209.066 157.503 C 209.910 157.045,211.050 156.430,211.600 156.137 C 213.868 154.930,218.757 155.433,221.195 157.124 M245.707 156.956 C 237.120 161.342,235.052 172.766,241.917 177.892 C 242.733 178.502,243.633 179.220,243.918 179.489 C 245.465 180.951,253.671 181.221,256.202 179.894 C 260.868 177.447,263.271 172.143,262.438 166.131 C 261.994 162.929,258.115 157.934,255.600 157.325 C 255.050 157.192,254.122 156.750,253.538 156.342 C 251.854 155.165,248.733 155.410,245.707 156.956 M253.889 157.245 C 254.703 157.660,255.556 158.008,255.785 158.017 C 258.376 158.123,262.004 164.457,261.988 168.849 C 261.940 181.975,243.840 185.015,239.265 172.664 C 235.931 163.663,245.886 153.165,253.889 157.245 M176.800 158.195 C 176.250 158.516,175.245 159.043,174.567 159.367 C 173.476 159.887,172.359 161.009,169.613 164.344 C 167.570 166.824,167.970 173.946,170.351 177.500 C 171.272 178.875,172.169 180.000,172.344 180.000 C 172.520 180.000,173.546 180.585,174.626 181.300 C 177.114 182.948,183.743 183.233,185.800 181.781 C 186.408 181.351,187.226 180.812,187.617 180.581 C 191.588 178.241,194.210 171.006,192.483 167.155 C 192.050 166.190,191.565 164.975,191.407 164.456 C 190.052 160.025,180.604 155.976,176.800 158.195 M185.400 159.610 C 189.676 161.852,192.421 166.144,192.392 170.542 C 192.372 173.479,189.003 180.000,187.505 180.000 C 187.314 180.000,186.495 180.450,185.686 181.000 C 183.204 182.687,177.891 182.481,174.635 180.572 C 170.544 178.173,169.000 175.332,169.000 170.200 L 169.000 166.200 170.647 164.000 C 174.981 158.209,179.924 156.738,185.400 159.610 " stroke="none" fill="#d8eff4" fill-rule="evenodd"></path><path id="path3" d="M184.121 52.765 C 182.953 52.908,181.525 53.401,180.861 53.891 C 180.212 54.372,179.235 54.876,178.690 55.013 C 178.146 55.150,177.485 55.735,177.221 56.314 C 176.957 56.892,176.402 57.603,175.987 57.894 C 175.572 58.185,175.118 59.033,174.978 59.778 C 174.838 60.523,174.299 61.531,173.781 62.018 C 173.044 62.710,172.780 63.498,172.570 65.628 C 172.405 67.299,172.098 68.430,171.776 68.554 C 171.067 68.826,170.405 71.353,170.402 73.800 C 170.399 76.181,169.513 80.957,168.788 82.500 L 168.272 83.600 158.759 83.600 C 147.569 83.600,148.601 84.238,148.736 77.403 C 148.819 73.251,148.717 72.038,148.232 71.400 C 147.899 70.960,147.615 69.790,147.603 68.800 C 147.573 66.362,146.996 64.040,146.279 63.470 C 145.954 63.211,145.479 62.340,145.224 61.533 C 144.969 60.726,144.319 59.777,143.780 59.424 C 143.241 59.070,142.800 58.512,142.800 58.182 C 142.800 57.853,142.353 57.379,141.808 57.131 C 141.262 56.882,140.710 56.346,140.581 55.940 C 140.452 55.534,139.876 55.084,139.300 54.939 C 138.725 54.795,137.631 54.254,136.871 53.738 C 134.707 52.269,124.614 52.294,123.941 53.769 C 123.698 54.302,123.072 54.846,122.550 54.977 C 122.027 55.108,121.600 55.486,121.600 55.816 C 121.600 56.147,121.153 56.621,120.608 56.869 C 120.062 57.118,119.515 57.638,119.392 58.025 C 119.269 58.412,118.748 59.004,118.234 59.341 C 117.719 59.678,117.174 60.447,117.023 61.050 C 116.872 61.653,116.310 62.667,115.774 63.304 C 115.238 63.940,114.800 64.783,114.800 65.177 C 114.800 65.570,114.415 66.382,113.943 66.981 C 112.971 68.217,112.471 71.786,112.399 78.000 C 112.357 81.706,112.327 81.823,111.179 82.729 L 110.003 83.659 92.501 83.630 C 74.736 83.600,71.017 83.815,70.210 84.918 C 69.963 85.257,69.081 85.661,68.252 85.817 C 67.422 85.972,66.249 86.516,65.645 87.024 C 65.040 87.532,64.049 88.073,63.441 88.225 C 62.833 88.378,62.151 88.910,61.924 89.407 C 61.697 89.905,61.082 90.508,60.556 90.747 C 60.030 90.987,59.600 91.430,59.600 91.731 C 59.600 92.033,59.063 93.072,58.407 94.040 L 57.215 95.800 57.207 102.084 C 57.200 108.473,57.703 113.793,58.484 115.600 C 58.722 116.150,59.149 121.640,59.433 127.800 C 59.729 134.238,60.218 140.361,60.584 142.200 C 60.992 144.257,61.355 149.473,61.599 156.800 C 61.963 167.746,62.282 171.674,63.184 176.355 C 63.413 177.540,63.606 181.860,63.614 185.955 C 63.636 198.072,64.224 207.942,64.972 208.769 C 65.500 209.352,65.644 211.131,65.836 219.434 C 65.999 226.446,66.315 231.060,66.904 235.000 C 68.055 242.706,68.281 252.749,68.239 294.400 L 68.203 329.400 69.096 331.214 C 69.587 332.212,70.174 334.007,70.401 335.204 C 70.673 336.641,71.134 337.656,71.757 338.190 C 72.277 338.636,72.814 339.332,72.953 339.738 C 73.091 340.144,73.525 340.560,73.918 340.663 C 74.310 340.765,74.804 341.239,75.016 341.714 C 75.227 342.190,75.985 342.745,76.700 342.948 C 77.415 343.150,78.000 343.465,78.000 343.648 C 78.000 345.941,109.742 346.033,114.066 343.752 C 115.283 343.110,117.795 343.020,142.600 342.727 C 157.560 342.549,170.591 342.292,171.558 342.155 C 172.525 342.017,178.915 342.130,185.758 342.405 C 201.761 343.047,284.608 343.018,299.400 342.364 C 305.120 342.112,311.365 342.022,313.278 342.165 C 316.318 342.393,316.946 342.323,318.272 341.613 C 319.106 341.166,320.364 340.800,321.068 340.800 C 322.751 340.800,324.426 340.141,325.066 339.227 C 325.350 338.822,326.036 338.377,326.591 338.238 C 327.146 338.099,327.600 337.730,327.600 337.419 C 327.600 337.108,327.946 336.744,328.369 336.610 C 329.351 336.298,332.000 333.382,332.000 332.613 C 332.000 332.291,332.337 331.848,332.749 331.627 C 333.169 331.403,333.701 330.421,333.959 329.397 C 334.212 328.391,334.683 327.466,335.006 327.343 C 336.950 326.597,337.121 280.052,335.198 274.995 C 334.599 273.419,334.036 264.632,333.982 256.007 C 333.938 249.158,333.554 243.048,332.761 236.600 C 332.173 231.819,331.587 194.279,331.425 151.000 C 331.257 105.973,331.342 110.448,330.608 108.283 C 330.283 107.327,329.857 104.074,329.660 101.053 C 329.356 96.378,329.181 95.430,328.486 94.681 C 328.036 94.196,327.541 92.932,327.384 91.872 C 327.221 90.760,326.698 89.465,326.150 88.814 C 325.628 88.193,325.200 87.515,325.200 87.308 C 325.200 87.102,324.660 86.451,324.000 85.863 C 323.340 85.275,322.800 84.619,322.800 84.405 C 322.800 84.190,322.350 83.902,321.800 83.764 C 321.250 83.626,320.800 83.248,320.800 82.924 C 320.800 82.601,320.080 82.053,319.200 81.707 C 318.320 81.361,317.600 80.917,317.600 80.719 C 317.600 80.213,315.038 79.200,313.760 79.200 C 313.174 79.200,312.043 78.795,311.247 78.300 C 309.176 77.012,283.034 77.046,279.748 78.341 C 278.274 78.923,276.523 79.147,272.598 79.256 L 267.400 79.400 267.130 77.600 C 266.981 76.610,266.846 74.759,266.830 73.487 C 266.813 72.215,266.508 70.505,266.151 69.687 C 265.794 68.869,265.374 66.732,265.219 64.939 C 264.984 62.227,264.756 61.463,263.868 60.408 C 263.281 59.710,262.800 58.951,262.800 58.723 C 262.800 57.918,259.490 55.105,258.086 54.718 C 257.306 54.502,256.181 53.966,255.587 53.527 C 253.981 52.340,245.919 52.573,244.292 53.855 C 243.695 54.325,242.606 54.822,241.871 54.960 C 241.136 55.098,240.146 55.659,239.670 56.205 C 239.194 56.752,238.530 57.200,238.194 57.200 C 237.858 57.200,237.379 57.647,237.131 58.192 C 236.882 58.738,236.361 59.285,235.973 59.409 C 235.585 59.532,235.076 60.120,234.842 60.716 C 234.608 61.312,234.054 62.250,233.611 62.800 C 233.167 63.350,232.684 64.700,232.537 65.800 C 232.389 66.900,231.916 68.279,231.485 68.865 C 230.823 69.765,230.662 70.852,230.451 75.865 L 230.200 81.800 225.290 82.262 C 222.590 82.517,219.530 82.911,218.490 83.139 C 217.451 83.366,214.575 83.632,212.100 83.728 L 207.600 83.904 207.578 80.652 C 207.544 75.514,206.988 71.271,206.240 70.444 C 205.875 70.041,205.406 68.651,205.197 67.355 C 204.962 65.894,204.533 64.766,204.068 64.383 C 203.655 64.044,203.098 63.102,202.829 62.289 C 202.561 61.476,202.167 60.704,201.955 60.572 C 201.742 60.440,201.123 59.628,200.579 58.766 C 200.035 57.905,199.355 57.200,199.067 57.200 C 198.780 57.200,198.157 56.755,197.684 56.211 C 197.211 55.666,196.323 55.103,195.712 54.958 C 195.100 54.813,194.194 54.326,193.698 53.875 C 192.345 52.647,188.632 52.217,184.121 52.765 M136.800 54.607 C 139.809 55.886,144.093 60.031,144.851 62.396 C 145.099 63.168,145.565 64.103,145.888 64.473 C 146.782 65.498,147.594 71.964,147.597 78.082 L 147.600 83.564 148.900 83.764 C 152.246 84.280,167.460 84.447,168.488 83.978 C 169.938 83.318,170.279 82.180,170.727 76.495 C 170.994 73.118,171.323 71.273,171.784 70.569 C 172.152 70.007,172.632 68.436,172.851 67.078 C 173.069 65.719,173.500 64.156,173.807 63.604 C 174.114 63.052,174.726 61.880,175.166 61.000 C 178.729 53.877,186.211 51.163,193.125 54.485 C 196.441 56.078,199.155 58.101,200.184 59.747 C 200.615 60.436,201.177 61.131,201.432 61.291 C 201.687 61.450,202.134 62.170,202.425 62.891 C 202.717 63.611,203.277 64.650,203.670 65.200 C 204.062 65.750,204.648 67.370,204.973 68.800 C 205.297 70.230,205.840 72.384,206.181 73.587 C 206.546 74.877,206.800 77.359,206.800 79.638 C 206.800 84.663,206.718 84.597,212.512 84.248 C 214.981 84.100,219.854 83.820,223.343 83.626 C 230.845 83.210,230.418 83.511,230.863 78.325 C 231.058 76.056,231.406 73.390,231.637 72.400 C 231.868 71.410,232.330 69.250,232.665 67.600 C 233.000 65.950,233.506 64.330,233.789 64.000 C 234.072 63.670,234.616 62.784,234.997 62.032 C 237.299 57.492,246.228 52.749,251.420 53.309 C 260.433 54.281,264.221 59.184,265.384 71.383 C 266.125 79.156,266.871 81.264,268.548 80.325 C 269.325 79.890,279.664 79.135,286.200 79.035 C 288.620 78.998,291.632 78.741,292.894 78.465 C 298.387 77.260,311.895 78.477,315.400 80.491 C 315.840 80.744,317.044 81.362,318.075 81.864 C 319.932 82.769,324.800 87.359,324.800 88.205 C 324.800 88.447,325.237 89.237,325.771 89.961 C 326.306 90.685,326.868 92.017,327.020 92.921 C 327.173 93.824,327.652 95.242,328.084 96.072 C 328.693 97.239,328.955 98.919,329.243 103.490 C 329.447 106.741,329.825 111.470,330.083 114.000 C 330.560 118.686,330.653 150.493,330.247 169.800 C 330.136 175.080,330.241 182.280,330.480 185.800 C 331.090 194.764,331.100 195.063,331.412 213.800 C 331.723 232.491,332.076 241.671,332.973 254.400 C 333.307 259.130,333.775 266.998,334.013 271.885 C 334.252 276.771,334.609 281.334,334.807 282.023 C 335.530 284.544,336.066 298.531,335.935 311.435 L 335.800 324.670 334.700 326.257 C 334.095 327.129,333.597 328.103,333.593 328.422 C 333.581 329.326,329.331 335.600,328.730 335.600 C 328.556 335.600,327.916 336.048,327.307 336.596 C 325.897 337.865,323.351 339.553,322.026 340.098 C 321.462 340.330,316.140 340.665,310.200 340.841 C 304.260 341.018,298.320 341.247,297.000 341.351 C 284.121 342.362,198.687 342.633,191.800 341.684 C 185.304 340.790,172.339 340.653,165.000 341.400 C 159.848 341.925,153.645 342.121,139.400 342.210 C 120.534 342.326,114.752 342.633,109.221 343.810 C 105.811 344.535,88.277 345.222,83.800 344.805 C 77.525 344.221,71.882 339.297,70.622 333.304 C 70.307 331.807,69.820 330.046,69.539 329.391 C 69.139 328.457,69.020 320.381,68.990 292.000 C 68.968 272.090,68.811 252.740,68.641 249.000 C 68.182 238.892,67.697 232.420,67.246 230.400 C 67.025 229.410,66.730 225.000,66.591 220.600 C 66.451 216.200,66.000 209.900,65.589 206.600 C 64.583 198.535,64.458 196.621,63.984 182.000 C 63.759 175.070,63.318 167.510,63.003 165.200 C 62.689 162.890,62.244 157.130,62.015 152.400 C 61.497 141.692,61.365 139.811,60.412 129.400 C 59.989 124.780,59.469 118.543,59.257 115.540 C 59.044 112.537,58.682 109.726,58.450 109.294 C 57.703 107.897,57.689 96.621,58.434 95.745 C 58.783 95.335,59.283 94.460,59.546 93.800 C 60.269 91.984,63.301 88.961,64.943 88.419 C 65.744 88.154,66.400 87.787,66.400 87.602 C 66.400 87.417,67.255 86.964,68.300 86.595 C 69.345 86.226,71.010 85.536,72.000 85.062 C 73.762 84.218,74.189 84.200,92.016 84.200 C 114.829 84.200,112.519 85.161,113.168 75.400 C 113.553 69.625,114.593 65.868,116.379 63.800 C 116.759 63.360,117.297 62.427,117.573 61.726 C 118.043 60.536,122.035 56.192,124.620 54.059 C 126.299 52.673,132.957 52.973,136.800 54.607 M286.953 110.178 C 286.380 110.579,283.994 110.889,279.164 111.190 C 270.387 111.736,270.069 111.793,268.516 113.111 L 267.233 114.200 267.072 121.090 L 266.910 127.979 265.588 130.161 C 263.845 133.037,261.267 135.135,258.032 136.308 C 252.948 138.154,251.030 138.298,248.964 136.993 C 248.504 136.703,247.420 136.275,246.555 136.042 C 245.473 135.750,244.174 134.813,242.391 133.037 C 238.398 129.059,237.715 128.040,237.222 125.323 C 236.979 123.981,236.515 122.351,236.190 121.701 C 235.866 121.051,235.486 119.638,235.344 118.560 C 234.595 112.843,234.067 112.695,216.800 113.350 C 206.318 113.748,206.529 113.635,205.854 119.200 C 205.170 124.833,204.377 128.968,203.869 129.544 C 200.131 133.786,197.544 135.693,195.041 136.050 C 190.350 136.720,183.754 136.179,182.400 135.013 C 182.070 134.729,181.206 134.195,180.480 133.827 C 178.921 133.038,176.213 130.298,175.312 128.600 C 174.962 127.940,174.362 126.950,173.977 126.400 C 173.567 125.813,173.172 124.245,173.021 122.600 C 172.188 113.512,171.700 113.000,163.857 113.000 C 160.526 113.000,157.599 112.869,157.354 112.710 C 157.109 112.550,155.268 112.714,153.264 113.074 C 148.944 113.851,148.980 113.795,148.594 120.200 C 148.254 125.824,145.567 133.600,143.963 133.600 C 143.797 133.600,143.153 134.021,142.531 134.536 C 141.909 135.051,140.782 135.683,140.026 135.941 C 139.270 136.199,138.341 136.691,137.962 137.035 C 136.202 138.627,128.547 138.732,126.702 137.189 C 126.206 136.774,124.943 135.714,123.895 134.834 C 119.581 131.209,117.706 128.453,117.231 125.040 C 116.994 123.340,116.622 121.615,116.403 121.205 C 116.184 120.796,115.804 119.503,115.559 118.331 C 114.656 114.017,113.485 113.608,103.042 113.951 L 95.483 114.200 94.682 115.275 C 93.141 117.344,93.065 134.588,94.443 170.200 C 94.672 176.140,95.009 186.760,95.190 193.800 C 96.187 232.520,96.459 240.801,96.795 242.800 C 97.361 246.169,99.072 297.695,98.829 304.096 C 98.807 304.698,99.302 306.326,99.931 307.713 L 101.075 310.234 103.637 310.980 C 111.807 313.357,245.464 313.899,253.400 311.587 C 254.060 311.395,258.650 311.132,263.600 311.004 C 274.052 310.733,284.080 310.095,285.800 309.590 C 286.460 309.397,290.231 309.030,294.181 308.775 L 301.362 308.311 302.542 307.055 C 303.191 306.365,303.881 305.170,304.076 304.400 C 304.784 301.603,304.034 261.706,303.192 257.400 C 302.266 252.665,301.998 238.444,301.972 192.687 C 301.946 146.834,301.720 134.052,300.826 128.000 C 300.538 126.051,299.725 118.088,299.205 112.140 C 299.147 111.470,295.600 110.267,292.822 109.974 C 288.258 109.494,287.912 109.506,286.953 110.178 M295.120 111.462 C 298.710 111.860,299.010 112.647,299.373 122.600 C 299.607 129.003,299.825 130.828,300.879 135.200 C 301.178 136.437,301.347 154.343,301.423 192.491 C 301.523 243.465,301.803 259.629,302.669 264.400 C 302.808 265.170,302.885 266.258,302.840 266.817 C 302.794 267.377,302.938 268.312,303.160 268.895 C 303.401 269.529,303.610 276.948,303.680 287.368 L 303.797 304.782 302.499 305.969 C 301.784 306.621,301.200 307.318,301.200 307.517 C 301.200 307.716,297.645 308.006,293.300 308.161 C 285.680 308.434,282.694 308.722,278.000 309.636 C 276.790 309.872,269.860 310.206,262.600 310.379 C 248.161 310.723,243.365 311.046,241.140 311.825 C 238.268 312.831,130.717 312.744,127.400 311.733 C 125.952 311.292,122.307 311.035,114.200 310.803 C 108.040 310.626,102.983 310.463,102.962 310.441 C 102.941 310.418,102.420 309.966,101.802 309.436 C 100.744 308.526,100.661 308.216,100.342 303.936 C 100.156 301.441,99.719 295.965,99.371 291.767 C 98.861 285.615,97.980 251.052,98.030 239.134 C 98.035 237.888,97.752 236.180,97.400 235.339 C 96.982 234.338,96.771 232.698,96.792 230.604 C 96.928 216.538,95.419 161.652,94.731 155.600 C 94.493 153.510,94.276 143.957,94.249 134.372 L 94.200 116.943 95.450 115.691 L 96.700 114.438 104.431 114.363 C 110.003 114.309,112.206 114.418,112.317 114.752 C 112.403 115.008,112.996 115.488,113.636 115.819 C 114.601 116.318,114.802 116.675,114.810 117.910 C 114.823 119.913,115.526 122.848,116.170 123.594 C 116.458 123.927,116.815 125.280,116.962 126.600 C 117.129 128.090,117.514 129.303,117.977 129.800 C 118.387 130.240,119.940 131.905,121.427 133.500 C 122.914 135.095,124.339 136.400,124.593 136.400 C 124.848 136.400,125.434 136.835,125.897 137.367 C 127.549 139.268,136.038 139.305,138.781 137.424 C 139.561 136.888,140.692 136.331,141.292 136.184 C 143.102 135.742,147.098 131.554,147.437 129.743 C 147.595 128.894,148.075 127.727,148.503 127.148 C 149.160 126.258,149.314 125.190,149.499 120.235 C 149.620 117.011,149.870 114.280,150.056 114.166 C 150.561 113.853,167.920 113.685,169.356 113.978 C 170.511 114.214,170.618 114.381,170.857 116.320 C 170.998 117.469,171.378 118.812,171.700 119.304 C 172.023 119.797,172.420 121.612,172.581 123.338 C 172.793 125.592,173.087 126.687,173.628 127.228 C 174.043 127.643,174.630 128.575,174.933 129.300 C 175.565 130.815,178.080 133.430,180.029 134.600 C 180.762 135.040,181.730 135.622,182.181 135.894 C 182.631 136.166,183.653 136.391,184.451 136.394 C 185.249 136.397,186.549 136.670,187.338 137.000 C 189.157 137.760,192.364 137.753,193.376 136.987 C 193.804 136.664,194.904 136.400,195.821 136.400 C 197.068 136.400,197.867 136.101,198.980 135.216 C 199.800 134.565,200.801 133.927,201.206 133.798 C 201.611 133.670,202.309 132.943,202.757 132.182 C 203.206 131.422,203.737 130.800,203.938 130.800 C 204.505 130.800,205.115 128.831,205.342 126.269 C 205.456 124.987,205.833 123.505,206.180 122.975 C 206.527 122.445,206.908 120.884,207.027 119.506 C 207.546 113.481,206.130 114.038,221.150 113.947 L 232.099 113.880 233.399 115.428 C 234.502 116.742,234.733 117.390,234.928 119.706 C 235.065 121.340,235.467 122.949,235.931 123.718 C 236.357 124.423,236.828 125.858,236.979 126.908 C 237.178 128.306,237.512 128.986,238.226 129.454 C 238.762 129.805,239.200 130.320,239.200 130.598 C 239.200 131.038,240.316 132.245,243.400 135.140 C 243.840 135.553,244.624 136.024,245.141 136.186 C 245.659 136.348,246.739 136.929,247.541 137.477 C 249.488 138.809,256.013 138.730,257.885 137.352 C 258.498 136.901,259.540 136.399,260.200 136.237 C 260.860 136.075,261.890 135.461,262.488 134.871 C 266.902 130.527,266.931 130.488,267.244 128.286 C 267.408 127.139,267.555 123.455,267.571 120.100 C 267.597 114.701,267.676 114.000,268.262 114.000 C 268.626 114.000,269.491 113.568,270.183 113.040 C 271.371 112.134,271.864 112.065,279.020 111.792 C 283.189 111.634,286.870 111.342,287.200 111.144 C 287.761 110.807,290.057 110.900,295.120 111.462 M142.400 153.800 C 141.655 154.350,140.831 154.800,140.571 154.800 C 139.889 154.800,136.800 157.891,136.800 158.573 C 136.800 158.888,136.459 159.254,136.043 159.386 C 133.977 160.042,134.296 172.011,136.419 173.498 C 136.848 173.799,137.200 174.311,137.200 174.636 C 137.200 174.961,137.830 175.599,138.600 176.053 C 139.370 176.507,140.000 177.019,140.000 177.191 C 140.000 179.165,153.574 179.173,154.200 177.199 C 154.340 176.760,154.733 176.400,155.073 176.400 C 155.735 176.400,158.400 173.711,158.400 173.043 C 158.400 172.823,158.895 171.929,159.500 171.056 C 160.979 168.921,161.121 163.037,159.731 161.513 C 159.273 161.011,158.675 159.903,158.402 159.050 C 158.128 158.197,157.589 157.418,157.201 157.316 C 156.814 157.215,156.304 156.707,156.067 156.186 C 155.790 155.580,155.077 155.090,154.081 154.822 C 153.226 154.592,152.201 154.043,151.802 153.602 C 150.616 152.292,144.263 152.426,142.400 153.800 M151.791 154.557 C 154.581 155.882,158.000 158.730,158.000 159.731 C 158.000 160.006,158.371 160.944,158.825 161.815 C 161.414 166.786,159.302 172.517,153.159 177.189 C 151.959 178.102,151.516 178.179,147.404 178.189 L 142.949 178.200 140.622 176.600 C 135.213 172.880,133.047 163.826,136.584 159.716 C 142.067 153.346,146.250 151.927,151.791 154.557 M282.224 154.213 C 281.796 154.536,280.986 154.802,280.424 154.805 C 278.741 154.814,277.640 155.244,277.406 155.982 C 277.284 156.365,276.733 156.884,276.181 157.136 C 275.629 157.387,275.059 157.902,274.914 158.280 C 274.769 158.658,274.228 159.335,273.713 159.784 C 273.042 160.368,272.707 161.197,272.533 162.697 C 272.399 163.850,272.044 164.997,271.745 165.246 C 271.050 165.822,271.047 167.659,271.737 169.313 C 272.033 170.021,272.408 171.320,272.571 172.200 C 273.021 174.630,275.915 178.091,277.915 178.593 C 278.512 178.742,279.305 179.192,279.678 179.592 C 281.091 181.108,288.031 181.113,289.401 179.599 C 289.776 179.184,290.627 178.726,291.292 178.580 C 293.014 178.202,295.937 174.981,296.249 173.118 C 296.385 172.304,296.835 171.331,297.248 170.956 C 298.353 169.956,298.322 165.317,297.200 163.891 C 296.760 163.331,296.400 162.406,296.400 161.833 C 296.400 161.223,295.904 160.274,295.200 159.537 C 294.540 158.846,294.000 158.119,294.000 157.920 C 294.000 157.721,293.460 157.370,292.800 157.140 C 292.140 156.910,291.600 156.465,291.600 156.151 C 291.600 155.486,290.017 154.801,288.474 154.798 C 287.883 154.796,286.884 154.526,286.254 154.198 C 284.814 153.446,283.229 153.452,282.224 154.213 M107.244 154.786 C 105.721 155.026,104.841 155.416,104.244 156.114 C 103.780 156.657,103.082 157.209,102.694 157.340 C 102.306 157.472,101.813 158.039,101.600 158.600 C 101.387 159.161,100.952 159.720,100.634 159.842 C 98.628 160.612,98.587 174.000,100.590 174.000 C 100.926 174.000,101.200 174.264,101.200 174.587 C 101.200 175.453,103.914 178.013,105.352 178.503 C 106.039 178.737,107.029 179.259,107.554 179.664 C 108.914 180.713,114.868 180.732,115.910 179.690 C 116.300 179.300,117.369 178.756,118.285 178.482 C 119.335 178.167,120.047 177.681,120.210 177.168 C 120.352 176.721,120.893 176.193,121.413 175.995 C 122.056 175.751,122.518 175.088,122.861 173.918 C 123.139 172.973,123.676 171.974,124.054 171.697 C 125.508 170.636,125.490 163.890,124.029 162.429 C 123.637 162.037,123.203 161.285,123.065 160.758 C 122.764 159.603,120.169 156.800,119.402 156.800 C 119.100 156.800,118.745 156.457,118.612 156.037 C 118.191 154.711,112.020 154.032,107.244 154.786 M211.856 154.804 C 210.076 155.032,209.277 155.356,208.540 156.152 C 208.005 156.728,207.299 157.200,206.971 157.200 C 206.643 157.200,206.257 157.515,206.112 157.900 C 205.967 158.285,205.343 159.077,204.725 159.660 C 204.083 160.265,203.600 161.144,203.600 161.707 C 203.600 162.249,203.203 163.197,202.717 163.814 C 201.471 165.399,201.485 169.907,202.743 171.608 C 203.214 172.246,203.600 173.141,203.600 173.597 C 203.600 174.053,204.230 175.057,205.000 175.827 C 205.770 176.597,206.400 177.383,206.400 177.574 C 206.400 177.765,206.977 178.123,207.683 178.369 C 208.388 178.615,209.379 179.205,209.885 179.680 C 211.469 181.168,220.800 181.084,220.800 179.581 C 220.800 179.368,221.510 178.909,222.378 178.562 C 228.636 176.058,229.978 163.041,224.507 157.912 C 220.884 154.514,218.572 153.947,211.856 154.804 M116.923 155.666 C 119.084 156.822,122.257 160.135,122.800 161.800 C 123.087 162.680,123.588 163.811,123.915 164.313 C 124.664 165.465,124.369 169.538,123.440 170.864 C 123.088 171.367,122.800 172.111,122.800 172.519 C 122.800 173.853,118.578 177.846,116.574 178.407 C 115.587 178.684,114.683 179.065,114.566 179.255 C 114.286 179.708,109.311 179.703,109.030 179.249 C 108.911 179.056,107.957 178.683,106.909 178.419 C 104.286 177.758,100.249 173.533,99.762 170.937 C 98.374 163.542,102.144 156.459,108.139 155.195 C 110.083 154.785,115.855 155.094,116.923 155.666 M218.292 155.162 C 220.644 155.617,223.507 157.711,225.400 160.361 L 227.000 162.600 227.000 167.624 C 227.000 172.382,226.947 172.714,226.000 173.899 C 225.450 174.587,224.661 175.632,224.247 176.221 C 223.832 176.810,222.752 177.631,221.847 178.046 C 220.941 178.460,219.851 179.070,219.424 179.400 C 218.523 180.096,212.022 180.262,211.365 179.605 C 211.148 179.388,210.153 178.803,209.154 178.305 C 204.952 176.211,200.613 166.599,203.160 165.025 C 203.358 164.903,203.725 163.944,203.977 162.896 C 204.816 159.400,209.223 155.721,213.200 155.195 C 216.241 154.794,216.383 154.793,218.292 155.162 M247.400 155.086 C 246.960 155.193,246.240 155.601,245.800 155.994 C 245.360 156.387,244.550 156.844,244.000 157.010 C 242.864 157.354,239.200 160.960,239.200 161.735 C 239.200 162.015,238.750 162.855,238.200 163.600 C 236.736 165.584,236.697 172.133,238.139 173.869 C 238.656 174.491,239.188 175.450,239.322 176.000 C 239.646 177.328,243.799 180.800,245.063 180.800 C 245.600 180.800,246.528 181.053,247.125 181.361 C 249.080 182.372,251.925 182.592,252.801 181.799 C 253.225 181.416,254.433 180.945,255.486 180.753 C 256.762 180.520,257.671 180.070,258.215 179.402 C 258.663 178.851,259.252 178.400,259.524 178.400 C 259.795 178.400,260.238 177.914,260.509 177.319 C 260.779 176.724,261.381 175.857,261.846 175.391 C 263.607 173.628,263.574 163.885,261.802 162.231 C 261.312 161.774,260.787 161.004,260.635 160.520 C 260.483 160.037,260.024 159.535,259.615 159.405 C 259.206 159.275,258.592 158.741,258.249 158.219 C 257.907 157.697,257.081 157.150,256.414 157.003 C 255.746 156.856,255.200 156.591,255.200 156.414 C 255.200 155.281,250.148 154.421,247.400 155.086 M289.200 155.572 C 295.386 158.328,298.098 164.957,295.986 172.162 C 295.457 173.967,291.934 177.901,290.532 178.253 C 290.019 178.382,288.930 178.828,288.114 179.244 C 285.444 180.605,282.107 180.099,277.617 177.652 C 274.176 175.777,272.049 170.565,272.596 165.349 C 273.078 160.757,276.912 155.988,280.800 155.145 C 282.656 154.742,287.941 155.011,289.200 155.572 M253.538 156.342 C 254.122 156.750,255.050 157.192,255.600 157.325 C 258.115 157.934,261.994 162.929,262.438 166.131 C 263.271 172.143,260.868 177.447,256.202 179.894 C 253.671 181.221,245.465 180.951,243.918 179.489 C 243.633 179.220,242.733 178.502,241.917 177.892 C 236.667 173.973,236.598 164.627,241.782 159.615 C 245.295 156.217,251.062 154.612,253.538 156.342 M175.125 158.200 C 174.647 158.750,173.949 159.200,173.574 159.200 C 173.200 159.200,172.245 159.965,171.453 160.900 C 170.660 161.835,169.604 163.020,169.106 163.533 C 167.832 164.845,167.518 174.236,168.680 176.242 C 170.249 178.949,171.298 180.400,171.687 180.400 C 171.911 180.400,172.692 180.924,173.422 181.565 C 175.805 183.658,185.322 183.858,187.000 181.851 C 187.440 181.324,188.205 180.770,188.700 180.620 C 189.195 180.469,189.600 180.180,189.600 179.976 C 189.600 179.773,190.140 179.125,190.800 178.537 C 191.460 177.949,192.000 177.130,192.000 176.718 C 192.000 176.305,192.405 175.420,192.900 174.750 C 194.195 172.999,194.229 167.336,192.952 165.932 C 192.486 165.420,191.978 164.465,191.823 163.812 C 191.551 162.669,188.323 159.200,187.531 159.200 C 187.320 159.200,186.557 158.750,185.836 158.200 C 184.627 157.278,184.193 157.200,180.260 157.200 C 176.209 157.200,175.951 157.250,175.125 158.200 M185.547 159.028 C 188.425 160.490,190.893 162.776,191.407 164.456 C 191.565 164.975,192.050 166.190,192.483 167.155 C 194.210 171.006,191.588 178.241,187.617 180.581 C 187.226 180.812,186.408 181.351,185.800 181.781 C 183.743 183.233,177.114 182.948,174.626 181.300 C 173.546 180.585,172.520 180.000,172.344 180.000 C 172.169 180.000,171.272 178.875,170.351 177.500 C 167.970 173.946,167.570 166.824,169.613 164.344 C 172.359 161.009,173.476 159.887,174.567 159.367 C 175.245 159.043,176.250 158.516,176.800 158.195 C 178.719 157.076,182.393 157.425,185.547 159.028 " stroke="none" fill="#cbecf4" fill-rule="evenodd"></path><path id="path4" d="M183.200 54.538 C 179.518 55.842,179.054 56.148,177.530 58.290 C 175.506 61.134,173.985 64.515,173.188 67.943 C 172.797 69.624,172.210 71.720,171.885 72.600 C 171.559 73.480,171.170 76.000,171.021 78.200 C 170.529 85.433,170.633 85.379,158.090 84.825 C 153.090 84.604,148.593 84.306,148.096 84.164 C 146.912 83.824,146.860 83.483,146.688 74.800 C 146.506 65.599,144.972 61.563,140.055 57.354 C 136.250 54.097,127.802 52.801,124.589 54.981 C 122.512 56.391,118.537 60.692,117.962 62.154 C 117.691 62.839,117.145 63.766,116.747 64.214 C 115.352 65.781,113.733 72.222,113.475 77.225 C 113.065 85.204,113.426 85.015,99.000 84.770 C 76.768 84.392,70.724 84.999,66.917 87.994 C 66.353 88.437,65.636 88.800,65.322 88.800 C 60.748 88.800,56.561 102.279,59.111 108.800 C 59.326 109.350,59.627 112.230,59.780 115.200 C 59.933 118.170,60.313 122.400,60.623 124.600 C 61.337 129.653,61.998 138.381,61.999 142.782 C 62.000 144.641,62.179 148.061,62.398 150.382 C 62.617 152.702,63.067 157.480,63.398 161.000 C 63.729 164.520,64.184 172.620,64.410 179.000 C 64.790 189.745,64.999 192.904,66.052 203.800 C 66.265 206.000,66.599 211.130,66.794 215.200 C 66.989 219.270,67.436 224.850,67.789 227.600 C 68.141 230.350,68.590 236.920,68.787 242.200 C 68.984 247.480,69.355 256.570,69.611 262.400 C 70.152 274.702,70.192 288.766,69.728 303.200 C 69.211 319.286,69.294 325.842,70.050 328.400 C 70.407 329.610,70.887 331.608,71.116 332.839 C 71.917 337.146,74.898 340.738,79.590 343.050 L 82.541 344.503 93.171 344.275 C 100.396 344.120,104.755 343.848,106.783 343.427 C 112.518 342.237,125.459 341.481,138.800 341.558 C 147.127 341.605,154.045 341.421,159.200 341.015 C 169.521 340.202,185.163 340.227,195.761 341.075 C 207.484 342.013,253.505 341.983,287.800 341.015 C 290.660 340.934,298.310 340.757,304.800 340.620 C 319.391 340.314,321.124 340.108,323.987 338.346 C 328.355 335.658,330.302 333.451,333.021 328.105 L 335.400 323.429 335.379 307.814 C 335.363 295.872,335.204 290.977,334.705 287.000 C 333.935 280.863,333.719 278.079,333.181 267.400 C 332.959 263.000,332.511 256.070,332.183 252.000 C 331.517 243.713,331.349 238.842,330.785 211.583 C 330.558 200.598,330.213 191.981,329.969 191.183 C 329.505 189.662,329.385 165.241,329.776 151.800 C 330.045 142.519,330.062 127.454,329.808 123.400 C 329.711 121.860,329.441 116.370,329.208 111.200 C 328.254 90.043,323.494 82.285,309.800 79.567 C 304.527 78.520,272.294 79.586,269.142 80.911 C 266.249 82.127,265.346 80.389,264.822 72.600 C 264.026 60.761,262.100 57.305,255.008 54.990 C 250.870 53.639,244.051 54.440,241.620 56.562 C 241.279 56.860,240.460 57.382,239.800 57.723 C 238.579 58.354,236.877 60.362,234.819 63.600 C 233.635 65.464,231.200 76.921,231.200 80.630 C 231.200 83.652,230.823 83.839,224.122 84.139 C 220.865 84.285,215.792 84.616,212.848 84.875 C 206.320 85.449,206.400 85.503,206.400 80.529 C 206.400 78.282,206.077 75.967,205.400 73.361 C 204.850 71.244,204.400 69.236,204.400 68.898 C 204.400 68.066,201.835 62.991,200.376 60.935 C 196.293 55.184,189.022 52.476,183.200 54.538 M189.978 54.989 C 190.604 55.312,191.842 55.693,192.730 55.835 C 194.032 56.043,194.907 56.647,197.245 58.947 C 201.154 62.792,201.476 63.199,201.787 64.681 C 201.934 65.386,202.405 66.407,202.833 66.951 C 203.341 67.597,203.760 69.095,204.040 71.270 C 204.276 73.102,204.713 75.230,205.012 76.000 C 205.311 76.770,205.621 79.057,205.700 81.083 C 205.930 86.938,205.966 86.954,215.600 85.413 C 217.690 85.079,221.847 84.804,224.838 84.803 C 231.310 84.799,231.470 84.707,231.837 80.770 C 231.969 79.356,232.325 77.480,232.628 76.600 C 232.932 75.720,233.369 73.215,233.599 71.033 C 234.066 66.617,234.350 65.200,234.769 65.200 C 234.925 65.200,235.360 64.553,235.737 63.763 C 236.611 61.930,239.163 58.866,240.050 58.584 C 240.424 58.466,241.374 57.856,242.161 57.231 C 243.173 56.427,244.261 56.010,245.870 55.809 C 247.123 55.652,248.565 55.366,249.074 55.172 C 250.905 54.476,256.862 56.069,259.010 57.830 C 262.476 60.670,263.594 63.930,263.989 72.352 L 264.315 79.304 265.960 80.948 L 267.604 82.592 269.502 81.848 C 272.197 80.791,278.854 80.406,296.400 80.295 L 311.400 80.200 313.493 81.300 C 314.644 81.905,315.839 82.400,316.149 82.400 C 317.729 82.400,323.271 87.824,324.214 90.292 C 324.573 91.232,325.019 92.000,325.206 92.000 C 325.393 92.000,325.856 93.395,326.235 95.100 C 326.614 96.805,327.176 98.802,327.483 99.537 C 328.375 101.672,328.829 118.345,328.720 145.000 C 328.579 179.531,328.668 185.608,329.571 203.000 C 330.017 211.580,330.562 227.060,330.783 237.400 C 331.079 251.248,331.335 256.780,331.754 258.400 C 332.067 259.610,332.434 263.660,332.570 267.400 C 333.117 282.480,333.298 285.557,333.852 289.200 C 335.568 300.466,335.563 320.752,333.844 324.400 C 333.274 325.610,332.806 326.887,332.804 327.238 C 332.802 327.589,332.447 328.196,332.015 328.586 C 331.583 328.977,331.018 329.941,330.758 330.728 C 330.355 331.949,329.223 333.246,326.000 336.181 C 325.670 336.481,324.860 336.958,324.200 337.240 C 323.540 337.522,322.581 338.123,322.068 338.576 C 321.041 339.484,310.229 339.823,271.600 340.157 C 262.010 340.241,254.176 340.488,252.400 340.764 C 248.575 341.357,213.720 341.424,208.400 340.848 C 198.835 339.811,186.859 339.491,170.400 339.831 C 161.270 340.019,147.320 340.190,139.400 340.209 C 128.980 340.235,124.756 340.378,124.118 340.727 C 123.614 341.002,120.011 341.389,115.718 341.628 C 111.583 341.859,106.760 342.331,105.000 342.677 C 96.108 344.425,84.379 344.485,81.000 342.800 C 79.680 342.142,78.382 341.602,78.115 341.602 C 77.430 341.599,74.497 338.553,73.739 337.055 C 73.389 336.365,72.858 335.519,72.557 335.174 C 72.257 334.830,71.734 332.760,71.396 330.574 C 71.057 328.389,70.596 325.520,70.370 324.200 C 70.078 322.492,70.102 319.954,70.453 315.400 C 71.242 305.163,71.171 261.795,70.358 257.128 C 70.178 256.099,69.739 248.179,69.381 239.528 C 68.926 228.521,68.571 223.440,68.197 222.600 C 67.838 221.794,67.515 217.850,67.212 210.600 C 66.800 200.710,66.559 197.542,65.599 189.400 C 65.418 187.860,65.155 182.100,65.015 176.600 C 64.716 164.885,64.107 154.858,63.555 152.600 C 63.340 151.720,62.925 145.330,62.634 138.400 C 62.227 128.731,61.958 125.474,61.478 124.400 C 60.874 123.049,60.243 114.927,59.773 102.459 C 59.535 96.169,60.081 94.407,63.185 91.447 C 64.481 90.211,65.841 89.200,66.209 89.200 C 66.576 89.200,67.399 88.828,68.038 88.373 C 68.677 87.918,71.405 86.998,74.100 86.329 L 79.000 85.113 88.600 85.366 C 93.880 85.506,99.010 85.817,100.000 86.059 C 101.839 86.509,105.786 86.185,110.194 85.224 C 113.252 84.557,113.670 83.916,114.041 79.327 C 114.216 77.167,114.529 74.590,114.736 73.600 C 116.036 67.403,116.504 65.736,117.148 65.012 C 117.546 64.565,118.094 63.633,118.367 62.940 C 118.641 62.246,119.300 61.270,119.832 60.770 C 120.364 60.270,120.800 59.651,120.800 59.394 C 120.800 59.138,121.234 58.730,121.765 58.489 C 122.296 58.247,122.834 57.723,122.961 57.324 C 124.043 53.915,135.338 54.272,139.305 57.841 C 141.655 59.955,143.526 62.486,144.227 64.499 C 144.553 65.434,145.117 66.830,145.480 67.600 C 145.994 68.692,146.180 70.651,146.322 76.494 C 146.546 85.691,145.825 84.906,154.348 85.233 C 158.007 85.374,161.507 85.694,162.126 85.945 C 164.189 86.779,166.817 86.497,169.081 85.199 C 171.428 83.853,171.422 83.869,171.758 77.800 C 171.895 75.321,172.201 73.730,172.740 72.690 C 173.171 71.860,173.651 70.085,173.806 68.747 C 173.968 67.351,174.551 65.433,175.173 64.252 C 175.769 63.119,176.375 61.833,176.519 61.396 C 176.951 60.085,179.394 57.035,180.432 56.511 C 183.969 54.726,188.174 54.056,189.978 54.989 M286.200 108.800 C 285.760 108.989,283.960 109.158,282.200 109.176 C 280.440 109.194,278.116 109.477,277.036 109.804 C 275.956 110.132,274.246 110.404,273.236 110.410 C 267.012 110.442,266.003 111.709,265.991 119.506 C 265.984 124.512,265.863 125.663,265.191 127.144 C 264.756 128.103,264.400 129.119,264.400 129.403 C 264.400 129.862,263.518 130.794,260.128 133.915 C 259.290 134.686,254.566 135.970,252.200 136.070 C 250.987 136.121,246.488 134.715,245.617 134.013 C 245.058 133.562,244.210 133.025,243.734 132.819 C 243.258 132.614,242.751 132.076,242.607 131.623 C 242.464 131.170,242.184 130.800,241.985 130.800 C 240.975 130.800,238.637 126.108,238.148 123.099 C 237.871 121.394,237.365 119.600,237.025 119.114 C 236.684 118.627,236.290 117.364,236.150 116.308 C 235.566 111.907,230.317 109.976,222.960 111.456 C 221.222 111.806,216.993 112.206,213.561 112.346 C 204.989 112.695,204.729 112.958,204.048 121.981 C 203.735 126.125,203.454 127.850,203.058 128.072 C 202.754 128.242,202.290 128.880,202.027 129.491 C 201.764 130.101,200.824 131.140,199.938 131.800 C 199.052 132.460,197.876 133.450,197.325 134.000 C 195.891 135.431,185.610 135.549,183.726 134.156 C 183.098 133.692,182.158 133.177,181.637 133.012 C 180.586 132.678,176.000 128.105,176.000 127.391 C 176.000 127.142,175.555 125.842,175.010 124.503 C 174.316 122.793,173.939 120.896,173.747 118.134 L 173.472 114.200 171.876 112.736 C 169.892 110.917,169.179 110.814,159.600 110.968 C 149.347 111.132,146.811 112.657,146.793 118.671 C 146.779 123.381,146.073 128.105,145.209 129.274 C 144.755 129.887,144.211 130.846,143.998 131.404 C 143.786 131.963,143.294 132.533,142.906 132.669 C 142.518 132.806,141.660 133.316,141.000 133.802 C 140.340 134.287,139.350 134.819,138.800 134.984 C 138.250 135.148,137.015 135.734,136.056 136.284 C 133.743 137.612,129.819 137.470,127.470 135.974 C 125.556 134.755,120.400 129.878,120.400 129.286 C 120.400 129.043,120.025 128.583,119.566 128.261 C 118.883 127.783,118.640 126.930,118.218 123.539 C 117.934 121.262,117.388 118.680,117.004 117.800 C 116.619 116.920,116.057 115.611,115.754 114.891 C 114.923 112.912,113.954 112.733,104.297 112.779 C 93.229 112.831,93.940 112.520,92.202 118.070 C 91.437 120.512,91.499 130.168,92.353 141.600 C 92.558 144.350,92.850 159.020,93.001 174.200 C 93.165 190.694,93.440 202.444,93.684 203.400 C 94.172 205.311,95.014 225.521,95.359 243.616 C 95.496 250.774,95.763 257.173,95.953 257.835 C 96.143 258.497,96.208 259.973,96.099 261.115 C 95.989 262.257,96.100 263.688,96.346 264.295 C 96.636 265.014,96.926 272.713,97.173 286.309 L 97.555 307.218 98.848 309.214 C 99.869 310.790,100.484 311.309,101.771 311.681 C 102.667 311.940,103.797 312.452,104.282 312.819 C 105.066 313.413,107.414 313.520,125.446 313.783 C 136.601 313.946,149.434 314.248,153.964 314.455 C 163.251 314.878,163.536 314.881,167.400 314.593 C 168.940 314.478,184.690 314.299,202.400 314.195 C 235.043 314.005,256.312 313.484,261.400 312.752 C 262.940 312.530,267.260 312.180,271.000 311.974 C 287.444 311.066,291.142 310.808,293.400 310.411 C 294.720 310.179,297.185 309.854,298.877 309.690 C 302.833 309.305,303.919 308.535,305.037 305.316 C 306.053 302.396,306.888 298.318,306.628 297.556 C 306.523 297.250,306.343 294.840,306.227 292.200 C 306.111 289.560,305.847 285.330,305.640 282.800 C 305.433 280.270,305.140 272.620,304.990 265.800 C 304.839 258.980,304.454 249.800,304.134 245.400 C 303.814 241.000,303.495 236.410,303.424 235.200 C 303.302 233.091,303.184 185.302,303.257 167.000 C 303.342 145.518,302.539 124.714,301.435 119.800 C 301.089 118.260,300.698 115.760,300.565 114.245 C 300.150 109.492,298.150 108.370,290.200 108.432 C 288.440 108.445,286.640 108.611,286.200 108.800 M298.138 110.580 C 299.112 111.323,299.638 112.087,299.761 112.939 C 302.206 129.827,302.371 134.480,302.529 191.000 C 302.649 234.109,302.780 243.949,303.324 250.800 C 303.951 258.684,304.481 270.521,305.026 288.800 C 305.167 293.530,305.360 297.528,305.455 297.684 C 305.549 297.839,305.345 299.721,305.000 301.864 C 303.987 308.161,303.018 308.933,295.600 309.361 C 293.510 309.482,289.814 309.841,287.387 310.160 C 284.960 310.479,279.470 310.860,275.187 311.008 C 270.904 311.156,264.160 311.542,260.200 311.866 C 256.240 312.190,251.110 312.607,248.800 312.791 C 246.490 312.976,232.090 313.165,216.800 313.211 C 201.510 313.257,183.420 313.409,176.600 313.548 C 169.780 313.687,157.810 313.663,150.000 313.495 C 142.190 313.327,128.960 313.055,120.600 312.891 C 111.765 312.718,105.151 312.427,104.806 312.196 C 104.479 311.978,103.409 311.530,102.429 311.200 C 98.284 309.804,98.277 309.754,97.584 277.200 C 97.375 267.410,96.937 255.530,96.611 250.800 C 96.284 246.070,95.833 234.190,95.608 224.400 C 95.384 214.610,95.027 205.430,94.815 204.000 C 94.603 202.570,94.242 191.590,94.013 179.600 C 93.783 167.610,93.413 152.850,93.191 146.800 C 92.320 123.139,92.631 116.249,94.655 114.348 C 96.007 113.079,112.202 112.853,114.071 114.078 C 115.348 114.915,117.039 119.855,117.668 124.588 C 118.209 128.651,121.496 132.837,127.020 136.496 C 129.322 138.021,135.275 138.053,137.400 136.552 C 138.060 136.086,139.050 135.570,139.600 135.405 C 144.721 133.867,146.948 129.879,147.582 121.114 C 148.110 113.801,149.763 111.925,155.600 112.011 C 156.590 112.026,159.957 112.021,163.083 112.000 C 171.601 111.943,172.104 112.334,173.213 119.885 C 174.283 127.176,176.685 131.074,181.932 134.039 C 185.948 136.307,195.220 136.481,197.995 134.340 C 198.665 133.823,199.746 132.983,200.397 132.473 C 203.586 129.974,204.323 127.952,205.030 119.768 C 205.250 117.223,205.536 116.202,206.373 114.968 L 207.436 113.400 214.218 113.155 C 217.948 113.021,222.134 112.681,223.521 112.399 C 230.405 111.002,234.499 112.642,235.633 117.250 C 235.981 118.664,236.555 120.627,236.908 121.611 C 237.262 122.595,237.661 124.237,237.794 125.259 C 238.410 129.976,247.022 137.200,252.028 137.200 C 253.813 137.200,259.768 135.134,261.141 134.038 C 265.817 130.308,266.541 128.486,266.579 120.357 C 266.619 111.532,266.660 111.497,277.864 110.621 C 282.040 110.294,285.894 109.840,286.428 109.612 C 288.562 108.700,296.538 109.360,298.138 110.580 M142.986 155.144 C 137.653 157.476,135.800 160.276,135.800 166.000 L 135.800 170.200 137.334 172.464 C 141.773 179.015,150.810 179.714,156.129 173.918 C 164.300 165.013,154.014 150.321,142.986 155.144 M150.769 155.787 C 157.339 157.535,160.563 168.132,155.959 172.842 C 155.321 173.494,154.800 174.189,154.800 174.387 C 154.800 174.584,154.397 174.874,153.905 175.030 C 153.413 175.186,152.334 175.762,151.508 176.309 C 148.424 178.349,142.853 177.172,139.441 173.759 C 131.065 165.384,139.076 152.675,150.769 155.787 M281.525 155.579 C 275.649 156.722,272.210 163.203,273.371 170.946 C 274.215 176.575,282.499 180.587,288.664 178.354 C 302.395 173.380,295.936 152.775,281.525 155.579 M105.389 157.129 C 97.033 162.598,98.492 175.287,107.794 178.058 C 121.478 182.133,129.533 165.122,117.800 156.928 C 116.337 155.906,115.840 155.800,112.000 155.681 L 107.800 155.551 105.389 157.129 M211.600 156.137 C 211.050 156.430,209.910 157.045,209.066 157.503 C 203.104 160.740,201.791 170.417,206.614 175.574 C 214.402 183.900,227.228 178.170,226.738 166.583 C 226.415 158.968,217.647 152.917,211.600 156.137 M116.504 157.088 C 116.997 157.539,117.805 158.031,118.300 158.181 C 118.796 158.331,119.409 158.847,119.664 159.327 C 119.919 159.807,120.442 160.424,120.827 160.697 C 123.629 162.687,122.669 171.523,119.282 174.910 L 116.910 177.282 113.507 177.494 C 107.663 177.859,103.813 176.440,102.697 173.511 C 102.531 173.074,102.001 172.164,101.520 171.488 C 98.999 167.948,101.359 160.163,105.611 157.994 C 106.485 157.548,107.200 157.019,107.200 156.818 C 107.200 155.687,115.228 155.920,116.504 157.088 M220.499 157.573 C 221.515 158.259,222.763 159.353,223.273 160.003 C 226.290 163.854,226.109 163.381,226.109 167.429 C 226.109 172.993,223.779 176.210,218.472 177.972 L 215.544 178.944 212.472 178.058 C 209.716 177.264,209.163 176.927,207.100 174.791 L 204.800 172.409 204.814 167.905 C 204.823 165.121,205.014 163.081,205.314 162.565 C 206.315 160.845,208.246 158.880,209.600 158.203 C 210.370 157.818,211.270 157.270,211.600 156.985 C 213.234 155.574,218.003 155.889,220.499 157.573 M247.097 157.069 C 232.414 162.630,238.222 183.335,253.542 180.050 C 260.522 178.553,264.332 169.660,260.740 163.249 C 259.532 161.092,256.653 158.053,255.785 158.017 C 255.556 158.008,254.703 157.660,253.889 157.245 C 251.410 155.982,250.062 155.947,247.097 157.069 M288.000 156.589 C 288.550 156.907,289.749 157.562,290.664 158.045 C 291.579 158.529,292.528 159.302,292.773 159.762 C 293.017 160.223,293.679 161.230,294.243 162.000 C 295.680 163.960,295.584 171.723,294.103 173.268 C 290.744 176.773,290.260 177.118,288.075 177.557 C 281.920 178.793,278.448 177.534,274.800 172.745 C 273.386 170.888,273.285 163.828,274.651 162.332 C 275.120 161.820,275.758 160.898,276.071 160.284 C 277.769 156.950,284.834 154.761,288.000 156.589 M253.648 158.034 C 255.596 158.530,259.005 161.367,259.798 163.152 C 260.151 163.949,260.698 165.050,261.014 165.600 C 261.330 166.150,261.588 167.590,261.588 168.800 C 261.588 170.010,261.330 171.450,261.014 172.000 C 260.698 172.550,260.145 173.665,259.785 174.478 C 259.393 175.363,258.221 176.648,256.865 177.678 L 254.600 179.400 250.048 179.400 C 245.772 179.400,245.461 179.346,244.900 178.500 C 244.571 178.005,244.110 177.600,243.875 177.600 C 242.628 177.600,240.513 174.320,239.997 171.583 C 238.770 165.084,241.733 159.570,247.314 157.964 C 249.738 157.266,250.671 157.277,253.648 158.034 M176.515 159.111 C 173.580 160.455,172.836 161.075,170.647 164.000 L 169.000 166.200 169.000 170.200 C 169.000 175.332,170.544 178.173,174.635 180.572 C 177.891 182.481,183.204 182.687,185.686 181.000 C 186.495 180.450,187.314 180.000,187.505 180.000 C 189.003 180.000,192.372 173.479,192.392 170.542 C 192.446 162.378,183.479 155.922,176.515 159.111 M183.106 159.600 C 184.016 160.040,185.027 160.400,185.352 160.400 C 186.026 160.400,189.131 163.280,190.143 164.845 C 191.790 167.389,191.254 175.822,189.366 177.059 C 188.852 177.396,188.322 178.015,188.189 178.436 C 188.055 178.856,187.715 179.200,187.433 179.200 C 187.151 179.200,186.128 179.737,185.160 180.393 C 183.122 181.774,179.054 182.086,177.200 181.005 C 176.650 180.684,175.590 180.134,174.844 179.782 C 170.262 177.621,167.800 169.395,170.600 165.600 C 171.150 164.855,171.600 164.067,171.600 163.851 C 171.600 163.020,174.684 160.677,176.483 160.140 C 177.518 159.832,178.474 159.404,178.606 159.190 C 179.009 158.539,181.351 158.753,183.106 159.600 " stroke="none" fill="#e4f4f7" fill-rule="evenodd"></path></g></svg>