<svg id="svg" version="1.1" xmlns="http://www.w3.org/2000/svg" xmlns:xlink="http://www.w3.org/1999/xlink" width="400" height="400" viewBox="0, 0, 400,400"><g id="svgg"><path id="path0" d="M255.202 20.998 C 254.929 21.326,254.792 22.046,254.897 22.598 C 255.075 23.529,254.973 23.604,253.445 23.661 C 250.800 23.759,250.594 23.811,250.710 24.348 C 250.770 24.629,250.632 24.744,250.403 24.602 C 250.174 24.461,250.101 24.160,250.241 23.934 C 250.388 23.695,250.187 23.582,249.762 23.664 C 249.337 23.746,248.872 24.352,248.656 25.103 C 248.328 26.248,248.116 26.403,246.842 26.429 C 246.049 26.445,244.320 26.544,243.000 26.650 C 241.680 26.755,240.275 26.843,239.879 26.844 C 239.442 26.846,239.184 27.114,239.225 27.523 C 239.262 27.895,239.271 33.465,239.246 39.900 L 239.200 51.600 238.080 51.600 C 236.659 51.600,236.000 52.259,236.000 53.680 L 236.000 54.800 228.010 54.800 L 220.020 54.800 220.260 53.600 C 220.419 52.807,220.339 52.400,220.026 52.400 C 219.766 52.400,219.647 52.247,219.763 52.060 C 219.878 51.874,219.420 51.705,218.745 51.686 C 217.126 51.640,217.235 51.972,217.172 46.880 L 217.116 42.400 215.558 42.400 C 214.007 42.400,214.000 42.393,214.000 40.800 C 214.000 39.920,213.865 39.221,213.700 39.247 C 211.694 39.564,210.520 39.153,210.703 38.198 C 211.025 36.511,210.208 36.000,207.189 36.000 L 204.476 36.000 204.692 32.849 C 204.936 29.290,204.592 26.745,203.879 26.835 C 201.953 27.076,201.600 26.821,201.600 25.184 L 201.600 23.568 197.000 23.627 L 192.400 23.686 192.400 25.019 C 192.400 26.548,191.967 26.932,190.301 26.885 C 189.248 26.855,189.138 26.962,189.307 27.848 C 189.558 29.161,188.633 30.074,187.371 29.757 C 186.813 29.617,186.400 29.689,186.400 29.926 C 186.400 30.474,184.429 32.800,183.964 32.800 C 183.764 32.800,183.600 32.609,183.600 32.376 C 183.600 32.143,183.767 32.056,183.971 32.182 C 184.175 32.308,184.458 32.046,184.600 31.600 C 184.742 31.154,185.006 30.880,185.187 30.992 C 185.368 31.104,185.619 30.926,185.746 30.598 C 185.873 30.264,185.754 30.000,185.476 30.000 C 184.581 30.000,183.200 31.227,183.200 32.023 C 183.200 32.599,182.916 32.805,182.100 32.820 C 177.577 32.903,176.931 33.165,176.731 35.000 C 176.635 35.877,176.365 36.233,175.729 36.324 C 174.006 36.569,173.800 37.358,173.800 43.697 C 173.800 50.005,173.978 50.593,176.105 51.302 C 176.604 51.468,176.850 57.283,176.379 57.754 C 176.258 57.876,175.595 58.018,174.907 58.071 C 174.218 58.123,173.727 58.282,173.815 58.425 C 173.903 58.567,173.536 59.096,173.000 59.600 C 172.464 60.104,172.091 60.625,172.171 60.758 C 172.313 60.992,163.030 61.075,157.500 60.890 L 154.800 60.800 154.800 58.144 C 154.800 56.100,154.639 55.356,154.100 54.914 C 153.715 54.599,153.639 54.463,153.931 54.613 C 154.321 54.813,154.427 54.594,154.331 53.783 C 154.204 52.715,153.763 52.294,152.300 51.841 C 151.682 51.651,151.595 51.001,151.557 46.313 C 151.495 38.568,151.740 39.367,149.400 39.250 C 148.489 39.204,148.400 39.040,148.400 37.400 C 148.400 35.964,148.258 35.594,147.700 35.568 C 147.282 35.550,147.201 35.456,147.500 35.335 C 148.212 35.048,148.120 33.731,147.367 33.443 C 146.391 33.068,145.525 33.155,145.800 33.600 C 145.936 33.820,145.857 34.000,145.624 34.000 C 145.285 34.000,144.958 31.191,145.148 29.914 C 145.171 29.757,144.921 29.732,144.591 29.859 C 144.198 30.010,144.060 29.901,144.191 29.545 C 144.502 28.701,143.348 27.624,140.600 26.193 C 140.160 25.964,139.565 25.287,139.278 24.688 C 138.765 23.618,138.694 23.600,134.992 23.600 C 131.638 23.600,131.182 23.513,130.800 22.800 C 130.262 21.795,129.677 21.788,128.626 22.776 C 128.067 23.301,127.129 23.582,125.723 23.646 C 124.581 23.698,123.658 23.844,123.671 23.970 C 123.994 27.078,123.524 30.001,122.700 30.006 C 120.520 30.021,120.479 30.240,120.415 42.300 C 120.401 44.992,120.339 45.200,119.544 45.200 C 119.073 45.200,118.430 45.515,118.114 45.900 C 117.799 46.285,117.672 46.347,117.832 46.038 C 118.030 45.658,117.967 45.573,117.638 45.776 C 117.371 45.941,117.208 46.547,117.276 47.121 C 117.385 48.038,117.211 48.211,115.863 48.532 C 114.536 48.847,114.350 49.026,114.505 49.836 C 114.607 50.373,114.520 50.674,114.302 50.539 C 114.074 50.399,113.957 51.091,114.011 52.251 C 114.062 53.323,114.080 55.055,114.052 56.100 L 114.000 58.000 112.400 58.000 C 111.067 58.000,110.800 57.867,110.800 57.200 C 110.800 55.007,110.033 54.843,99.733 54.846 C 89.559 54.849,89.200 54.917,89.200 56.849 C 89.200 57.925,89.096 58.000,87.600 58.000 C 85.966 58.000,85.681 57.528,85.970 55.300 C 86.014 54.959,85.412 54.800,84.082 54.800 C 82.392 54.800,82.068 54.666,81.678 53.811 C 80.926 52.162,79.248 52.037,77.996 53.538 L 76.942 54.800 67.471 54.800 C 60.735 54.800,58.000 54.930,58.000 55.249 C 58.000 55.559,57.815 55.544,57.400 55.200 C 56.904 54.789,56.800 54.828,56.800 55.427 C 56.800 56.104,56.762 56.101,56.227 55.376 C 55.753 54.734,55.563 54.691,55.127 55.127 C 54.691 55.563,54.734 55.753,55.376 56.227 C 56.101 56.762,56.104 56.800,55.427 56.800 C 54.828 56.800,54.789 56.904,55.200 57.400 C 55.637 57.927,55.178 58.000,51.423 58.000 C 46.498 58.000,45.600 58.314,45.600 60.038 C 45.600 60.756,45.435 61.145,45.193 60.996 C 43.537 59.972,39.200 61.724,39.200 63.416 C 39.200 64.105,39.031 64.310,38.599 64.144 C 37.267 63.633,36.052 64.340,36.088 65.607 C 36.134 67.220,36.356 67.141,31.388 67.278 C 26.258 67.421,26.852 66.514,26.530 74.700 C 26.326 79.889,26.302 80.000,25.410 80.000 C 23.822 80.000,23.629 80.731,23.717 86.421 L 23.800 91.800 24.800 91.843 C 25.350 91.867,25.991 91.912,26.226 91.943 C 26.495 91.979,26.587 92.881,26.478 94.397 C 26.346 96.212,26.472 97.050,26.994 97.846 C 27.373 98.425,27.484 98.776,27.241 98.626 C 26.681 98.279,26.664 99.398,27.214 100.426 C 27.452 100.870,28.049 101.200,28.614 101.200 L 29.600 101.200 29.643 114.500 C 29.666 121.815,29.711 128.160,29.743 128.600 C 29.787 129.223,30.132 129.427,31.300 129.524 L 32.800 129.648 32.846 136.724 C 32.871 140.616,32.860 144.115,32.821 144.500 C 32.780 144.898,33.019 145.200,33.375 145.200 C 33.719 145.200,34.000 145.391,34.000 145.624 C 34.000 145.857,33.820 145.936,33.600 145.800 C 33.155 145.525,33.068 146.391,33.443 147.367 C 33.731 148.119,35.056 148.213,35.315 147.500 C 35.775 146.238,36.010 150.796,36.101 162.715 C 36.208 176.621,36.169 176.379,38.300 176.394 L 39.200 176.400 39.258 198.100 C 39.290 210.035,39.274 220.405,39.222 221.145 C 39.144 222.249,39.373 222.693,40.499 223.621 L 41.871 224.752 42.176 240.476 C 42.344 249.124,42.473 256.470,42.462 256.800 C 42.393 258.924,42.882 260.032,44.119 260.556 L 45.400 261.098 44.271 261.400 C 41.794 262.061,41.634 268.175,44.058 269.553 C 45.163 270.182,45.195 270.294,45.197 273.500 C 45.200 276.992,45.130 277.096,42.959 276.843 C 42.240 276.760,41.937 284.507,42.241 295.236 C 42.464 303.127,42.415 305.143,41.998 305.401 C 41.633 305.627,41.573 305.568,41.798 305.203 C 42.047 304.801,41.859 304.749,40.964 304.973 C 39.614 305.312,39.212 305.823,39.212 307.200 C 39.212 307.992,39.293 308.075,39.600 307.600 C 39.931 307.087,39.989 307.102,39.994 307.700 C 39.997 308.085,39.803 308.400,39.562 308.400 C 39.262 308.400,39.171 309.758,39.274 312.700 L 39.424 317.000 40.720 316.963 C 42.207 316.920,42.384 317.299,42.517 320.800 L 42.600 323.000 43.900 322.941 C 45.303 322.877,45.481 323.442,45.223 327.130 C 45.161 328.021,45.373 328.659,45.865 329.060 C 46.269 329.390,46.340 329.523,46.021 329.357 C 45.690 329.184,45.839 329.612,46.371 330.359 C 46.882 331.077,47.547 331.758,47.850 331.874 C 48.259 332.031,48.398 332.972,48.391 335.543 L 48.383 339.000 47.091 339.600 C 45.127 340.513,45.132 343.906,47.100 344.772 C 48.447 345.365,48.631 346.004,48.410 349.320 C 48.312 350.795,49.032 351.600,50.449 351.600 C 51.531 351.600,51.602 351.702,51.637 353.300 C 51.727 357.485,51.684 357.366,53.167 357.489 C 54.891 357.631,54.734 357.325,54.877 360.810 C 54.995 363.686,55.038 363.802,56.000 363.843 C 56.550 363.867,57.225 363.912,57.500 363.943 C 57.808 363.978,58.000 364.621,58.000 365.622 L 58.000 367.243 62.464 367.172 L 66.928 367.101 67.373 368.451 C 67.757 369.612,67.989 369.793,69.043 369.748 C 70.306 369.695,70.353 369.772,70.424 372.040 C 70.452 372.912,70.662 373.096,71.728 373.181 C 73.998 373.362,84.909 373.359,88.400 373.177 L 91.800 373.000 91.925 371.700 L 92.051 370.400 96.325 370.344 C 98.676 370.313,101.286 370.330,102.125 370.381 C 103.826 370.484,106.800 368.839,106.800 367.794 C 106.800 367.274,142.890 366.761,149.320 367.190 C 150.795 367.288,151.600 366.568,151.600 365.151 L 151.600 364.000 162.500 363.973 C 175.723 363.941,178.240 363.830,178.940 363.250 C 179.345 362.914,179.803 362.963,180.773 363.447 C 182.716 364.416,184.938 363.926,186.460 362.192 L 187.683 360.800 202.441 360.800 L 217.200 360.800 217.200 361.951 C 217.200 363.318,217.977 364.072,219.266 363.958 C 219.780 363.913,225.192 363.904,231.292 363.938 L 242.385 364.000 242.638 365.011 C 242.778 365.566,243.276 366.236,243.746 366.499 C 244.809 367.094,257.417 367.474,257.062 366.901 C 256.925 366.679,257.224 366.592,257.767 366.696 C 259.049 366.941,260.317 366.194,260.472 365.101 L 260.600 364.200 273.300 364.094 L 286.000 363.989 286.000 365.180 C 286.000 367.187,290.882 368.212,292.286 366.500 C 292.601 366.115,292.737 366.039,292.587 366.331 C 292.386 366.723,292.610 366.827,293.445 366.731 C 294.322 366.629,294.655 366.317,294.935 365.337 C 295.632 362.889,301.600 363.147,301.600 365.624 L 301.600 367.200 315.500 367.206 C 330.130 367.213,330.200 367.220,330.200 368.800 C 330.200 369.600,330.400 369.800,331.200 369.800 C 331.750 369.800,332.335 369.980,332.500 370.200 C 332.700 370.467,332.900 370.467,333.100 370.200 C 333.265 369.980,333.850 369.800,334.400 369.800 C 335.245 369.800,335.388 369.628,335.323 368.691 C 335.281 368.081,335.401 367.677,335.589 367.793 C 335.778 367.910,335.995 367.814,336.073 367.580 C 336.151 367.347,337.201 367.148,338.407 367.139 C 341.339 367.116,342.076 366.683,341.922 365.074 C 341.815 363.960,341.911 363.815,342.684 363.922 C 344.147 364.125,345.307 363.274,345.094 362.155 C 344.875 361.012,345.266 360.695,346.959 360.640 C 348.119 360.603,348.200 360.502,348.200 359.104 C 348.200 357.832,348.364 357.551,349.299 357.225 C 349.903 357.015,350.607 356.383,350.863 355.821 C 351.341 354.772,352.097 354.604,355.500 354.790 C 356.245 354.831,356.800 354.667,356.800 354.407 C 356.800 354.157,356.959 354.051,357.154 354.171 C 357.349 354.292,357.534 352.381,357.567 349.895 C 357.628 345.285,357.636 345.260,359.443 344.170 C 359.973 343.851,360.231 342.979,360.448 340.770 C 360.930 335.864,360.817 267.903,360.326 267.311 C 360.078 267.012,360.062 266.800,360.286 266.800 C 360.498 266.800,360.694 266.163,360.724 265.384 C 360.755 264.541,360.617 264.066,360.382 264.211 C 360.165 264.345,360.108 264.651,360.255 264.889 C 360.410 265.140,360.339 265.209,360.087 265.054 C 359.847 264.905,359.374 264.230,359.036 263.552 C 358.512 262.502,358.509 262.392,359.011 262.809 C 359.335 263.078,359.614 263.591,359.632 263.949 C 359.653 264.383,359.732 264.429,359.869 264.087 C 359.982 263.805,359.784 263.130,359.428 262.587 C 359.073 262.044,358.921 261.603,359.091 261.606 C 359.704 261.618,360.311 262.216,360.507 263.000 C 360.617 263.440,360.728 262.855,360.754 261.700 C 360.801 259.544,359.926 258.000,358.658 258.000 C 357.940 258.000,357.607 254.361,357.603 246.487 C 357.600 239.961,357.210 238.113,355.630 237.126 C 354.534 236.442,354.299 214.000,355.387 214.000 C 355.737 214.000,355.885 213.764,355.752 213.419 C 355.441 212.610,355.909 211.990,356.623 212.264 C 357.083 212.441,357.115 212.621,356.761 213.047 C 356.479 213.386,356.459 213.600,356.708 213.600 C 356.932 213.600,357.224 213.315,357.357 212.967 C 357.719 212.025,357.651 211.521,357.201 211.800 C 356.678 212.123,356.871 210.293,357.400 209.911 C 358.010 209.471,357.073 208.223,356.015 208.066 C 355.378 207.972,355.202 208.079,355.417 208.428 C 355.615 208.747,355.559 208.822,355.262 208.638 C 354.712 208.299,354.639 206.800,355.171 206.800 C 355.826 206.800,356.853 205.515,356.640 204.961 C 356.527 204.667,356.635 204.302,356.879 204.151 C 357.167 203.973,357.210 204.061,357.000 204.400 C 356.789 204.741,356.833 204.827,357.124 204.647 C 357.449 204.446,357.549 196.772,357.486 176.685 L 357.400 149.000 356.100 148.617 L 354.800 148.235 354.800 144.436 C 354.800 140.693,354.819 140.619,356.100 139.298 C 357.337 138.022,357.403 137.799,357.462 134.679 C 357.496 132.875,357.646 125.736,357.794 118.812 L 358.065 106.225 359.454 104.687 L 360.844 103.149 360.798 99.075 C 360.665 87.272,360.804 82.800,361.305 82.800 C 361.583 82.800,361.988 82.407,362.205 81.926 C 362.422 81.445,362.830 81.009,363.110 80.956 C 363.391 80.903,363.434 80.952,363.208 81.064 C 362.981 81.176,362.914 81.461,363.059 81.696 C 363.216 81.949,363.135 82.007,362.862 81.838 C 362.608 81.681,362.400 81.743,362.400 81.976 C 362.400 82.657,363.138 82.464,363.561 81.672 C 364.043 80.772,364.051 66.585,363.570 65.320 C 363.311 64.640,362.905 64.400,362.010 64.400 C 360.866 64.400,360.800 64.313,360.800 62.808 C 360.800 61.114,359.816 60.441,358.025 60.909 C 357.472 61.054,357.199 60.850,357.026 60.161 C 356.731 58.988,354.901 58.000,353.020 58.000 C 351.595 58.000,351.317 57.504,351.551 55.382 C 351.577 55.152,350.930 54.918,350.114 54.863 C 348.290 54.741,348.484 55.038,348.372 52.200 C 348.320 50.880,348.080 49.540,347.839 49.223 C 347.490 48.765,347.523 48.717,348.000 48.987 C 348.358 49.191,348.465 49.181,348.264 48.964 C 347.926 48.597,347.688 48.572,343.500 48.461 C 341.758 48.415,341.200 48.256,341.200 47.805 C 341.200 46.088,338.477 45.308,332.797 45.396 C 326.767 45.491,326.572 45.505,326.901 45.834 C 327.029 45.963,326.952 46.593,326.728 47.234 C 326.315 48.421,324.263 48.742,319.168 48.419 C 317.915 48.340,317.096 49.227,317.271 50.476 L 317.400 51.400 311.100 51.510 L 304.800 51.620 304.800 50.610 C 304.800 50.055,304.620 49.600,304.400 49.600 C 304.180 49.600,304.045 49.390,304.100 49.133 C 304.173 48.790,301.889 48.643,295.505 48.580 C 289.580 48.521,286.892 48.626,287.067 48.909 C 287.219 49.154,287.128 49.203,286.844 49.027 C 286.581 48.864,286.093 48.957,285.760 49.233 C 285.267 49.643,285.178 49.630,285.277 49.168 C 285.360 48.787,284.973 48.559,284.100 48.475 L 282.800 48.349 282.757 43.075 C 282.695 35.386,282.948 36.172,280.500 36.046 C 279.722 36.006,279.600 35.780,279.600 34.376 C 279.600 33.369,279.444 32.849,279.190 33.006 C 278.635 33.349,275.869 30.535,276.214 29.978 C 276.381 29.707,276.198 29.566,275.744 29.614 C 273.995 29.798,273.634 29.588,273.381 28.237 C 273.163 27.077,272.923 26.837,271.763 26.619 C 270.525 26.387,270.400 26.237,270.400 24.982 C 270.400 24.222,270.232 23.600,270.027 23.600 C 269.822 23.600,269.539 23.238,269.399 22.796 C 268.891 21.196,265.231 20.119,262.437 20.747 C 261.473 20.964,260.704 20.968,260.574 20.758 C 260.189 20.135,255.754 20.333,255.202 20.998 M260.970 21.700 C 261.337 22.195,261.551 22.412,261.446 22.183 C 261.341 21.954,261.625 21.738,262.078 21.704 C 262.872 21.644,262.868 21.676,261.965 22.637 L 261.030 23.633 260.700 22.716 C 260.518 22.212,260.072 21.575,259.708 21.300 C 259.127 20.860,259.122 20.800,259.675 20.800 C 260.020 20.800,260.603 21.205,260.970 21.700 M266.545 21.766 C 266.816 21.662,267.466 22.032,267.989 22.588 C 268.930 23.589,268.931 23.600,268.088 23.600 C 267.182 23.600,265.115 21.819,265.534 21.399 C 265.671 21.262,265.844 21.331,265.918 21.553 C 265.991 21.774,266.274 21.870,266.545 21.766 M143.378 29.636 C 143.013 30.227,142.000 29.535,142.000 28.695 C 142.000 27.905,142.028 27.901,142.791 28.591 C 143.225 28.985,143.490 29.455,143.378 29.636 M123.545 30.567 C 122.800 31.205,121.641 31.559,121.819 31.094 C 121.930 30.805,122.397 30.540,122.856 30.506 C 123.315 30.471,123.625 30.499,123.545 30.567 M175.976 37.900 C 175.446 38.505,174.904 39.141,174.772 39.314 C 174.640 39.487,174.557 39.277,174.589 38.848 C 174.664 37.830,175.534 36.800,176.319 36.800 C 176.797 36.800,176.718 37.053,175.976 37.900 M339.595 47.089 C 340.526 47.885,340.631 48.400,339.864 48.400 C 339.570 48.400,339.123 47.950,338.873 47.400 C 338.336 46.222,338.500 46.151,339.595 47.089 M176.133 49.599 C 175.900 49.834,174.800 48.415,174.800 47.879 C 174.800 47.677,175.145 47.936,175.566 48.456 C 175.987 48.975,176.242 49.490,176.133 49.599 M80.571 53.829 C 81.469 54.726,81.391 54.800,79.538 54.800 C 77.901 54.800,77.887 54.788,78.600 54.000 C 79.473 53.035,79.754 53.011,80.571 53.829 M90.686 56.120 C 90.199 56.626,89.726 56.987,89.636 56.923 C 89.402 56.755,90.858 55.200,91.248 55.200 C 91.426 55.200,91.173 55.614,90.686 56.120 M113.300 58.682 C 112.805 58.778,111.995 58.778,111.500 58.682 C 111.005 58.587,111.410 58.509,112.400 58.509 C 113.390 58.509,113.795 58.587,113.300 58.682 M362.602 65.602 C 363.625 66.732,363.190 66.837,362.114 65.720 C 361.627 65.214,361.374 64.800,361.552 64.800 C 361.730 64.800,362.203 65.161,362.602 65.602 M363.483 79.695 C 363.387 80.193,363.305 79.880,363.301 79.000 C 363.296 78.120,363.375 77.713,363.475 78.095 C 363.575 78.478,363.579 79.198,363.483 79.695 M223.612 79.806 C 226.020 81.018,227.023 81.270,230.902 81.629 C 236.685 82.166,236.743 82.163,239.699 81.165 C 241.645 80.509,242.710 80.379,244.496 80.580 C 248.934 81.080,249.576 81.621,250.204 85.386 C 250.350 86.259,250.716 87.451,251.018 88.035 C 251.451 88.872,251.478 89.556,251.146 91.249 C 250.360 95.251,250.245 104.873,250.963 106.428 C 251.856 108.361,254.294 111.299,255.545 111.948 C 256.125 112.249,257.050 112.909,257.600 113.415 C 258.150 113.921,259.612 114.780,260.849 115.323 C 262.086 115.866,263.224 116.515,263.378 116.764 C 263.532 117.014,264.680 117.754,265.929 118.410 C 267.178 119.065,268.666 119.974,269.235 120.430 C 269.924 120.982,270.928 121.283,272.235 121.330 L 274.200 121.400 275.228 119.244 C 276.306 116.982,276.312 115.293,275.252 112.667 C 274.985 112.004,274.815 109.514,274.845 106.667 C 274.897 101.574,274.368 98.580,272.810 95.146 C 271.769 92.851,271.800 92.026,272.990 90.413 C 273.535 89.675,274.259 88.114,274.599 86.945 C 275.447 84.028,275.934 83.834,281.688 84.124 L 286.416 84.361 289.069 82.979 C 293.949 80.435,299.825 80.195,302.632 82.425 C 303.443 83.070,304.758 83.774,305.554 83.988 C 306.349 84.202,307.900 84.651,309.000 84.984 C 310.100 85.318,312.322 85.593,313.938 85.596 C 322.028 85.608,324.805 88.250,325.664 96.752 C 325.900 99.088,326.344 101.801,326.650 102.781 C 327.549 105.657,328.371 113.919,328.761 124.000 C 329.062 131.787,329.268 133.838,329.962 135.952 C 330.791 138.477,331.027 140.943,330.557 142.167 C 330.180 143.149,326.342 143.041,325.421 142.023 C 325.034 141.595,324.221 141.136,323.615 141.003 C 323.009 140.870,321.542 140.135,320.356 139.369 C 319.170 138.603,317.390 137.731,316.400 137.430 C 315.410 137.130,312.350 135.733,309.600 134.326 C 303.062 130.982,299.629 131.379,294.858 136.032 C 294.276 136.600,293.215 137.467,292.500 137.959 C 289.643 139.926,292.393 145.320,297.000 146.787 C 297.880 147.067,299.069 147.733,299.641 148.267 C 300.656 149.213,304.560 150.901,309.400 152.487 C 310.720 152.919,313.303 153.797,315.141 154.436 C 316.978 155.076,318.868 155.604,319.341 155.609 C 320.391 155.620,323.208 156.865,324.022 157.679 C 324.350 158.007,325.344 158.734,326.233 159.294 C 327.459 160.069,327.974 160.733,328.373 162.057 C 329.122 164.538,330.003 176.196,329.559 177.744 C 329.006 179.671,329.132 182.540,329.845 184.245 C 330.384 185.537,330.546 188.667,330.836 203.451 C 331.197 221.816,331.725 233.569,332.376 237.755 C 333.571 245.432,333.471 253.772,331.976 271.000 C 331.692 274.275,331.605 280.938,331.743 289.000 C 332.179 314.557,330.888 329.026,328.063 330.224 C 327.698 330.379,324.340 330.552,320.600 330.610 C 316.860 330.667,309.750 330.928,304.800 331.188 C 299.850 331.449,291.480 331.694,286.200 331.731 C 277.080 331.797,276.540 331.843,275.396 332.659 C 273.162 334.252,271.165 334.494,260.800 334.424 C 240.320 334.287,232.449 334.567,229.935 335.522 C 226.770 336.724,218.989 337.186,194.400 337.633 C 183.290 337.834,173.840 338.027,173.400 338.060 C 172.960 338.093,167.470 337.913,161.200 337.661 C 154.930 337.408,146.110 337.198,141.600 337.195 C 133.249 337.188,133.046 337.157,130.750 335.517 C 129.954 334.949,128.470 334.799,121.922 334.622 C 114.342 334.418,113.928 334.364,110.726 333.162 C 106.807 331.692,102.474 331.448,99.851 332.549 C 97.775 333.421,95.932 333.369,94.275 332.391 C 93.205 331.760,91.803 331.513,87.883 331.266 C 81.533 330.866,81.782 331.101,81.449 325.205 C 81.131 319.581,81.067 319.359,79.528 318.563 C 78.175 317.863,76.888 315.227,76.532 312.425 C 76.404 311.421,76.036 309.610,75.714 308.400 C 75.339 306.993,75.024 302.954,74.839 297.200 C 74.618 290.301,74.401 287.856,73.907 286.728 C 73.201 285.112,72.235 280.642,71.597 276.043 C 71.371 274.416,70.817 272.256,70.365 271.243 C 69.746 269.855,69.457 268.017,69.195 263.800 C 68.923 259.443,68.617 257.554,67.816 255.288 C 66.331 251.089,64.865 230.293,65.871 227.696 C 66.064 227.197,66.078 225.224,65.902 223.296 C 65.727 221.373,65.593 211.761,65.604 201.935 C 65.621 187.320,65.506 183.282,64.968 179.735 C 64.476 176.483,64.374 174.033,64.560 169.927 C 64.813 164.355,64.304 159.107,63.014 154.000 C 62.127 150.490,61.655 145.204,62.014 142.800 C 62.194 141.590,62.355 138.826,62.371 136.658 C 62.388 134.401,62.677 131.665,63.047 130.258 C 63.599 128.164,63.627 127.267,63.235 124.200 C 62.983 122.220,62.826 118.980,62.888 117.000 C 62.950 115.020,62.843 112.033,62.651 110.363 L 62.301 107.326 63.651 105.910 C 67.339 102.041,68.016 99.606,66.626 95.206 C 64.792 89.401,65.483 85.862,68.669 84.747 C 70.911 83.962,97.868 84.080,106.961 84.915 L 113.722 85.535 115.961 87.071 C 118.070 88.519,118.206 88.712,118.301 90.404 C 118.357 91.392,118.672 94.990,119.001 98.400 C 119.331 101.810,119.701 105.651,119.824 106.935 C 119.947 108.219,120.387 110.379,120.802 111.735 C 121.216 113.091,121.760 115.460,122.009 117.000 C 122.943 122.767,123.991 124.369,128.011 126.173 C 131.206 127.606,133.326 127.636,135.913 126.284 C 137.053 125.688,138.263 125.200,138.602 125.200 C 138.941 125.200,140.703 123.775,142.517 122.034 C 144.428 120.199,146.526 118.583,147.507 118.190 C 148.438 117.818,149.200 117.383,149.200 117.223 C 149.200 117.064,149.803 116.318,150.541 115.567 C 152.833 113.229,153.408 107.869,152.381 98.400 C 151.189 87.409,151.527 85.817,155.510 83.687 L 157.965 82.374 160.505 82.963 C 163.488 83.655,166.330 83.783,170.200 83.399 C 173.414 83.080,179.710 84.013,180.761 84.965 C 183.063 87.048,184.164 91.667,183.200 95.200 C 182.887 96.347,182.805 98.016,182.973 99.800 C 183.118 101.340,183.401 104.400,183.603 106.600 C 183.805 108.800,184.162 112.435,184.397 114.677 C 184.691 117.472,184.698 119.543,184.421 121.264 C 183.687 125.821,184.626 127.402,187.918 127.153 C 188.733 127.092,192.190 127.186,195.600 127.364 C 204.633 127.834,205.360 127.480,209.308 120.702 C 209.918 119.656,210.585 118.800,210.791 118.800 C 210.998 118.800,211.643 117.986,212.226 116.991 C 212.810 115.996,213.628 114.999,214.044 114.776 C 216.050 113.703,216.328 111.210,214.962 106.545 C 213.447 101.370,213.159 98.869,213.909 97.402 C 214.652 95.950,214.628 94.510,213.808 91.377 C 212.430 86.108,214.678 80.245,218.600 78.881 C 220.405 78.253,220.599 78.289,223.612 79.806 M360.283 100.095 C 360.187 100.593,360.105 100.280,360.101 99.400 C 360.096 98.520,360.175 98.113,360.275 98.495 C 360.375 98.878,360.379 99.598,360.283 100.095 M359.618 103.166 C 359.373 103.625,358.990 104.000,358.767 104.000 C 358.545 104.000,358.686 103.568,359.081 103.039 C 359.931 101.903,360.253 101.979,359.618 103.166 M356.412 137.178 C 356.170 137.630,355.770 138.000,355.524 138.000 C 355.271 138.000,355.365 137.681,355.738 137.269 C 356.102 136.866,356.414 136.281,356.432 135.969 C 356.452 135.593,356.529 135.562,356.658 135.878 C 356.764 136.141,356.654 136.726,356.412 137.178 M217.560 143.997 C 214.273 144.252,212.874 144.552,211.335 145.332 C 208.966 146.532,206.147 147.056,200.109 147.417 C 195.362 147.702,195.377 147.696,191.741 150.609 C 189.161 152.676,189.585 160.520,192.358 162.026 C 193.151 162.457,194.675 163.437,195.744 164.205 C 198.287 166.031,201.691 165.890,203.927 163.866 C 204.297 163.531,205.860 163.048,207.400 162.793 C 212.470 161.954,216.182 161.129,217.400 160.570 C 218.060 160.268,219.401 159.741,220.381 159.399 C 221.505 159.008,223.215 157.786,225.016 156.089 C 226.586 154.610,228.465 153.040,229.190 152.600 C 229.916 152.160,231.070 151.015,231.755 150.057 L 233.000 148.313 231.400 146.920 C 227.922 143.890,225.507 143.380,217.560 143.997 M262.400 147.249 C 259.870 147.434,256.810 147.872,255.600 148.223 C 254.390 148.574,251.600 149.276,249.400 149.784 C 244.068 151.014,244.109 150.990,243.671 153.046 C 242.873 156.786,243.772 158.268,248.215 160.546 C 252.445 162.714,253.706 162.834,270.970 162.714 C 288.293 162.593,288.042 162.633,288.558 159.885 C 288.695 159.153,289.166 157.852,289.604 156.993 C 291.455 153.361,290.398 150.000,287.404 150.000 C 286.383 150.000,285.246 149.600,284.004 148.803 C 280.867 146.790,274.742 146.349,262.400 147.249 M74.600 149.242 C 73.702 149.642,72.062 151.024,70.861 152.395 L 68.721 154.836 71.861 157.854 C 75.755 161.597,75.964 161.702,81.600 162.735 C 92.952 164.814,98.459 164.598,106.258 161.768 C 109.800 160.482,111.431 155.222,108.700 153.894 C 100.334 149.824,79.635 147.000,74.600 149.242 M136.131 150.750 C 133.894 150.888,132.002 151.090,131.927 151.200 C 131.853 151.310,131.198 152.167,130.473 153.105 C 127.892 156.442,128.644 157.985,134.800 161.978 C 135.790 162.620,137.050 163.536,137.600 164.013 C 138.150 164.490,139.622 165.398,140.871 166.031 C 142.120 166.664,143.248 167.354,143.378 167.565 C 143.509 167.776,144.610 168.320,145.825 168.775 C 147.040 169.230,148.532 169.969,149.140 170.419 C 149.747 170.868,151.306 171.512,152.603 171.851 C 153.900 172.190,155.961 172.980,157.181 173.607 C 161.853 176.005,166.456 175.978,168.651 173.539 C 169.063 173.081,170.367 172.278,171.550 171.753 C 174.109 170.618,173.944 167.959,171.093 164.382 C 170.428 163.548,164.657 159.600,164.103 159.600 C 163.860 159.600,163.148 159.168,162.522 158.641 C 161.895 158.113,160.231 157.125,158.825 156.443 C 157.419 155.762,155.983 154.957,155.634 154.653 C 155.285 154.350,154.280 153.874,153.400 153.596 C 152.520 153.318,150.730 152.539,149.423 151.865 C 146.765 150.494,144.038 150.265,136.131 150.750 M357.089 173.300 C 357.001 174.015,356.928 173.430,356.928 172.000 C 356.928 170.570,357.001 169.985,357.089 170.700 C 357.178 171.415,357.178 172.585,357.089 173.300 M356.000 204.751 C 356.000 204.944,355.730 205.326,355.400 205.600 C 354.773 206.120,354.468 205.266,355.067 204.667 C 355.447 204.287,356.000 204.337,356.000 204.751 M356.582 240.029 C 356.456 240.233,356.554 240.400,356.800 240.400 C 357.046 240.400,357.143 240.568,357.016 240.774 C 356.653 241.362,354.799 239.264,354.813 238.282 C 354.825 237.437,354.867 237.447,355.818 238.529 C 356.365 239.150,356.708 239.825,356.582 240.029 M357.076 243.500 C 356.975 243.885,356.893 243.570,356.893 242.800 C 356.893 242.030,356.975 241.715,357.076 242.100 C 357.176 242.485,357.176 243.115,357.076 243.500 M44.397 258.922 C 45.144 259.774,45.211 259.979,44.676 259.774 C 44.288 259.625,43.687 258.940,43.340 258.252 C 42.993 257.563,42.867 257.180,43.060 257.400 C 43.254 257.620,43.855 258.305,44.397 258.922 M360.064 259.291 C 360.701 260.294,360.576 260.410,358.700 260.560 C 358.420 260.582,358.192 260.134,358.182 259.539 C 358.163 258.398,359.395 258.236,360.064 259.291 M358.588 259.620 C 358.207 260.235,358.728 260.632,359.242 260.118 C 359.529 259.831,359.536 259.607,359.262 259.439 C 359.039 259.300,358.735 259.382,358.588 259.620 M44.531 263.001 C 43.654 263.642,43.752 266.663,44.684 267.692 C 45.053 268.100,45.134 268.400,44.876 268.400 C 44.225 268.400,43.600 267.041,43.600 265.626 C 43.600 264.915,43.390 264.397,43.100 264.394 C 42.761 264.390,42.790 264.268,43.188 264.016 C 43.512 263.811,43.649 263.515,43.492 263.359 C 43.047 262.914,43.990 262.021,44.641 262.271 C 45.128 262.458,45.109 262.578,44.531 263.001 M40.808 306.190 C 40.530 306.526,40.099 306.786,39.851 306.768 C 39.570 306.749,39.589 306.660,39.902 306.534 C 40.179 306.423,40.286 306.139,40.141 305.904 C 39.984 305.651,40.065 305.593,40.338 305.762 C 40.592 305.919,40.800 305.827,40.800 305.557 C 40.800 305.287,40.916 305.182,41.057 305.324 C 41.198 305.465,41.086 305.855,40.808 306.190 M48.400 330.509 C 48.400 331.299,48.375 331.301,47.600 330.600 C 47.160 330.202,46.800 329.741,46.800 329.575 C 46.800 329.410,47.160 329.369,47.600 329.484 C 48.070 329.607,48.400 330.030,48.400 330.509 M178.615 361.976 C 178.469 362.212,177.776 362.685,177.075 363.026 L 175.800 363.646 177.197 362.454 C 178.551 361.299,179.160 361.094,178.615 361.976 M245.353 365.725 C 245.993 366.185,246.008 366.267,245.453 366.267 C 245.094 366.267,244.800 366.087,244.800 365.867 C 244.800 365.647,244.682 365.585,244.537 365.730 C 244.108 366.159,243.228 365.192,243.471 364.559 C 243.665 364.054,243.755 364.057,244.147 364.580 C 244.396 364.911,244.939 365.427,245.353 365.725 M259.532 365.482 C 259.299 365.762,258.950 365.893,258.755 365.772 C 258.560 365.651,258.400 365.754,258.400 366.000 C 258.400 366.246,258.210 366.330,257.978 366.186 C 257.716 366.025,257.907 365.593,258.478 365.055 C 259.425 364.161,260.325 364.526,259.532 365.482 M106.000 367.511 C 106.000 367.682,105.640 368.130,105.200 368.507 C 104.388 369.202,104.203 368.978,104.643 367.833 C 104.887 367.196,106.000 366.932,106.000 367.511 M109.691 368.092 C 107.884 368.963,108.279 372.445,110.214 372.697 C 110.880 372.784,110.865 372.741,110.112 372.417 C 108.215 371.600,108.442 369.091,110.494 368.199 C 111.212 367.887,111.530 367.636,111.200 367.643 C 110.870 367.649,110.191 367.851,109.691 368.092 " stroke="none" fill="#54c4d4" fill-rule="evenodd"></path><path id="path1" d="M11.500 11.431 C 10.592 12.346,11.194 16.418,12.300 16.842 C 16.604 18.495,21.619 15.287,19.268 12.385 C 18.454 11.379,12.301 10.624,11.500 11.431 M267.200 22.600 C 267.717 23.150,268.319 23.600,268.539 23.600 C 268.759 23.600,268.517 23.150,268.000 22.600 C 267.483 22.050,266.881 21.600,266.661 21.600 C 266.441 21.600,266.683 22.050,267.200 22.600 M142.000 28.289 C 142.000 28.792,143.143 29.790,143.412 29.521 C 143.518 29.415,143.244 29.002,142.802 28.602 C 142.361 28.203,142.000 28.062,142.000 28.289 M339.275 47.625 C 339.371 47.914,339.686 48.229,339.975 48.325 C 340.275 48.425,340.425 48.275,340.325 47.975 C 340.229 47.686,339.914 47.371,339.625 47.275 C 339.325 47.175,339.175 47.325,339.275 47.625 M78.600 54.000 C 77.843 54.837,78.298 55.142,79.103 54.337 C 79.454 53.986,79.718 54.000,80.193 54.394 C 81.055 55.109,81.391 54.648,80.590 53.848 C 79.753 53.010,79.477 53.031,78.600 54.000 M19.054 81.229 C 17.771 82.238,17.711 83.299,18.875 84.384 C 20.016 85.447,20.623 85.413,21.818 84.218 C 23.890 82.147,21.362 79.413,19.054 81.229 M218.537 82.075 L 216.875 82.432 216.651 84.716 C 215.752 93.877,216.631 106.995,218.253 108.616 C 220.419 110.782,218.902 115.432,215.582 116.807 C 214.837 117.116,214.085 118.010,213.349 119.465 C 212.739 120.671,211.931 121.823,211.552 122.026 C 211.174 122.228,210.642 123.067,210.370 123.890 C 210.099 124.713,209.063 126.200,208.069 127.193 L 206.263 129.000 194.613 129.000 C 180.552 129.000,180.800 129.071,180.800 125.075 C 180.800 123.308,181.046 122.102,181.634 120.985 C 183.272 117.872,183.293 117.340,181.887 114.448 L 180.600 111.800 180.486 100.400 C 180.359 87.693,180.151 86.173,178.493 85.843 C 175.233 85.197,155.625 85.404,154.936 86.093 C 154.151 86.877,154.084 89.033,154.354 104.800 C 154.545 115.965,153.517 118.920,149.155 119.747 C 148.219 119.925,147.589 120.375,147.119 121.202 C 146.744 121.861,146.156 122.400,145.813 122.400 C 145.469 122.400,144.856 122.946,144.450 123.614 C 143.787 124.705,142.609 125.634,138.638 128.200 C 136.085 129.849,125.171 129.251,124.335 127.416 C 124.093 126.887,123.380 126.240,122.750 125.979 C 121.433 125.434,120.966 124.124,120.581 119.897 C 120.395 117.846,120.158 117.099,119.600 116.800 C 118.376 116.145,118.006 114.112,117.614 105.888 C 117.269 98.642,117.167 97.923,116.326 96.786 C 115.607 95.814,115.381 94.896,115.263 92.475 C 115.067 88.454,115.010 88.401,110.851 88.397 C 106.023 88.392,100.695 87.724,97.400 86.709 C 94.837 85.921,93.703 85.847,84.000 85.837 L 73.400 85.827 70.400 87.413 C 68.750 88.286,67.326 89.044,67.236 89.098 C 67.145 89.151,67.366 89.520,67.725 89.917 C 70.259 92.717,70.442 102.537,67.985 103.808 C 67.284 104.170,66.768 104.836,66.602 105.593 C 66.456 106.256,66.000 107.035,65.589 107.323 C 64.878 107.821,64.873 107.935,65.491 109.623 C 66.709 112.948,66.681 129.410,65.452 132.978 C 62.964 140.201,63.025 150.176,65.567 151.889 L 66.931 152.809 70.067 149.504 L 73.203 146.200 83.501 146.200 C 94.448 146.200,95.520 146.319,96.779 147.669 C 97.431 148.370,98.392 148.622,101.973 149.031 C 105.518 149.437,106.621 149.723,107.683 150.513 C 108.407 151.052,109.873 151.818,110.940 152.216 C 112.380 152.753,113.038 153.272,113.497 154.234 C 114.207 155.723,114.670 155.870,119.823 156.246 C 124.322 156.574,124.807 156.338,126.378 153.046 C 128.194 149.242,129.632 148.790,140.000 148.767 C 148.656 148.748,151.442 149.151,152.929 150.638 C 153.491 151.200,154.916 151.876,156.256 152.217 C 157.748 152.597,158.931 153.188,159.511 153.842 C 160.012 154.408,161.041 155.042,161.798 155.250 C 162.554 155.459,163.412 155.848,163.705 156.115 C 165.810 158.035,167.298 158.271,169.019 156.958 C 170.219 156.043,170.567 155.962,171.892 156.289 C 173.239 156.621,173.583 156.532,175.109 155.456 C 176.719 154.321,177.087 154.240,181.396 154.076 C 185.814 153.906,185.997 153.864,186.645 152.850 C 190.170 147.343,193.384 145.605,200.051 145.602 C 203.782 145.600,204.805 145.476,205.222 144.974 C 206.539 143.387,211.293 142.411,217.742 142.403 C 220.081 142.400,220.659 142.253,221.673 141.400 C 223.142 140.164,223.532 140.158,225.284 141.347 C 226.207 141.973,227.558 142.388,229.275 142.572 C 233.283 143.001,235.037 144.433,235.779 147.880 C 236.027 149.030,236.235 149.186,237.852 149.429 C 240.813 149.873,246.440 148.878,247.708 147.686 C 248.962 146.508,251.331 146.075,258.215 145.766 C 262.762 145.562,264.777 145.295,266.600 144.652 C 270.120 143.412,276.697 143.439,279.112 144.704 C 280.054 145.197,281.141 145.600,281.528 145.600 C 281.915 145.600,283.215 145.849,284.416 146.153 C 288.860 147.277,289.499 147.301,290.417 146.383 C 291.165 145.635,291.193 145.481,290.650 145.068 C 288.327 143.299,288.962 136.000,291.439 136.000 C 291.758 136.000,292.192 135.548,292.402 134.995 C 292.612 134.442,293.283 133.768,293.892 133.497 C 294.501 133.226,295.540 132.442,296.200 131.756 C 298.484 129.382,307.456 129.373,309.779 131.742 C 310.674 132.654,311.642 133.119,313.400 133.483 C 315.103 133.836,316.037 134.274,316.615 134.990 C 317.063 135.546,317.616 136.000,317.842 136.000 C 319.335 136.000,322.483 137.345,322.844 138.136 C 323.319 139.179,326.598 140.170,327.125 139.429 C 327.293 139.193,327.309 136.480,327.159 133.400 C 327.009 130.320,326.867 125.258,326.843 122.152 C 326.805 117.127,326.669 116.063,325.611 112.501 C 324.580 109.032,324.374 107.506,324.066 101.065 L 323.710 93.631 322.455 92.202 C 321.765 91.415,321.200 90.454,321.200 90.066 C 321.200 88.605,320.407 88.400,314.746 88.400 C 308.873 88.400,307.527 88.117,306.084 86.577 C 305.580 86.040,304.881 85.600,304.530 85.600 C 303.141 85.600,300.722 84.613,299.765 83.656 C 298.472 82.362,296.192 82.422,294.156 83.804 C 293.370 84.338,291.664 84.983,290.365 85.239 C 289.066 85.494,287.615 86.040,287.140 86.452 C 286.066 87.384,285.936 87.382,284.104 86.400 C 282.591 85.589,279.650 85.387,277.615 85.954 C 276.780 86.187,276.551 86.620,276.110 88.800 C 275.824 90.214,275.420 91.540,275.214 91.746 C 274.979 91.981,274.984 92.397,275.229 92.853 C 275.444 93.255,275.816 95.589,276.057 98.039 C 276.393 101.467,276.667 102.667,277.247 103.247 C 278.220 104.220,278.203 105.292,277.200 106.200 C 275.872 107.402,276.076 110.655,277.562 111.971 C 279.092 113.325,279.565 116.737,278.493 118.677 C 278.112 119.367,277.378 120.692,276.863 121.622 L 275.926 123.313 272.211 123.091 C 268.397 122.864,266.490 122.228,265.524 120.864 C 265.236 120.456,264.309 119.896,263.464 119.618 C 262.379 119.262,261.816 118.790,261.544 118.010 C 261.210 117.055,260.888 116.874,259.137 116.667 C 256.942 116.407,256.097 115.907,255.588 114.567 C 255.406 114.091,254.751 113.574,254.131 113.419 C 252.707 113.061,252.004 112.482,251.985 111.651 C 251.976 111.293,251.402 110.640,250.709 110.200 C 248.922 109.065,248.772 108.096,248.822 98.000 C 248.883 85.585,248.925 86.179,247.900 85.053 C 247.405 84.509,246.687 83.690,246.304 83.232 C 245.231 81.950,241.852 82.043,240.976 83.380 C 239.571 85.524,229.269 85.816,226.850 83.780 C 225.126 82.330,221.147 81.514,218.537 82.075 M360.200 143.289 C 358.587 144.181,358.312 145.834,359.584 146.985 C 360.620 147.923,362.276 147.509,362.892 146.158 C 363.666 144.459,361.759 142.426,360.200 143.289 M28.765 150.642 C 28.280 151.226,27.963 152.751,27.344 157.466 C 26.965 160.351,30.226 161.458,31.841 158.994 C 32.441 158.077,32.442 157.846,31.846 156.025 C 31.491 154.938,31.200 153.436,31.200 152.687 C 31.200 150.663,29.755 149.449,28.765 150.642 M28.843 163.157 C 27.308 164.692,27.243 165.618,27.869 177.040 C 28.218 183.408,28.528 184.400,30.166 184.400 C 30.801 184.400,31.138 184.750,31.417 185.700 C 31.850 187.170,33.146 187.629,33.990 186.612 C 34.680 185.781,33.502 184.400,32.102 184.400 L 31.128 184.400 31.361 178.300 C 31.489 174.945,31.702 170.947,31.835 169.415 C 32.238 164.760,30.621 161.379,28.843 163.157 M354.800 237.881 C 354.800 238.090,355.274 238.697,355.854 239.230 C 356.795 240.096,356.862 240.110,356.476 239.367 C 355.960 238.372,354.800 237.344,354.800 237.881 M359.487 259.368 C 360.269 260.414,360.552 260.463,360.178 259.488 C 360.046 259.144,359.676 258.761,359.356 258.639 C 358.918 258.470,358.950 258.651,359.487 259.368 M360.093 263.200 C 360.093 263.970,360.175 264.285,360.276 263.900 C 360.376 263.515,360.376 262.885,360.276 262.500 C 360.175 262.115,360.093 262.430,360.093 263.200 M47.402 330.402 C 47.802 330.844,48.215 331.118,48.321 331.012 C 48.590 330.743,47.592 329.600,47.089 329.600 C 46.862 329.600,47.003 329.961,47.402 330.402 M104.984 367.627 C 104.839 367.861,104.816 368.149,104.933 368.267 C 105.220 368.553,106.000 368.048,106.000 367.576 C 106.000 367.065,105.309 367.099,104.984 367.627 M109.700 368.598 C 107.806 369.960,108.942 372.569,111.389 372.477 C 113.086 372.414,115.400 371.227,115.400 370.421 C 115.400 368.810,111.251 367.483,109.700 368.598 M112.311 369.423 C 113.488 370.247,113.432 370.659,112.049 371.375 C 111.000 371.917,110.839 371.906,110.249 371.254 C 108.718 369.562,110.390 368.077,112.311 369.423 M111.200 370.000 C 111.749 370.355,111.479 370.578,110.670 370.437 C 110.489 370.406,110.455 370.565,110.595 370.791 C 110.767 371.069,111.117 371.059,111.678 370.758 C 112.502 370.317,112.085 369.612,111.000 369.612 C 110.780 369.612,110.870 369.787,111.200 370.000 M344.316 385.156 C 344.025 385.572,343.005 386.146,342.050 386.432 C 339.392 387.229,338.726 390.052,340.905 391.283 C 342.481 392.173,352.115 391.981,353.158 391.038 C 355.522 388.899,353.833 386.649,349.537 386.214 C 347.660 386.024,346.667 385.716,346.175 385.172 C 345.302 384.207,344.982 384.204,344.316 385.156 " stroke="none" fill="#fbfcfc" fill-rule="evenodd"></path><path id="path2" d="M260.000 21.600 C 260.440 22.040,260.800 22.701,260.800 23.070 C 260.800 23.624,260.972 23.578,261.798 22.801 C 262.859 21.805,262.853 21.126,261.792 22.007 C 261.263 22.446,261.070 22.392,260.560 21.664 C 260.227 21.189,259.785 20.800,259.577 20.800 C 259.370 20.800,259.560 21.160,260.000 21.600 M266.236 22.600 C 266.786 23.150,267.453 23.594,267.718 23.587 C 268.262 23.573,266.155 21.600,265.596 21.600 C 265.398 21.600,265.686 22.050,266.236 22.600 M185.295 31.066 C 185.018 31.178,184.588 31.659,184.341 32.135 C 183.920 32.945,183.959 32.938,184.946 32.030 C 185.526 31.497,186.000 31.002,186.000 30.930 C 186.000 30.784,185.993 30.785,185.295 31.066 M175.965 37.313 C 175.616 37.581,175.099 38.250,174.816 38.800 C 174.534 39.350,174.462 39.620,174.657 39.400 C 177.053 36.700,177.322 36.271,175.965 37.313 M174.800 47.879 C 174.800 48.415,175.900 49.834,176.133 49.599 C 176.242 49.490,175.987 48.975,175.566 48.456 C 175.145 47.936,174.800 47.677,174.800 47.879 M290.100 48.676 C 290.485 48.776,291.115 48.776,291.500 48.676 C 291.885 48.575,291.570 48.493,290.800 48.493 C 290.030 48.493,289.715 48.575,290.100 48.676 M298.707 48.690 C 299.426 48.779,300.506 48.777,301.107 48.686 C 301.708 48.595,301.120 48.522,299.800 48.524 C 298.480 48.526,297.988 48.601,298.707 48.690 M176.524 54.600 C 176.526 55.920,176.601 56.412,176.690 55.693 C 176.779 54.974,176.777 53.894,176.686 53.293 C 176.595 52.692,176.522 53.280,176.524 54.600 M79.000 54.400 C 78.864 54.620,79.134 54.800,79.600 54.800 C 80.066 54.800,80.336 54.620,80.200 54.400 C 80.064 54.180,79.794 54.000,79.600 54.000 C 79.406 54.000,79.136 54.180,79.000 54.400 M90.198 56.002 C 89.175 57.132,89.610 57.237,90.686 56.120 C 91.173 55.614,91.426 55.200,91.248 55.200 C 91.070 55.200,90.597 55.561,90.198 56.002 M111.500 58.682 C 111.995 58.778,112.805 58.778,113.300 58.682 C 113.795 58.587,113.390 58.509,112.400 58.509 C 111.410 58.509,111.005 58.587,111.500 58.682 M161.300 61.091 C 162.125 61.178,163.475 61.178,164.300 61.091 C 165.125 61.005,164.450 60.934,162.800 60.934 C 161.150 60.934,160.475 61.005,161.300 61.091 M362.114 65.720 C 362.601 66.226,363.074 66.587,363.164 66.523 C 363.398 66.355,361.942 64.800,361.552 64.800 C 361.374 64.800,361.627 65.214,362.114 65.720 M363.301 79.000 C 363.305 79.880,363.387 80.193,363.483 79.695 C 363.579 79.198,363.575 78.478,363.475 78.095 C 363.375 77.713,363.296 78.120,363.301 79.000 M218.600 78.881 C 214.678 80.245,212.430 86.108,213.808 91.377 C 214.628 94.510,214.652 95.950,213.909 97.402 C 213.159 98.869,213.447 101.370,214.962 106.545 C 216.328 111.210,216.050 113.703,214.044 114.776 C 213.628 114.999,212.810 115.996,212.226 116.991 C 211.643 117.986,210.998 118.800,210.791 118.800 C 210.585 118.800,209.918 119.656,209.308 120.702 C 205.360 127.480,204.633 127.834,195.600 127.364 C 192.190 127.186,188.733 127.092,187.918 127.153 C 184.626 127.402,183.687 125.821,184.421 121.264 C 184.698 119.543,184.691 117.472,184.397 114.677 C 184.162 112.435,183.805 108.800,183.603 106.600 C 183.401 104.400,183.118 101.340,182.973 99.800 C 182.805 98.016,182.887 96.347,183.200 95.200 C 184.164 91.667,183.063 87.048,180.761 84.965 C 179.710 84.013,173.414 83.080,170.200 83.399 C 166.330 83.783,163.488 83.655,160.505 82.963 L 157.965 82.374 155.510 83.687 C 151.527 85.817,151.189 87.409,152.381 98.400 C 153.408 107.869,152.833 113.229,150.541 115.567 C 149.803 116.318,149.200 117.064,149.200 117.223 C 149.200 117.383,148.438 117.818,147.507 118.190 C 146.526 118.583,144.428 120.199,142.517 122.034 C 140.703 123.775,138.941 125.200,138.602 125.200 C 138.263 125.200,137.053 125.688,135.913 126.284 C 133.326 127.636,131.206 127.606,128.011 126.173 C 123.991 124.369,122.943 122.767,122.009 117.000 C 121.760 115.460,121.216 113.091,120.802 111.735 C 120.387 110.379,119.947 108.219,119.824 106.935 C 119.701 105.651,119.331 101.810,119.001 98.400 C 118.672 94.990,118.357 91.392,118.301 90.404 C 118.206 88.712,118.070 88.519,115.961 87.071 L 113.722 85.535 106.961 84.915 C 97.868 84.080,70.911 83.962,68.669 84.747 C 65.483 85.862,64.792 89.401,66.626 95.206 C 68.016 99.606,67.339 102.041,63.651 105.910 L 62.301 107.326 62.651 110.363 C 62.843 112.033,62.950 115.020,62.888 117.000 C 62.826 118.980,62.983 122.220,63.235 124.200 C 63.627 127.267,63.599 128.164,63.047 130.258 C 62.677 131.665,62.388 134.401,62.371 136.658 C 62.355 138.826,62.194 141.590,62.014 142.800 C 61.655 145.204,62.127 150.490,63.014 154.000 C 64.304 159.107,64.813 164.355,64.560 169.927 C 64.374 174.033,64.476 176.483,64.968 179.735 C 65.506 183.282,65.621 187.320,65.604 201.935 C 65.593 211.761,65.727 221.373,65.902 223.296 C 66.078 225.224,66.064 227.197,65.871 227.696 C 64.865 230.293,66.331 251.089,67.816 255.288 C 68.617 257.554,68.923 259.443,69.195 263.800 C 69.457 268.017,69.746 269.855,70.365 271.243 C 70.817 272.256,71.371 274.416,71.597 276.043 C 72.235 280.642,73.201 285.112,73.907 286.728 C 74.401 287.856,74.618 290.301,74.839 297.200 C 75.024 302.954,75.339 306.993,75.714 308.400 C 76.036 309.610,76.404 311.421,76.532 312.425 C 76.888 315.227,78.175 317.863,79.528 318.563 C 81.067 319.359,81.131 319.581,81.449 325.205 C 81.782 331.101,81.533 330.866,87.883 331.266 C 91.803 331.513,93.205 331.760,94.275 332.391 C 95.932 333.369,97.775 333.421,99.851 332.549 C 102.474 331.448,106.807 331.692,110.726 333.162 C 113.928 334.364,114.342 334.418,121.922 334.622 C 128.470 334.799,129.954 334.949,130.750 335.517 C 133.046 337.157,133.249 337.188,141.600 337.195 C 146.110 337.198,154.930 337.408,161.200 337.661 C 167.470 337.913,172.960 338.093,173.400 338.060 C 173.840 338.027,183.290 337.834,194.400 337.633 C 218.989 337.186,226.770 336.724,229.935 335.522 C 232.449 334.567,240.320 334.287,260.800 334.424 C 271.165 334.494,273.162 334.252,275.396 332.659 C 276.540 331.843,277.080 331.797,286.200 331.731 C 291.480 331.694,299.850 331.449,304.800 331.188 C 309.750 330.928,316.860 330.667,320.600 330.610 C 324.340 330.552,327.698 330.379,328.063 330.224 C 330.888 329.026,332.179 314.557,331.743 289.000 C 331.605 280.938,331.692 274.275,331.976 271.000 C 333.471 253.772,333.571 245.432,332.376 237.755 C 331.725 233.569,331.197 221.816,330.836 203.451 C 330.546 188.667,330.384 185.537,329.845 184.245 C 329.132 182.540,329.006 179.671,329.559 177.744 C 330.003 176.196,329.122 164.538,328.373 162.057 C 327.974 160.733,327.459 160.069,326.233 159.294 C 325.344 158.734,324.350 158.007,324.022 157.679 C 323.208 156.865,320.391 155.620,319.341 155.609 C 318.868 155.604,316.978 155.076,315.141 154.436 C 313.303 153.797,310.720 152.919,309.400 152.487 C 304.560 150.901,300.656 149.213,299.641 148.267 C 299.069 147.733,297.880 147.067,297.000 146.787 C 292.393 145.320,289.643 139.926,292.500 137.959 C 293.215 137.467,294.276 136.600,294.858 136.032 C 299.629 131.379,303.062 130.982,309.600 134.326 C 312.350 135.733,315.410 137.130,316.400 137.430 C 317.390 137.731,319.170 138.603,320.356 139.369 C 321.542 140.135,323.009 140.870,323.615 141.003 C 324.221 141.136,325.034 141.595,325.421 142.023 C 326.342 143.041,330.180 143.149,330.557 142.167 C 331.027 140.943,330.791 138.477,329.962 135.952 C 329.268 133.838,329.062 131.787,328.761 124.000 C 328.371 113.919,327.549 105.657,326.650 102.781 C 326.344 101.801,325.900 99.088,325.664 96.752 C 324.805 88.250,322.028 85.608,313.938 85.596 C 312.322 85.593,310.100 85.318,309.000 84.984 C 307.900 84.651,306.349 84.202,305.554 83.988 C 304.758 83.774,303.443 83.070,302.632 82.425 C 299.825 80.195,293.949 80.435,289.069 82.979 L 286.416 84.361 281.688 84.124 C 275.934 83.834,275.447 84.028,274.599 86.945 C 274.259 88.114,273.535 89.675,272.990 90.413 C 271.800 92.026,271.769 92.851,272.810 95.146 C 274.368 98.580,274.897 101.574,274.845 106.667 C 274.815 109.514,274.985 112.004,275.252 112.667 C 276.312 115.293,276.306 116.982,275.228 119.244 L 274.200 121.400 272.235 121.330 C 270.928 121.283,269.924 120.982,269.235 120.430 C 268.666 119.974,267.178 119.065,265.929 118.410 C 264.680 117.754,263.532 117.014,263.378 116.764 C 263.224 116.515,262.086 115.866,260.849 115.323 C 259.612 114.780,258.150 113.921,257.600 113.415 C 257.050 112.909,256.125 112.249,255.545 111.948 C 254.294 111.299,251.856 108.361,250.963 106.428 C 250.245 104.873,250.360 95.251,251.146 91.249 C 251.478 89.556,251.451 88.872,251.018 88.035 C 250.716 87.451,250.350 86.259,250.204 85.386 C 249.576 81.621,248.934 81.080,244.496 80.580 C 242.710 80.379,241.645 80.509,239.699 81.165 C 236.743 82.163,236.685 82.166,230.902 81.629 C 227.023 81.270,226.020 81.018,223.612 79.806 C 220.599 78.289,220.405 78.253,218.600 78.881 M224.189 82.481 C 225.063 82.700,226.260 83.285,226.850 83.780 C 229.269 85.816,239.571 85.524,240.976 83.380 C 241.852 82.043,245.231 81.950,246.304 83.232 C 246.687 83.690,247.405 84.509,247.900 85.053 C 248.925 86.179,248.883 85.585,248.822 98.000 C 248.772 108.096,248.922 109.065,250.709 110.200 C 251.402 110.640,251.976 111.293,251.985 111.651 C 252.004 112.482,252.707 113.061,254.131 113.419 C 254.751 113.574,255.406 114.091,255.588 114.567 C 256.097 115.907,256.942 116.407,259.137 116.667 C 260.888 116.874,261.210 117.055,261.544 118.010 C 261.816 118.790,262.379 119.262,263.464 119.618 C 264.309 119.896,265.236 120.456,265.524 120.864 C 266.490 122.228,268.397 122.864,272.211 123.091 L 275.926 123.313 276.863 121.622 C 277.378 120.692,278.112 119.367,278.493 118.677 C 279.565 116.737,279.092 113.325,277.562 111.971 C 276.076 110.655,275.872 107.402,277.200 106.200 C 278.203 105.292,278.220 104.220,277.247 103.247 C 276.667 102.667,276.393 101.467,276.057 98.039 C 275.816 95.589,275.444 93.255,275.229 92.853 C 274.984 92.397,274.979 91.981,275.214 91.746 C 275.420 91.540,275.824 90.214,276.110 88.800 C 276.551 86.620,276.780 86.187,277.615 85.954 C 279.650 85.387,282.591 85.589,284.104 86.400 C 285.936 87.382,286.066 87.384,287.140 86.452 C 287.615 86.040,289.066 85.494,290.365 85.239 C 291.664 84.983,293.370 84.338,294.156 83.804 C 296.192 82.422,298.472 82.362,299.765 83.656 C 300.722 84.613,303.141 85.600,304.530 85.600 C 304.881 85.600,305.580 86.040,306.084 86.577 C 307.527 88.117,308.873 88.400,314.746 88.400 C 320.407 88.400,321.200 88.605,321.200 90.066 C 321.200 90.454,321.765 91.415,322.455 92.202 L 323.710 93.631 324.066 101.065 C 324.374 107.506,324.580 109.032,325.611 112.501 C 326.669 116.063,326.805 117.127,326.843 122.152 C 326.867 125.258,327.009 130.320,327.159 133.400 C 327.309 136.480,327.293 139.193,327.125 139.429 C 326.598 140.170,323.319 139.179,322.844 138.136 C 322.483 137.345,319.335 136.000,317.842 136.000 C 317.616 136.000,317.063 135.546,316.615 134.990 C 316.037 134.274,315.103 133.836,313.400 133.483 C 311.642 133.119,310.674 132.654,309.779 131.742 C 307.456 129.373,298.484 129.382,296.200 131.756 C 295.540 132.442,294.501 133.226,293.892 133.497 C 293.283 133.768,292.612 134.442,292.402 134.995 C 292.192 135.548,291.758 136.000,291.439 136.000 C 288.962 136.000,288.327 143.299,290.650 145.068 C 291.193 145.481,291.165 145.635,290.417 146.383 C 289.499 147.301,288.860 147.277,284.416 146.153 C 283.215 145.849,281.915 145.600,281.528 145.600 C 281.141 145.600,280.054 145.197,279.112 144.704 C 276.697 143.439,270.120 143.412,266.600 144.652 C 264.777 145.295,262.762 145.562,258.215 145.766 C 251.331 146.075,248.962 146.508,247.708 147.686 C 246.440 148.878,240.813 149.873,237.852 149.429 C 236.235 149.186,236.027 149.030,235.779 147.880 C 235.037 144.433,233.283 143.001,229.275 142.572 C 227.558 142.388,226.207 141.973,225.284 141.347 C 223.532 140.158,223.142 140.164,221.673 141.400 C 220.659 142.253,220.081 142.400,217.742 142.403 C 211.293 142.411,206.539 143.387,205.222 144.974 C 204.805 145.476,203.782 145.600,200.051 145.602 C 193.384 145.605,190.170 147.343,186.645 152.850 C 185.997 153.864,185.814 153.906,181.396 154.076 C 177.087 154.240,176.719 154.321,175.109 155.456 C 173.583 156.532,173.239 156.621,171.892 156.289 C 170.567 155.962,170.219 156.043,169.019 156.958 C 167.298 158.271,165.810 158.035,163.705 156.115 C 163.412 155.848,162.554 155.459,161.798 155.250 C 161.041 155.042,160.012 154.408,159.511 153.842 C 158.931 153.188,157.748 152.597,156.256 152.217 C 154.916 151.876,153.491 151.200,152.929 150.638 C 151.442 149.151,148.656 148.748,140.000 148.767 C 129.632 148.790,128.194 149.242,126.378 153.046 C 124.807 156.338,124.322 156.574,119.823 156.246 C 114.670 155.870,114.207 155.723,113.497 154.234 C 113.038 153.272,112.380 152.753,110.940 152.216 C 109.873 151.818,108.407 151.052,107.683 150.513 C 106.621 149.723,105.518 149.437,101.973 149.031 C 98.392 148.622,97.431 148.370,96.779 147.669 C 95.520 146.319,94.448 146.200,83.501 146.200 L 73.203 146.200 70.067 149.504 L 66.931 152.809 65.567 151.889 C 63.025 150.176,62.964 140.201,65.452 132.978 C 66.681 129.410,66.709 112.948,65.491 109.623 C 64.873 107.935,64.878 107.821,65.589 107.323 C 66.000 107.035,66.456 106.256,66.602 105.593 C 66.768 104.836,67.284 104.170,67.985 103.808 C 70.442 102.537,70.259 92.717,67.725 89.917 C 67.366 89.520,67.145 89.151,67.236 89.098 C 67.326 89.044,68.750 88.286,70.400 87.413 L 73.400 85.827 84.000 85.837 C 93.703 85.847,94.837 85.921,97.400 86.709 C 100.695 87.724,106.023 88.392,110.851 88.397 C 115.010 88.401,115.067 88.454,115.263 92.475 C 115.381 94.896,115.607 95.814,116.326 96.786 C 117.167 97.923,117.269 98.642,117.614 105.888 C 118.006 114.112,118.376 116.145,119.600 116.800 C 120.158 117.099,120.395 117.846,120.581 119.897 C 120.966 124.124,121.433 125.434,122.750 125.979 C 123.380 126.240,124.093 126.887,124.335 127.416 C 125.171 129.251,136.085 129.849,138.638 128.200 C 142.609 125.634,143.787 124.705,144.450 123.614 C 144.856 122.946,145.469 122.400,145.813 122.400 C 146.156 122.400,146.744 121.861,147.119 121.202 C 147.589 120.375,148.219 119.925,149.155 119.747 C 153.517 118.920,154.545 115.965,154.354 104.800 C 154.084 89.033,154.151 86.877,154.936 86.093 C 155.625 85.404,175.233 85.197,178.493 85.843 C 180.151 86.173,180.359 87.693,180.486 100.400 L 180.600 111.800 181.887 114.448 C 183.293 117.340,183.272 117.872,181.634 120.985 C 181.046 122.102,180.800 123.308,180.800 125.075 C 180.800 129.071,180.552 129.000,194.613 129.000 L 206.263 129.000 208.069 127.193 C 209.063 126.200,210.099 124.713,210.370 123.890 C 210.642 123.067,211.174 122.228,211.552 122.026 C 211.931 121.823,212.739 120.671,213.349 119.465 C 214.085 118.010,214.837 117.116,215.582 116.807 C 218.902 115.432,220.419 110.782,218.253 108.616 C 216.631 106.995,215.752 93.877,216.651 84.716 L 216.875 82.432 218.537 82.075 C 220.250 81.707,221.442 81.792,224.189 82.481 M360.101 99.400 C 360.105 100.280,360.187 100.593,360.283 100.095 C 360.379 99.598,360.375 98.878,360.275 98.495 C 360.175 98.113,360.096 98.520,360.101 99.400 M359.081 103.039 C 358.686 103.568,358.545 104.000,358.767 104.000 C 359.172 104.000,360.182 102.444,359.932 102.205 C 359.860 102.135,359.477 102.511,359.081 103.039 M356.432 135.969 C 356.414 136.281,356.102 136.866,355.738 137.269 C 355.365 137.681,355.271 138.000,355.524 138.000 C 356.105 138.000,356.909 136.496,356.658 135.878 C 356.529 135.562,356.452 135.593,356.432 135.969 M228.283 144.746 C 229.118 145.175,230.520 146.153,231.400 146.920 L 233.000 148.313 231.755 150.057 C 231.070 151.015,229.916 152.160,229.190 152.600 C 228.465 153.040,226.586 154.610,225.016 156.089 C 223.215 157.786,221.505 159.008,220.381 159.399 C 219.401 159.741,218.060 160.268,217.400 160.570 C 216.182 161.129,212.470 161.954,207.400 162.793 C 205.860 163.048,204.297 163.531,203.927 163.866 C 201.691 165.890,198.287 166.031,195.744 164.205 C 194.675 163.437,193.151 162.457,192.358 162.026 C 189.585 160.520,189.161 152.676,191.741 150.609 C 195.377 147.696,195.362 147.702,200.109 147.417 C 206.147 147.056,208.966 146.532,211.335 145.332 C 214.846 143.552,225.261 143.193,228.283 144.746 M280.015 147.203 C 281.183 147.424,282.978 148.144,284.004 148.803 C 285.246 149.600,286.383 150.000,287.404 150.000 C 290.398 150.000,291.455 153.361,289.604 156.993 C 289.166 157.852,288.695 159.153,288.558 159.885 C 288.042 162.633,288.293 162.593,270.970 162.714 C 253.706 162.834,252.445 162.714,248.215 160.546 C 243.772 158.268,242.873 156.786,243.671 153.046 C 244.109 150.990,244.068 151.014,249.400 149.784 C 251.600 149.276,254.390 148.574,255.600 148.223 C 259.618 147.057,275.703 146.385,280.015 147.203 M89.600 149.041 C 96.380 149.884,104.916 152.053,108.700 153.894 C 111.431 155.222,109.800 160.482,106.258 161.768 C 98.459 164.598,92.952 164.814,81.600 162.735 C 75.964 161.702,75.755 161.597,71.861 157.854 L 68.721 154.836 70.861 152.395 C 74.439 148.312,78.250 147.630,89.600 149.041 M149.423 151.865 C 150.730 152.539,152.520 153.318,153.400 153.596 C 154.280 153.874,155.285 154.350,155.634 154.653 C 155.983 154.957,157.419 155.762,158.825 156.443 C 160.231 157.125,161.895 158.113,162.522 158.641 C 163.148 159.168,163.860 159.600,164.103 159.600 C 164.657 159.600,170.428 163.548,171.093 164.382 C 173.944 167.959,174.109 170.618,171.550 171.753 C 170.367 172.278,169.063 173.081,168.651 173.539 C 166.456 175.978,161.853 176.005,157.181 173.607 C 155.961 172.980,153.900 172.190,152.603 171.851 C 151.306 171.512,149.747 170.868,149.140 170.419 C 148.532 169.969,147.040 169.230,145.825 168.775 C 144.610 168.320,143.509 167.776,143.378 167.565 C 143.248 167.354,142.120 166.664,140.871 166.031 C 139.622 165.398,138.150 164.490,137.600 164.013 C 137.050 163.536,135.790 162.620,134.800 161.978 C 128.644 157.985,127.892 156.442,130.473 153.105 C 131.198 152.167,131.853 151.310,131.927 151.200 C 132.131 150.900,139.722 150.491,143.623 150.570 C 146.581 150.630,147.369 150.806,149.423 151.865 M356.928 172.000 C 356.928 173.430,357.001 174.015,357.089 173.300 C 357.178 172.585,357.178 171.415,357.089 170.700 C 357.001 169.985,356.928 170.570,356.928 172.000 M355.788 212.420 C 355.407 213.035,355.928 213.432,356.442 212.918 C 356.729 212.631,356.736 212.407,356.462 212.239 C 356.239 212.100,355.935 212.182,355.788 212.420 M354.813 238.682 C 354.806 238.947,355.250 239.614,355.800 240.164 C 356.350 240.714,356.800 241.002,356.800 240.804 C 356.800 240.245,354.827 238.138,354.813 238.682 M356.893 242.800 C 356.893 243.570,356.975 243.885,357.076 243.500 C 357.176 243.115,357.176 242.485,357.076 242.100 C 356.975 241.715,356.893 242.030,356.893 242.800 M43.340 258.252 C 43.687 258.940,44.288 259.625,44.676 259.774 C 45.366 260.039,45.319 259.969,43.060 257.400 C 42.867 257.180,42.993 257.563,43.340 258.252 M358.182 259.496 C 358.202 260.635,358.700 260.977,359.551 260.438 C 360.175 260.044,359.890 259.384,358.860 258.832 C 358.280 258.522,358.167 258.633,358.182 259.496 M359.242 260.118 C 358.728 260.632,358.207 260.235,358.588 259.620 C 358.735 259.382,359.039 259.300,359.262 259.439 C 359.536 259.607,359.529 259.831,359.242 260.118 M359.100 262.030 C 359.799 262.771,359.727 263.403,359.011 262.809 C 358.509 262.392,358.512 262.502,359.036 263.552 C 359.374 264.230,359.864 264.912,360.125 265.069 C 360.476 265.279,360.473 265.197,360.114 264.753 C 359.847 264.423,359.667 263.643,359.714 263.020 C 359.768 262.308,359.577 261.815,359.200 261.694 C 358.716 261.537,358.696 261.602,359.100 262.030 M43.973 263.033 C 43.016 264.186,43.725 268.400,44.876 268.400 C 45.134 268.400,45.053 268.100,44.684 267.692 C 43.711 266.618,43.656 263.641,44.596 262.954 C 45.012 262.649,45.161 262.400,44.925 262.400 C 44.690 262.400,44.262 262.685,43.973 263.033 M177.197 362.454 L 175.800 363.646 177.075 363.026 C 177.776 362.685,178.469 362.212,178.615 361.976 C 179.160 361.094,178.551 361.299,177.197 362.454 M243.600 364.262 C 243.600 364.712,244.641 365.705,245.600 366.169 C 245.930 366.329,245.840 366.172,245.400 365.821 C 244.960 365.470,244.375 364.882,244.100 364.515 C 243.825 364.148,243.600 364.034,243.600 364.262 M258.437 365.078 C 257.907 365.585,257.654 366.000,257.875 366.000 C 258.320 366.000,259.824 364.465,259.564 364.276 C 259.474 364.210,258.966 364.571,258.437 365.078 M110.080 369.280 C 108.808 370.552,110.388 372.234,112.049 371.375 C 113.432 370.659,113.488 370.247,112.311 369.423 C 111.243 368.675,110.719 368.641,110.080 369.280 M111.954 369.963 C 112.398 370.244,112.344 370.402,111.678 370.758 C 111.117 371.059,110.767 371.069,110.595 370.791 C 110.455 370.565,110.489 370.406,110.670 370.437 C 111.479 370.578,111.749 370.355,111.200 370.000 C 110.870 369.787,110.780 369.612,111.000 369.612 C 111.220 369.612,111.649 369.770,111.954 369.963 M76.705 373.483 C 77.202 373.579,77.922 373.575,78.305 373.475 C 78.687 373.375,78.280 373.296,77.400 373.301 C 76.520 373.305,76.207 373.387,76.705 373.483 " stroke="none" fill="#dbfbfc" fill-rule="evenodd"></path></g></svg>